<svg width="72" height="90" viewBox="0 0 72 90" fill="none" xmlns="http://www.w3.org/2000/svg">
<path d="M35.9 43.875V28.475C39.6 28.475 42.7 31.475 42.7 35.275V42.075C40.3 42.175 38 42.875 35.9 43.875ZM38.5 54.075C41 51.575 42.5 48.275 42.7 44.775C40.3 44.875 38 45.675 35.9 46.975V56.075C36.8 55.475 37.7 54.875 38.5 54.075ZM42.7 67.775V62.075C42.7 59.975 44.4 58.275 46.5 58.275H52.2C56 58.275 59 55.275 59 51.475C59 47.675 56 44.675 52.2 44.675H45.3C45.1 48.875 43.3 52.875 40.3 55.875C39 57.175 37.5 58.175 35.9 59.075V74.475C39.7 74.475 42.7 71.475 42.7 67.775ZM19.7 44.775H25.4C27.5 44.775 29.2 43.075 29.2 40.975V35.275C29.2 31.575 32.2 28.475 36 28.475V25.875C30.8 25.875 26.6 30.075 26.6 35.275V40.875C26.6 41.475 26.1 42.075 25.4 42.075H19.7C14.5 42.275 10.4 46.575 10.6 51.775C10.8 56.775 14.7 60.675 19.7 60.875H26.5V67.675C26.5 72.875 30.7 77.075 35.9 77.075V74.475C32.2 74.475 29.1 71.475 29.1 67.675V60.875C31.5 60.775 33.8 60.075 35.9 59.075V56.075C33.9 57.375 31.5 58.075 29.1 58.275C29.4 53.575 31.9 49.375 35.9 46.875V43.875C34.3 44.675 32.8 45.775 31.5 47.075C28.5 50.075 26.7 54.075 26.5 58.275H19.7C15.9 58.275 12.9 55.275 12.9 51.475C12.9 47.775 15.9 44.675 19.7 44.775ZM71.8 21.975V65.475C71.8 68.375 70.2 71.075 67.7 72.575L40 88.575C37.5 90.075 34.3 90.075 31.8 88.575L4.1 72.575C1.6 71.175 0 68.375 0 65.475V21.975C0 20.975 0.5 20.075 1.4 19.575L6.2 16.775C7.5 15.975 9.2 16.475 10 17.775C10.2 18.175 10.4 18.675 10.4 19.175V28.475L13.7 26.575V14.175C13.7 13.175 14.2 12.275 15.1 11.775L20.7 8.475C22 7.675 23.7 8.175 24.5 9.475C24.7 9.875 24.9 10.375 24.9 10.875V20.175L28.4 18.175V5.575C28.4 4.575 28.9 3.675 29.8 3.175L34.6 0.375C35.5 -0.125 36.5 -0.125 37.4 0.375L42.2 3.175C43.1 3.675 43.6 4.575 43.6 5.575V18.075L47.1 20.075V10.775C47 9.275 48.2 8.075 49.8 8.075C50.3 8.075 50.8 8.175 51.2 8.475L56.8 11.775C57.7 12.275 58.2 13.175 58.2 14.175V26.675L61.5 28.575V19.275C61.5 17.775 62.8 16.475 64.3 16.475C64.8 16.475 65.3 16.575 65.7 16.875L70.6 19.675C71.3 20.075 71.8 20.975 71.8 21.975ZM35.9 87.075V77.075C41.1 77.075 45.3 72.875 45.3 67.675V62.075C45.3 61.475 45.8 60.875 46.5 60.875H52.2C57.4 60.875 61.6 56.675 61.6 51.475C61.6 46.275 57.4 42.075 52.2 42.075H45.4V35.275C45.4 30.075 41.2 25.875 36 25.875V2.675H35.9L31 5.475C30.9 5.475 30.9 5.575 30.9 5.575V18.475C30.9 19.175 30.5 19.775 29.9 20.075L25.1 23.075C24.2 23.575 23 23.275 22.5 22.375C22.3 22.075 22.2 21.775 22.2 21.475V10.875C22.2 10.775 22.2 10.775 22.1 10.775C22 10.775 22 10.775 21.9 10.775L16.3 14.075L16.2 14.175V27.075C16.2 27.775 15.8 28.375 15.2 28.775L10.5 31.375C9.6 31.875 8.4 31.575 7.9 30.575C7.7 30.275 7.7 29.975 7.7 29.675V19.175C7.7 19.175 7.7 19.075 7.6 19.075H7.5L2.7 21.875C2.6 21.875 2.6 21.975 2.6 21.975V65.475C2.6 67.475 3.7 69.275 5.4 70.275L33.1 86.275C34 86.875 34.9 87.075 35.9 87.075Z" fill="url(#paint0_linear_5317_23)"/>
<defs>
<linearGradient id="paint0_linear_5317_23" x1="65.8989" y1="74.844" x2="5.94251" y2="14.8975" gradientUnits="userSpaceOnUse">
<stop offset="7.74558e-08" stop-color="#737FE6"/>
<stop offset="1" stop-color="#64C8BF"/>
</linearGradient>
</defs>
</svg>
