<svg width="99" height="104" viewBox="0 0 99 104" fill="none" xmlns="http://www.w3.org/2000/svg">
<g clip-path="url(#clip0_804_6382)">
<path d="M13.329 93.9733C10.2295 91.9706 8.30273 88.4922 8.30273 84.7959V80.1932H29.9435V84.7959C29.9435 88.5203 28.0447 92.0057 24.9173 93.9733H13.329Z" fill="#A071EB"/>
<path d="M78.5939 81.7884H47.124V84.016H78.5939V81.7884Z" fill="#2E2E2E"/>
<path d="M78.5935 70.8472H29.9297V73.0748H78.5935V70.8472Z" fill="#2E2E2E"/>
<path d="M78.5935 37.6161H29.9297V39.8437H78.5935V37.6161Z" fill="#2E2E2E"/>
<path d="M78.5935 48.761H29.9297V50.9886H78.5935V48.761Z" fill="#2E2E2E"/>
<path d="M78.5935 59.899H29.9297V62.1266H78.5935V59.899Z" fill="#2E2E2E"/>
<path d="M30.4248 22.9153H64.8964V30.1603H30.4248V22.9153Z" fill="#A071EB"/>
<path d="M22.6963 68.9851V69.0132C22.9895 71.4797 24.9372 73.0749 25.1885 73.2013L25.9773 73.6019L27.9459 71.0932L27.1012 70.4186C27.0943 70.4116 26.1867 69.6597 26.082 68.6478V68.6267C26.0052 68.0294 26.2356 67.404 26.7731 66.7786L26.8011 66.7434C27.9739 65.2678 28.4486 63.8131 28.2531 62.3023C27.9599 59.9272 26.0401 58.4585 25.7609 58.3179L24.9302 57.9034L23.0593 60.5245L23.904 61.1639C23.911 61.171 24.7626 61.8385 24.8604 62.731V62.7521C24.9372 63.3072 24.6998 63.9045 24.1413 64.5861C23.0384 65.9705 22.5497 67.4602 22.6963 68.9851Z" fill="#2E2E2E"/>
<path d="M16.3303 68.9851V69.0132C16.6235 71.4797 18.5712 73.0749 18.8225 73.2013L19.6114 73.6019L21.58 71.0932L20.7353 70.4186C20.7283 70.4116 19.8208 69.6597 19.7161 68.6478V68.6267C19.6393 68.0294 19.8696 67.404 20.4072 66.7786L20.4351 66.7434C21.6079 65.2678 22.0826 63.8131 21.8871 62.3023C21.5939 59.9272 19.6742 58.4585 19.3949 58.3179L18.5642 57.9034L16.6933 60.5245L17.538 61.1639C17.545 61.171 18.3967 61.8385 18.4944 62.731V62.745C18.5712 63.3002 18.3338 63.8904 17.7824 64.565C16.6933 65.9072 16.1837 67.4391 16.3303 68.9851Z" fill="#2E2E2E"/>
<path d="M10.0056 68.9851V69.0132C10.2988 71.4797 12.2465 73.0749 12.4978 73.2013L13.2867 73.6019L15.2622 71.0862L14.4036 70.4116C14.3966 70.4046 13.4891 69.6527 13.3844 68.6408V68.6197C13.3076 68.0224 13.538 67.397 14.0755 66.7716L14.1034 66.7364C15.2762 65.2607 15.7509 63.8061 15.5554 62.2953C15.2622 59.9201 13.3425 58.4515 13.0633 58.3109L12.2325 57.8963L10.3617 60.5174L11.2064 61.1569C11.2133 61.1639 12.065 61.8315 12.1627 62.7239V62.738C12.2395 63.2931 12.0022 63.8904 11.4437 64.5721C10.3547 65.9705 9.85904 67.4602 10.0056 68.9851Z" fill="#2E2E2E"/>
<path d="M87.5147 27.3565C86.1045 27.9608 84.5478 28.263 82.8794 28.263C75.9822 28.263 70.3696 22.6132 70.3696 15.6704C70.3696 13.8504 70.7326 12.1147 71.4586 10.5125L72.5546 8.0882H17.5522V57.6714H20.9519V11.4682H67.5144C67.1514 12.8104 66.9699 14.2088 66.9699 15.6283C66.9699 24.4613 74.1114 31.643 82.8794 31.643C84.1289 31.643 85.3436 31.5095 86.4955 31.2425V96.7491H31.9049C33.8246 94.7183 35.2836 92.2518 36.1283 89.5463H39.556C41.3012 89.5463 42.9347 88.8647 44.1564 87.635C45.378 86.4052 46.0552 84.7539 46.0552 83.0041C46.0552 79.3922 43.1371 76.4549 39.549 76.4549H36.9591V73.9883H0.553711V84.0793C0.553711 90.0101 3.38795 95.5545 8.16288 98.9908C7.62535 100.017 7.3531 101.036 7.3531 102.026V103.72H30.2016V102.026C30.2016 101.408 30.1038 100.797 29.9014 100.178H89.3088V99.581H89.8603V26.3446L87.5147 27.3565ZM39.556 86.1312H36.8474C36.9242 85.4425 36.966 84.7609 36.966 84.0793V79.8841H39.556C41.2383 79.8841 42.6624 81.3176 42.6624 83.0111C42.6555 84.6976 41.2383 86.1312 39.556 86.1312ZM26.1666 100.298H11.3182C11.3392 100.256 11.3671 100.221 11.395 100.178H25.9432H26.0968C26.1177 100.213 26.1387 100.256 26.1666 100.298ZM3.91152 77.4105H33.5594V84.0793C33.5594 89.2231 30.8787 94.0648 26.5575 96.7561H25.9292H10.9552C6.60614 94.0577 3.91152 89.209 3.91152 84.0793V77.4105Z" fill="#2E2E2E"/>
<path d="M82.8867 0C74.3002 0 67.3193 7.0271 67.3193 15.6704C67.3193 24.3138 74.3002 31.3409 82.8867 31.3409C91.4732 31.3409 98.4541 24.3138 98.4541 15.6704C98.4541 7.0271 91.4662 0 82.8867 0ZM82.8867 28.6144C75.7941 28.6144 70.0279 22.81 70.0279 15.6704C70.0279 8.5309 75.7941 2.72652 82.8867 2.72652C89.9793 2.72652 95.7455 8.5309 95.7455 15.6704C95.7455 22.81 89.9723 28.6144 82.8867 28.6144Z" fill="#2E2E2E"/>
<path d="M82.8862 26.4641C76.75 26.4641 71.7656 21.4467 71.7656 15.2699C71.7656 9.09306 76.7849 4.07571 82.8862 4.07571C89.0224 4.07571 94.0067 9.09306 94.0067 15.2699C94.0067 21.4467 89.0224 26.4641 82.8862 26.4641Z" fill="#C63436"/>
<path d="M90.6839 9.47253L79.8775 19.9991L76.0729 15.4596L74.3486 16.8299L79.7239 23.2457L92.1988 11.0677L90.6839 9.47253Z" fill="#2E2E2E"/>
</g>
<defs>
<clipPath id="clip0_804_6382">
<rect width="97.893" height="103.72" fill="white" transform="translate(0.553711)"/>
</clipPath>
</defs>
</svg>
