<svg width="110" height="104" viewBox="0 0 110 104" fill="none" xmlns="http://www.w3.org/2000/svg">
<path d="M13.5156 0.255196C7.6565 1.54162 3.05905 5.7336 1.02762 11.6334L0.36473 13.563L0.300579 57.967L0.257812 102.371L0.771016 102.992L1.28422 103.613L5.17602 103.679C9.30303 103.746 10.0515 103.635 10.6288 102.748C11.142 102.016 11.0351 100.53 10.4364 99.798C9.92315 99.1992 9.859 99.177 7.33575 99.1105L4.74835 99.0217V57.1907C4.74835 11.212 4.66281 14.4281 6.05274 11.4782C7.015 9.48198 9.49548 6.93131 11.4414 5.9554C13.5156 4.91295 15.3973 4.51371 17.4715 4.64679C23.5017 5.04603 28.0136 9.48198 28.9758 15.9363L29.0614 16.5573H26.1532C22.7319 16.5573 22.0262 16.8235 21.6627 18.2652C20.9356 21.1264 17.7923 36.5413 17.7923 37.2954C17.7923 38.0274 17.9206 38.3379 18.4552 38.8702L19.0967 39.5134H31.3494C44.9707 39.5134 44.4361 39.5799 44.9279 38.0052C45.1418 37.3398 44.9493 36.1199 43.2386 28.0686C42.1695 23.0116 41.2072 18.5535 41.0789 18.1543C40.6512 16.8235 39.9242 16.5573 36.567 16.5573H33.6374L33.5091 15.4927C32.5897 8.32863 28.4626 3.02767 22.0476 0.787514C20.3155 0.18866 19.674 0.0777512 17.4715 0.0112152C15.825 -0.0331497 14.4137 0.0555801 13.5156 0.255196ZM37.3582 21.703C37.4223 21.9914 38.0852 25.0744 38.8336 28.5788L40.1808 34.9665H31.4349C25.9822 34.9665 22.7105 34.8778 22.7105 34.7447C22.7105 34.6338 23.3306 31.573 24.1004 27.9799C24.8702 24.3646 25.4903 21.3703 25.4903 21.3038C25.4903 21.2594 28.1419 21.2151 31.3708 21.2151H37.2513L37.3582 21.703Z" fill="#2E2E2E"/>
<path d="M30.0667 48.496C27.6718 49.0062 25.1058 51.1354 24.0794 53.4865C23.3095 55.2165 23.1385 56.7247 23.1385 61.937V66.6391L22.3473 66.7944C19.1184 67.4154 16.4882 69.8774 15.5687 73.0934C15.2694 74.1359 15.2266 76.1542 15.2266 88.1313C15.2266 103.147 15.2052 102.903 16.4027 103.458C16.809 103.657 21.4278 103.724 34.8139 103.724C50.3169 103.724 52.7546 103.679 53.2892 103.391C54.3798 102.814 54.6577 101.639 54.0162 100.375C53.3534 99.0438 53.781 99.0659 35.9686 99.0659H19.7171V95.9608V92.8556H62.591H105.465V95.9608V99.0659L88.1657 99.1103C70.9734 99.1768 70.8451 99.1768 70.2463 99.6426C69.5834 100.153 69.1985 101.35 69.4124 102.26C69.4979 102.593 69.8614 103.036 70.2463 103.28C70.9092 103.724 71.3369 103.724 89.8122 103.679L108.715 103.613L109.228 102.992L109.742 102.349L109.699 87.7986L109.635 73.2265L108.972 71.7848C107.838 69.2785 105.208 67.1492 102.771 66.7722L101.83 66.6391V61.3603C101.83 56.7247 101.787 55.9041 101.402 54.6842C100.589 51.9561 98.836 49.9821 96.27 48.8953L95.0939 48.3852L63.0187 48.363C45.3773 48.3408 30.5372 48.4073 30.0667 48.496ZM94.7304 53.2647C95.7354 53.7083 96.4197 54.3737 96.9329 55.4161C97.2964 56.1481 97.3392 56.7691 97.3392 61.4712V66.6835H95.2009H93.0625V62.9129C93.0625 58.8984 92.8914 58.0999 92.0147 57.5898C91.7367 57.4567 87.182 57.368 78.8425 57.368H66.0765L65.4564 58.0112L64.8363 58.6544V62.6689V66.6835H62.591H60.3458V63.046C60.3458 59.2089 60.2388 58.5878 59.469 57.8337C58.9772 57.368 58.8917 57.368 46.1257 57.368H33.2743L32.6327 58.0555L32.0126 58.7209L31.9485 62.7133L31.8629 66.6835H29.746H27.629V61.7152C27.629 58.61 27.7145 56.4808 27.8642 56.015C28.2491 54.8616 29.0189 53.9301 30.024 53.3978L30.9435 52.932H62.4413C90.3896 52.932 94.0248 52.9764 94.7304 53.2647ZM55.8552 64.2437V66.6835H46.1257H36.3962V64.2437V61.8039H46.1257H55.8552V64.2437ZM88.7858 64.2437V66.6835H78.9494H69.113V64.2437V61.8039H78.9494H88.7858V64.2437ZM102.407 71.4521C103.156 71.6739 103.733 72.051 104.246 72.6498C105.123 73.6701 105.465 74.7125 105.465 76.4869V77.7734H62.591H19.7171V76.0433C19.7171 73.5148 20.5511 72.2062 22.6253 71.4521C23.3309 71.186 29.5321 71.1416 62.3986 71.1194C96.4625 71.1194 101.466 71.1638 102.407 71.4521ZM105.465 85.3145V88.4196H62.591H19.7171V85.3145V82.2093H62.591H105.465V85.3145Z" fill="#2E2E2E"/>
<path d="M60.7091 99.5317C60.1959 99.8422 59.7041 100.907 59.7041 101.728C59.7041 102.77 60.7091 103.724 61.7997 103.724C62.7406 103.724 63.6814 103.103 63.9808 102.282C64.2588 101.55 63.8525 100.286 63.1896 99.7313C62.5909 99.2434 61.3506 99.1547 60.7091 99.5317Z" fill="#2E2E2E"/>
</svg>
