<svg width="100" height="104" viewBox="0 0 100 104" fill="none" xmlns="http://www.w3.org/2000/svg">
<path d="M48.5537 0.526742C48.0654 1.05346 48.0459 1.1345 48.0459 3.50475C48.0459 5.89526 48.0654 5.97629 48.5732 6.52328C49.0029 6.98922 49.2568 7.09052 49.999 7.09052C50.7412 7.09052 50.9951 6.98922 51.4248 6.52328C51.9326 5.97629 51.9521 5.89526 51.9521 3.50475C51.9521 1.1345 51.9326 1.05346 51.4443 0.526742C51.0342 0.101312 50.7412 1.90735e-05 49.999 1.90735e-05C49.2568 1.90735e-05 48.9639 0.101312 48.5537 0.526742Z" fill="#2E2E2E"/>
<path d="M38.0272 4.3759C37.3631 5.06469 37.1873 6.05736 37.5584 6.80693C37.7147 7.13107 38.4764 8.00218 39.2186 8.75175C40.4295 9.98752 40.6639 10.1293 41.367 10.1293C42.6951 10.1293 43.6522 8.91382 43.3982 7.49572C43.3397 7.2121 42.617 6.28021 41.7967 5.40909C40.3514 3.93021 40.2342 3.84918 39.4139 3.84918C38.7303 3.84918 38.4178 3.97073 38.0272 4.3759Z" fill="#2E2E2E"/>
<path d="M59.4718 4.21383C58.4952 4.86211 56.6983 6.969 56.5616 7.61727C56.2686 8.95434 57.2061 10.1293 58.5538 10.1293C59.3546 10.1293 59.5108 10.028 60.8585 8.69098C62.4991 7.02977 62.8507 6.25995 62.4405 5.22676C62.0889 4.33538 61.6983 4.03151 60.7999 3.93021C60.2725 3.84918 59.8819 3.95047 59.4718 4.21383Z" fill="#2E2E2E"/>
<path d="M46.9914 11.2435C44.3156 12.0336 41.5226 14.2621 40.1554 16.6931C39.3937 18.0302 39.1984 18.2125 38.9445 17.8073C38.8859 17.6858 38.3 17.3211 37.6554 17.0172C32.7531 14.6065 27.089 17.0983 25.3898 22.406C24.9992 23.6013 24.9797 24.047 25.0382 28.0176L25.0968 32.3327L25.8195 33.8521C26.3078 34.8853 26.9132 35.7361 27.6359 36.4452C28.2218 37.0327 28.7101 37.5797 28.7101 37.6607C28.7101 37.762 27.7531 38.0861 26.5617 38.39C25.3898 38.6939 23.8859 39.2004 23.2414 39.5245C20.9367 40.659 18.9054 43.3939 18.3586 46.1085C18.2218 46.7365 18.1632 48.418 18.2023 50.0184C18.3 54.1309 18.2023 54.0904 24.7648 54.0904H29.1007V58.3852C29.1007 62.1736 29.1593 62.7611 29.4523 63.1257C30.1164 63.9766 30.3898 64.0171 37.089 64.0171H43.5148L44.1007 63.5106C44.8625 62.8624 45.0382 62.052 44.6476 61.0999C44.2765 60.1882 43.4172 59.7628 41.8937 59.7628H40.8195V57.2507C40.8195 54.8197 40.8 54.7387 40.3117 54.2119C39.5695 53.4624 38.1632 53.4624 37.4211 54.2119C36.9328 54.7387 36.9132 54.8197 36.9132 57.2507V59.7628H35.0382H33.1632L33.2414 56.1568L33.3 52.5507L33.964 51.1529C34.7453 49.4917 36.0734 48.0533 37.4797 47.324C38.3586 46.8378 43.5539 45.3792 44.3156 45.3792C44.5304 45.3792 45.1945 46.7568 46.4445 49.7145C47.4601 52.1051 48.4562 54.2322 48.6711 54.4348C48.9445 54.6779 49.3742 54.7994 50.0382 54.7994C50.839 54.7994 51.0929 54.6982 51.425 54.293C51.6593 54.0094 52.6359 51.9025 53.5929 49.6335C54.55 47.3443 55.3703 45.44 55.4093 45.3995C55.5656 45.1969 61.1125 46.6555 62.2453 47.2025C63.8273 47.9521 65.1945 49.3702 66.0343 51.1529L66.6984 52.5507L66.757 56.1568L66.8351 59.7628H64.9601H63.0851V57.2507C63.0851 54.8197 63.0656 54.7387 62.5773 54.2119C61.8351 53.4624 60.4289 53.4624 59.6867 54.2119C59.1984 54.7387 59.1789 54.8197 59.1789 57.2507V59.7628H58.007C56.3859 59.7628 55.5265 60.168 55.1554 61.0999C54.7648 62.052 54.9406 62.8624 55.7023 63.5106L56.2882 64.0171H62.8117C69.6281 64.0171 69.882 63.9968 70.5461 63.1257C70.839 62.7611 70.8976 62.1736 70.8976 58.3852V54.0904H75.2531C81.8742 54.0904 81.8351 54.1107 81.8351 49.6538C81.8351 45.3387 81.2687 43.5559 79.1984 41.4085C77.7336 39.8689 76.5617 39.2409 73.6711 38.4508C72.4015 38.1266 71.3468 37.8025 71.3078 37.762C71.2687 37.7215 71.7765 37.0935 72.4406 36.3844C73.1828 35.5538 73.8859 34.5611 74.2765 33.69L74.9015 32.3124L74.9601 28.0784C74.9992 25.1409 74.9601 23.5405 74.7843 22.9125C74.2179 20.684 72.8312 18.7392 70.9953 17.5237C68.2023 15.6802 64.3742 15.6396 61.6593 17.4224C61.1515 17.7465 60.6828 18.0302 60.6437 18.0302C60.6047 18.0302 60.2922 17.5034 59.9601 16.8349C58.8078 14.5862 56.3664 12.4793 53.7882 11.5069C52.3234 10.9397 48.4953 10.7979 46.9914 11.2435ZM53.1632 15.8827C54.5109 16.5715 56.0929 18.2327 56.7375 19.6914C57.0109 20.2789 57.2257 20.8866 57.2257 21.0082C57.2257 21.15 56.5422 20.8461 55.7218 20.3194C54.6867 19.6914 53.9054 19.3672 53.3 19.2862C52.4406 19.2052 52.3625 19.2457 51.1515 20.3599C49.0617 22.3047 46.9914 23.0745 43.7101 23.0948C43.0851 23.0948 42.5773 23.034 42.5773 22.9327C42.5773 22.1021 43.0656 20.1978 43.4757 19.3672C44.3547 17.6047 45.5461 16.4905 47.4406 15.6599C48.3781 15.2547 48.7882 15.194 50.2922 15.2547C51.7179 15.3155 52.2648 15.4371 53.1632 15.8827ZM35.2531 20.603C36.2297 20.9271 37.8898 22.4263 37.8898 22.953C37.8898 23.7228 34.1593 24.7155 31.2101 24.7155C28.8273 24.7155 28.8273 24.7155 29.4914 23.2366C30.0578 22.0008 31.0343 21.0892 32.2648 20.6435C33.5539 20.1776 34.0617 20.1776 35.2531 20.603ZM68.3 20.8461C69.257 21.3526 70.214 22.3857 70.5851 23.3379C71.1515 24.7155 71.132 24.7155 68.7882 24.7155C65.8976 24.7155 62.1086 23.7228 62.1086 22.953C62.1086 22.8112 62.4992 22.2845 62.9679 21.778C64.4132 20.2789 66.5422 19.9142 68.3 20.8461ZM55.5851 25.2625L57.4797 26.3969L57.382 28.8077C57.2843 30.9551 57.2257 31.3198 56.6789 32.4543C55.9367 34.0344 54.6281 35.412 53.1632 36.1818C52.1476 36.7085 51.8547 36.7693 50.0968 36.7693C48.3586 36.7693 48.007 36.7085 46.9523 36.2021C44.1789 34.865 42.5773 31.9883 42.5773 28.3012V27.3491H43.7101C47.2062 27.3491 50.2531 26.478 52.3429 24.9181C52.9289 24.4724 53.4757 24.1077 53.5539 24.1077C53.632 24.1077 54.5304 24.6344 55.5851 25.2625ZM38.4757 29.3547C38.4757 30.712 38.3976 31.1172 37.9289 32.0288C36.3859 35.1081 32.7336 35.6956 30.4289 33.2241C29.4523 32.1706 29.1007 31.2793 29.1007 29.8206V28.9698H31.4054C33.6515 28.9698 36.8351 28.4633 37.6359 27.9771C38.3781 27.5314 38.4757 27.6935 38.4757 29.3547ZM63.4172 28.281C64.8429 28.7267 65.6437 28.828 68.1242 28.9293L71.1125 29.0103L70.9953 29.9624C70.8 31.5224 70.3312 32.5353 69.4328 33.4064C67.6945 35.0676 65.3703 35.2094 63.4562 33.7305C62.1867 32.7784 61.6398 31.5629 61.5617 29.4155C61.5226 28.5038 61.5422 27.7543 61.6007 27.7543C61.6593 27.7543 62.4797 27.9974 63.4172 28.281ZM34.7648 39.7068C34.7648 40.7197 35.6047 41.4693 37.3039 41.8947L38.7492 42.2594L37.3039 42.7456C35.6632 43.2926 33.3976 44.7715 32.3234 46.0072C31.464 46.9999 30.0773 49.1878 30.0773 49.5727C30.0773 49.7753 29.3156 49.8361 26.1711 49.8361H22.2648V48.5395C22.2648 46.3719 23.0656 44.6904 24.6086 43.637C25.0773 43.3128 26.4445 42.8469 28.3976 42.3607C30.0773 41.9353 31.6593 41.4288 31.9328 41.2465C32.2453 41.0439 32.5187 40.5779 32.6554 40.0107L32.8898 39.0991H33.8273C34.7453 39.0991 34.7648 39.1193 34.7648 39.7068ZM67.3625 40.0107C67.4992 40.5779 67.7531 41.0439 68.0656 41.2465C68.3195 41.4288 69.9015 41.915 71.5812 42.3404C74.8429 43.171 75.7609 43.6167 76.6593 44.8727C77.4211 45.8857 77.714 46.8986 77.7336 48.4585V49.8361H73.8664H69.9992L69.7648 49.1676C69.3742 48.0939 67.675 45.8654 66.4836 44.893C65.2531 43.9003 63.4367 42.9279 62.1086 42.543L61.2297 42.2797L62.6945 41.8947C64.3937 41.4491 65.2336 40.7197 65.2336 39.7068C65.2336 39.1193 65.2531 39.0991 66.1906 39.0991H67.1476L67.3625 40.0107ZM52.1476 41.7529C52.1476 42.3404 50.2336 47.2025 49.9992 47.2025C49.7843 47.2025 47.8312 42.2391 47.8507 41.6922V41.1452H49.9992H52.1476V41.7529Z" fill="#2E2E2E"/>
<path d="M4.60871 31.9275C2.63605 32.5555 1.09309 34.0546 0.389961 36.0197C-0.000664011 37.0934 -0.0201953 37.4378 0.0383985 55.3869L0.0969922 73.6399L0.643867 75.4226C0.936836 76.395 1.48371 77.8536 1.87434 78.664C2.69465 80.3657 6.69855 86.3622 7.40168 86.9295C8.14387 87.5372 9.27668 87.4359 9.99934 86.7066C10.5267 86.1394 10.5853 85.9773 10.5071 85.1265C10.429 84.3161 10.1556 83.7894 8.74934 81.7433C6.34699 78.2385 5.74152 77.2054 5.11652 75.5239C3.98371 72.5459 4.00324 72.87 4.00324 54.5968C4.00324 38.7141 4.02277 37.7417 4.3548 37.215C4.80402 36.4856 5.80012 35.8576 6.50324 35.8576C7.24543 35.8576 8.08527 36.3438 8.57355 37.0326C8.94465 37.5796 8.96418 37.9645 9.0423 51.5783C9.1009 63.936 9.15949 65.6782 9.45246 66.8532C9.92121 68.6765 10.9759 70.8644 12.0696 72.2825C13.7298 74.4502 22.4993 83.8907 23.0267 84.0933C24.0814 84.5187 25.3314 83.8502 25.6829 82.6954C25.9954 81.6015 25.6243 81.095 20.5657 75.5036C17.8118 72.4649 15.4486 69.7097 15.3118 69.345C14.9407 68.4334 14.9798 67.5825 15.429 66.6304C15.9564 65.5769 16.8353 65.03 18.0071 65.03C18.847 65.03 19.1986 65.2123 22.1868 67.2787C27.0306 70.6011 28.6321 71.8976 30.4681 73.883C32.265 75.8075 33.5345 77.651 34.6478 79.9605C36.1321 83.0601 36.4642 84.2959 38.5736 94.7695C39.3939 98.801 40.1361 102.326 40.2337 102.589C40.4876 103.319 41.1907 103.724 42.1478 103.724C43.0853 103.724 43.8275 103.136 44.0618 102.225C44.179 101.698 41.4251 87.517 40.5071 83.9717C39.5306 80.1631 37.8314 76.4761 35.7806 73.6399C34.5111 71.8774 31.972 69.2235 30.2728 67.8864C27.6165 65.7593 21.015 61.2821 20.1946 61.0188C19.1204 60.6946 16.8743 60.7149 15.7806 61.0593C15.2923 61.2011 14.4915 61.6265 14.0032 61.9709L13.1048 62.6192L13.0462 49.4916L12.9876 36.3641L12.5384 35.493C11.972 34.399 10.8978 33.1632 10.0384 32.596C8.55402 31.6439 6.34699 31.3805 4.60871 31.9275Z" fill="#2E2E2E"/>
<path d="M91.5622 31.9072C89.863 32.3934 88.3982 33.6697 87.4607 35.493L87.0114 36.3641L86.9528 49.4916L86.8943 62.6192L85.9958 61.9709C85.5075 61.6265 84.7068 61.2011 84.2185 61.0593C83.1247 60.7149 80.8786 60.6946 79.8044 61.0188C78.9841 61.2821 72.3825 65.7593 69.7263 67.8864C64.7068 71.8571 61.1911 77.4079 59.4919 83.9717C58.5739 87.517 55.82 101.698 55.9372 102.225C56.1716 103.136 56.9138 103.724 57.8513 103.724C58.8083 103.724 59.5114 103.319 59.7653 102.589C59.863 102.326 60.6052 98.801 61.4255 94.7695C63.5349 84.2959 63.8669 83.0601 65.3513 79.9605C66.4646 77.651 67.7341 75.8075 69.531 73.883C71.3669 71.8976 72.9685 70.6011 77.8122 67.2787C80.8005 65.2123 81.1521 65.03 81.9919 65.03C83.1638 65.03 84.0427 65.5769 84.57 66.6304C85.0193 67.5825 85.0583 68.4334 84.6872 69.345C84.5505 69.7097 82.1872 72.4649 79.4333 75.5036C74.3747 81.095 74.0036 81.6015 74.3161 82.6954C74.6677 83.8502 75.9177 84.5187 76.9724 84.0933C77.4997 83.8907 86.2693 74.4502 87.9294 72.2825C89.0232 70.8644 90.0778 68.6765 90.5466 66.8532C90.8396 65.6782 90.8982 63.936 90.9568 51.5783C91.0349 37.9645 91.0544 37.5796 91.4255 37.0326C91.9138 36.3438 92.7536 35.8576 93.4958 35.8576C94.1989 35.8576 95.195 36.4856 95.6443 37.215C95.9763 37.7417 95.9958 38.7141 95.9958 54.6981C95.9958 73.2752 96.0153 72.8093 94.7849 75.848C94.1013 77.5498 93.6521 78.2588 85.3708 90.3532L78.0857 100.989L78.1833 101.901C78.32 103.096 78.9841 103.724 80.156 103.724C80.6052 103.724 81.1325 103.602 81.3083 103.46C81.9333 102.995 97.07 80.7303 97.9294 78.9881C98.4177 78.036 99.0622 76.4558 99.3552 75.4429L99.9021 73.6399L99.9607 55.3869C100.019 37.4378 99.9997 37.0934 99.6091 36.0197C98.4177 32.7176 94.9411 30.9348 91.5622 31.9072Z" fill="#2E2E2E"/>
<path d="M49.2178 59.9856C48.4561 60.2894 48.0459 60.9782 48.0459 61.9506C48.0459 62.6597 48.1631 62.9433 48.6123 63.4295C49.8623 64.7261 51.9521 63.8347 51.9521 61.9912C51.9521 60.9782 51.5225 60.2692 50.7412 59.9856C50.0186 59.7222 49.8623 59.7222 49.2178 59.9856Z" fill="#2E2E2E"/>
<path d="M11.874 89.6644C11.1709 90.0493 10.9365 90.5355 10.9365 91.5687C10.9365 92.2372 11.0537 92.5411 11.5029 93.007C12.7725 94.3036 14.8428 93.4122 14.8428 91.5687C14.8428 90.5152 14.5889 90.029 13.8662 89.6441C13.1631 89.2592 12.5576 89.2592 11.874 89.6644Z" fill="#2E2E2E"/>
<path d="M16.2497 95.4381C15.156 95.7622 14.531 97.2613 15.0583 98.3148C15.5661 99.3075 18.5739 103.481 18.8669 103.602C19.0232 103.663 19.5114 103.724 19.9216 103.724C20.9958 103.724 21.6989 103.055 21.8161 101.901C21.9138 101.029 21.8552 100.888 20.2146 98.4971C18.6911 96.2484 17.656 95.1747 17.0896 95.2355C16.9919 95.2355 16.6013 95.3368 16.2497 95.4381Z" fill="#2E2E2E"/>
</svg>
