<svg width="22" height="16" viewBox="0 0 22 16" xmlns="http://www.w3.org/2000/svg">
    <path
        d="M20.998 9C21.5503 9 21.998 8.55228 21.998 8C21.998 7.44772 21.5503 7 20.998 7L20.998 9ZM0.507876 7.29289C0.117352 7.68342 0.117352 8.31658 0.507876 8.7071L6.87184 15.0711C7.26236 15.4616 7.89553 15.4616 8.28605 15.0711C8.67657 14.6805 8.67657 14.0474 8.28605 13.6569L2.6292 8L8.28605 2.34314C8.67658 1.95262 8.67658 1.31946 8.28605 0.928931C7.89553 0.538407 7.26236 0.538407 6.87184 0.928931L0.507876 7.29289ZM20.998 7L1.21498 7L1.21498 9L20.998 9L20.998 7Z"
        />
</svg>