<svg width="28" height="35" viewBox="0 0 28 35" xmlns="http://www.w3.org/2000/svg">
    <path
        d="M12.2004 0.0156441C8.15852 0.532104 5.83821 2.80751 5.04481 7.05892C4.97745 7.44814 4.91008 8.32387 4.88763 9.1996L4.84272 10.6891L4.59572 11.1008C4.46099 11.3253 4.31129 11.6996 4.26638 11.9241C4.0119 13.1441 4.88763 14.4091 6.12264 14.6112L6.42203 14.6561L6.46694 15.0977C6.63909 16.5722 7.31273 18.0168 8.37559 19.147L8.83216 19.641V20.5766V21.5122L8.5178 21.5571C8.33816 21.5871 7.91152 21.7293 7.55973 21.8715C7.20794 22.0212 6.63909 22.2458 6.2873 22.3805C4.88763 22.9194 3.85472 23.5556 2.89665 24.4463C1.48949 25.7637 0.531427 27.5151 0.142213 29.4836C0.0224547 30.1049 0 30.554 0 32.4551C0 34.6033 0.00748488 34.7081 0.149698 34.8503C0.299395 35 0.396699 35 13.6225 35C26.8483 35 26.9456 35 27.0953 34.8503C27.2375 34.7081 27.245 34.6033 27.245 32.5C27.245 30.0824 27.1851 29.5285 26.7959 28.316C25.9202 25.5765 23.8918 23.5107 20.9726 22.388C20.6134 22.2532 20.037 22.0212 19.6852 21.8715C19.3335 21.7293 18.9068 21.5871 18.7347 21.5571L18.4128 21.5122V20.5766V19.641L18.8694 19.147C19.9322 18.0168 20.6059 16.5722 20.778 15.0977L20.823 14.6561L21.1223 14.6112C21.287 14.5812 21.5789 14.4839 21.766 14.3866C22.8963 13.8028 23.3379 12.478 22.7765 11.3403C22.4547 10.6816 22.3798 10.3523 22.3274 9.16218C22.26 7.5679 22.4846 6.70713 23.1732 5.96613C23.7346 5.35985 23.7121 5.15028 23.0085 4.22964C22.2376 3.22666 20.8155 2.3659 19.3335 2.0216L18.7945 1.89435L18.9442 1.70723C19.1239 1.46771 19.1239 1.23568 18.9368 0.996166C18.817 0.838982 18.6149 0.764133 17.829 0.577011C16.1374 0.165344 15.1868 0.0381012 13.7722 0.00815964C13.0536 -0.00680923 12.3426 0.000675201 12.2004 0.0156441ZM15.082 1.20574C15.8305 1.30305 16.5865 1.43777 17.2003 1.57999L17.3724 1.6249L17.1853 1.84944C17.0581 1.99914 16.9907 2.17129 16.9907 2.32848C16.9907 2.70272 17.2377 2.8599 17.9038 2.9123C19.4757 3.05451 21.07 3.78054 21.9607 4.76855L22.29 5.13531L21.9607 5.62182C21.781 5.89128 21.5415 6.39277 21.4292 6.72959C21.2346 7.30592 21.2271 7.4182 21.2196 8.72805V10.1202L21.0176 10.0903C20.8155 10.0604 20.808 10.0379 20.808 9.61127C20.808 8.60829 20.2167 8.24154 19.0865 8.54093C18.1209 8.79542 17.0655 8.75799 15.9054 8.42117C15.621 8.33135 14.7153 7.99453 13.8919 7.67268C12.1555 6.9691 11.4369 6.78198 10.5537 6.78198C9.78274 6.78947 9.38605 6.8718 8.78726 7.16371C7.64955 7.72508 6.69897 8.83284 6.48191 9.85827C6.45197 10.0155 6.38461 10.0678 6.20497 10.0903L5.96545 10.1277L6.01036 8.92266C6.06276 7.56041 6.21994 6.65474 6.62412 5.53201C7.8217 2.17129 10.8082 0.644375 15.082 1.20574ZM11.5417 8.01699C11.7812 8.08435 12.7018 8.42117 13.5851 8.77296C15.8081 9.65618 16.3769 9.79839 17.7018 9.79839C18.4128 9.80588 18.8993 9.76845 19.2212 9.68612L19.6927 9.56636L19.6703 12.463C19.6403 15.2474 19.6329 15.3746 19.4682 15.8761C18.7796 17.9644 17.2377 19.4539 15.1569 20.0452C14.3111 20.2847 12.9414 20.2847 12.0881 20.0452C10.0148 19.4539 8.45792 17.9494 7.7768 15.8761C7.61213 15.3821 7.60464 15.2249 7.5747 12.7849C7.55225 10.5469 7.56722 10.1726 7.67201 9.85078C7.89655 9.18463 8.84713 8.3089 9.6555 8.03196C10.0896 7.87477 10.9728 7.87477 11.5417 8.01699ZM6.437 12.3582C6.437 13.234 6.41455 13.5184 6.34718 13.5184C6.29479 13.5184 6.11515 13.4435 5.95048 13.3462C5.56875 13.1367 5.27684 12.5903 5.34421 12.216C5.41157 11.8642 5.67354 11.5049 5.98791 11.3403C6.44449 11.0933 6.437 11.0858 6.437 12.3582ZM21.4217 11.4301C21.9008 11.7744 22.0205 12.4705 21.6912 12.9795C21.5116 13.2414 21.1074 13.5184 20.8903 13.5184C20.8304 13.5184 20.808 13.1516 20.808 12.3507V11.1831L21.0101 11.2355C21.1223 11.2579 21.302 11.3478 21.4217 11.4301ZM11.7138 21.1679C12.2228 21.3101 12.5072 21.3326 13.6225 21.3401C15.112 21.3401 15.6584 21.2278 16.7212 20.7114L17.2976 20.4344L17.2751 21.2952L17.2527 22.1559L15.4413 23.1963L13.6225 24.2442L11.8111 23.1963L9.99232 22.1559L9.96987 21.2952L9.94741 20.4344L10.5387 20.7188C10.8606 20.876 11.392 21.0781 11.7138 21.1679ZM10.3366 28.3759C11.1151 31.295 11.7513 33.7351 11.7513 33.7874C11.7513 33.8623 11.6016 33.8773 11.145 33.8623L10.5387 33.8398L9.52826 30.9956C8.89204 29.2217 8.54025 28.1214 8.57768 28.069C8.6151 28.0166 8.80223 27.7696 9.00432 27.5151C9.56568 26.7741 9.49083 26.5121 8.57019 26.093L7.95643 25.8011L7.78428 24.5286C7.68698 23.8251 7.6271 23.2338 7.64955 23.2113C7.70195 23.1514 8.47289 23.0392 8.71241 23.0466L8.92947 23.0616L10.3366 28.3759ZM19.3709 23.1439C19.6628 23.1963 19.6628 23.1589 19.4457 24.6634L19.2811 25.816L18.7347 26.0705C17.7541 26.5196 17.6718 26.7666 18.2481 27.5151C18.4428 27.7696 18.6299 28.0166 18.6673 28.069C18.7122 28.1289 18.3754 29.1693 17.7167 31.0031L16.7063 33.8398L16.1 33.8623C15.7257 33.8773 15.4937 33.8548 15.4937 33.8099C15.4937 33.7351 18.2257 23.3385 18.308 23.1065C18.338 23.0092 18.6374 23.0167 19.3709 23.1439ZM12.0058 24.6334C12.8441 25.1125 13.5027 25.4418 13.6225 25.4418C13.7422 25.4418 14.4608 25.075 15.4114 24.5361C16.4368 23.9523 16.9832 23.6754 16.9607 23.7577C16.9308 23.855 14.6629 32.4327 14.3635 33.5928L14.2886 33.8773H13.6225C13.2482 33.8773 12.9489 33.8623 12.9489 33.8548C12.9489 33.8174 10.3441 23.9373 10.2767 23.7352C10.2393 23.6005 10.2468 23.6005 10.4115 23.7128C10.5088 23.7727 11.2273 24.1918 12.0058 24.6334ZM6.72143 25.0975C6.81873 25.7861 6.93849 26.4223 6.99088 26.5047C7.04328 26.587 7.26782 26.7367 7.4774 26.834C7.68698 26.9388 7.85913 27.0436 7.85913 27.066C7.85913 27.096 7.73937 27.2756 7.59716 27.4627C7.43249 27.6723 7.33519 27.8894 7.33519 28.0241C7.33519 28.2037 7.88158 29.7905 9.25132 33.5928L9.34862 33.8773H5.23942H1.12273V32.1258C1.12273 30.2396 1.1901 29.6408 1.5344 28.6304C1.93859 27.4403 2.52241 26.5047 3.44305 25.5466C4.32626 24.6259 4.37117 24.611 4.1092 25.367C3.8622 26.093 3.70502 27.2756 3.77987 27.9717L3.82478 28.4657L3.59274 28.563C2.92659 28.8399 2.31283 29.798 2.26044 30.6588C2.23798 30.9881 2.18559 31.1977 2.09577 31.295C1.70655 31.7366 1.60925 32.3953 1.87122 32.8967C2.35774 33.8548 3.7125 33.8773 4.24393 32.9417C4.46099 32.5599 4.46848 32.0285 4.26638 31.6318C4.12417 31.3474 3.66011 30.9582 3.4655 30.9582C3.23347 30.9582 3.44305 30.1872 3.7649 29.8504C4.1616 29.4238 4.98493 29.2516 5.449 29.4911C5.82324 29.6857 6.2873 30.3145 6.2873 30.6213C6.2873 30.6887 6.19 30.8234 6.07024 30.9282C5.50139 31.4073 5.45648 32.3054 5.97294 32.8518C6.27233 33.1662 6.5343 33.2785 6.97591 33.2785C7.76931 33.2785 8.30822 32.7321 8.30822 31.9312C8.30822 31.4447 8.15852 31.1603 7.71692 30.801C7.52231 30.6513 7.41004 30.4941 7.41004 30.3968C7.41004 30.0824 6.89358 29.1768 6.5343 28.8699C6.17503 28.548 5.52385 28.2636 5.16457 28.2636C4.97745 28.2636 4.94002 28.2337 4.89511 27.9941C4.83524 27.6573 4.91757 26.6544 5.05978 26.108C5.23942 25.4418 5.59121 24.7831 6.0403 24.2966C6.26485 24.0496 6.47443 23.8475 6.50436 23.8475C6.5343 23.8475 6.63161 24.4089 6.72143 25.0975ZM21.1598 24.2367C21.7735 24.8954 22.1777 25.7487 22.2975 26.6544L22.3499 27.0585L22.0729 27.1783C21.7211 27.343 21.2945 27.7696 21.1448 28.1289C21.0849 28.2861 21.0325 28.6229 21.0325 28.8774C21.04 30.7336 23.5624 31.3399 24.4157 29.6932C24.6702 29.2067 24.7001 28.548 24.4831 28.0765C24.3633 27.7995 23.9367 27.3579 23.6223 27.1783C23.5325 27.1259 23.4726 26.9388 23.4202 26.5421C23.3753 26.2352 23.2481 25.7038 23.1358 25.367C22.8738 24.611 22.9187 24.6259 23.8019 25.5466C24.7226 26.4972 25.3064 27.4552 25.7181 28.6603C26.0474 29.6408 26.1222 30.2471 26.1222 32.1258V33.8773H22.0056H17.8964L17.9937 33.5928C19.3784 29.7456 19.9098 28.2037 19.9098 28.0091C19.9098 27.8594 19.82 27.6648 19.6478 27.4478C19.5056 27.2681 19.3859 27.096 19.3859 27.066C19.3859 27.0436 19.558 26.9388 19.7676 26.834C19.9772 26.7367 20.2017 26.587 20.2541 26.5047C20.3065 26.4223 20.4263 25.7861 20.5236 25.0975C20.6134 24.4089 20.7107 23.8475 20.7406 23.8475C20.7631 23.8475 20.9502 24.0272 21.1598 24.2367ZM23.0609 28.1888C23.2331 28.1888 23.5025 28.5929 23.5025 28.8399C23.5025 29.1842 23.1582 29.536 22.8289 29.536C22.3424 29.536 21.9981 28.9223 22.2376 28.4807C22.3274 28.3085 22.7391 28.0989 22.8888 28.1513C22.9487 28.1738 23.0235 28.1888 23.0609 28.1888Z"
    />
    <path
        d="M10.3444 10.9436C10.1872 11.0484 10.1797 11.1083 10.1797 12.0888C10.1797 13.2565 10.2246 13.3687 10.7186 13.3687C11.1752 13.3687 11.2276 13.234 11.2276 12.0739C11.2276 11.1083 11.2201 11.0484 11.0629 10.9436C10.9731 10.8763 10.8084 10.8239 10.7036 10.8239C10.5988 10.8239 10.4342 10.8763 10.3444 10.9436Z"
    />
    <path
        d="M16.1822 10.9436C16.0251 11.0484 16.0176 11.1083 16.0176 12.0888C16.0176 13.2565 16.0625 13.3687 16.5565 13.3687C17.0131 13.3687 17.0655 13.234 17.0655 12.0739C17.0655 11.1083 17.058 11.0484 16.9008 10.9436C16.811 10.8763 16.6463 10.8239 16.5415 10.8239C16.4367 10.8239 16.2721 10.8763 16.1822 10.9436Z"
    />
    <path
        d="M11.4221 16.3701C11.2799 16.4824 11.2275 16.5871 11.2275 16.7967C11.2275 17.0213 11.2874 17.1261 11.6467 17.4704C11.8862 17.7024 12.2679 17.9644 12.5449 18.0991C12.979 18.3012 13.0913 18.3236 13.5329 18.2937C14.2514 18.2413 14.8951 17.8671 15.3517 17.2383C15.6137 16.8716 15.6287 16.6395 15.3817 16.4C15.0972 16.1081 14.8652 16.1605 14.3862 16.6171C14.1541 16.8341 13.8847 17.0512 13.7949 17.1036C13.4056 17.3057 12.9865 17.1485 12.3727 16.5797C11.9386 16.168 11.7365 16.1231 11.4221 16.3701Z"
    />
</svg>