<svg width="111" height="104" viewBox="0 0 111 104" fill="none" xmlns="http://www.w3.org/2000/svg">
<path d="M25.4487 0.12104C18.7837 1.26112 13.5919 5.79721 11.3702 12.3951C10.7622 14.2387 10.7388 14.6268 10.6452 19.4055L10.5517 24.451L11.1831 25.1301C11.5339 25.5183 12.0484 25.8821 12.3524 25.9549C12.7968 26.0762 12.9137 26.3187 13.0306 27.4831C13.3814 30.5152 14.5741 33.5231 16.2579 35.6335C17.0531 36.628 17.1466 36.8706 16.8894 37.1132C16.7023 37.283 14.7144 38.5929 12.4694 40.024C10.2243 41.4552 7.81549 43.0804 7.11391 43.6383C4.58819 45.6517 2.38988 49.0234 1.22056 52.662L0.659294 54.36L0.589136 70.2969C0.542363 81.6008 0.589136 86.4037 0.776226 86.7433C0.916543 87.0344 1.38427 87.471 1.78184 87.7136C2.50681 88.1744 3.06808 88.1987 15.2289 88.1987H27.9043V94.8694C27.9043 100.376 27.9745 101.686 28.2551 102.268C29.0268 103.796 27.4834 103.723 55.5001 103.723C83.5169 103.723 81.9734 103.796 82.7451 102.268C83.0257 101.686 83.0959 100.376 83.0959 94.8694V88.1987H95.7946C107.932 88.1987 108.493 88.1744 109.218 87.7136C109.616 87.471 110.084 87.0344 110.224 86.7433C110.411 86.4037 110.458 81.6008 110.411 70.2969L110.341 54.36L109.78 52.662C108.61 49.0234 106.412 45.6517 103.886 43.6383C103.185 43.0804 100.776 41.4552 98.5308 40.024C96.2858 38.5929 94.2979 37.283 94.1108 37.1132C93.8536 36.8706 93.9471 36.628 94.7423 35.6335C96.4261 33.5231 97.6188 30.5152 97.9696 27.4831C98.0865 26.3187 98.2034 26.0762 98.6478 25.9549C98.9518 25.8821 99.4663 25.5183 99.8171 25.1301L100.449 24.451L100.355 19.4055C100.261 14.6268 100.238 14.2387 99.63 12.3951C97.6188 6.42789 93.1988 2.13438 87.282 0.484901C85.224 -0.0972672 80.7339 -0.0972748 78.6525 0.46064C77.8106 0.678955 76.1268 1.38241 74.9107 2.01309C73.0398 2.95912 72.3616 3.49277 70.5609 5.33632C68.7835 7.20412 68.269 7.90758 67.3569 9.84815C66.1175 12.4437 65.6497 14.1659 65.4159 16.7614L65.2522 18.5565L64.3167 17.9258C61.5338 16.1065 56.9501 15.1362 53.3953 15.6213C51.0801 15.9609 48.2036 16.9312 46.6835 17.9258L45.748 18.5565L45.5843 16.7614C45.3505 14.1659 44.8827 12.4437 43.6433 9.84815C42.7312 7.90758 42.2167 7.20412 40.4393 5.33632C38.6386 3.49277 37.9604 2.95912 36.0895 2.01309C34.8734 1.38241 33.2364 0.703209 32.4646 0.509155C30.7808 0.0482712 27.0624 -0.14579 25.4487 0.12104ZM32.3009 6.16106C34.1017 6.86452 35.6685 8.00461 37.0717 9.58132C39.2934 12.0555 40.1119 14.1902 40.416 18.2654L40.5797 20.5213H40.0184C39.0362 20.5213 36.7209 19.7936 35.6685 19.1629C34.3589 18.3624 33.3767 16.9312 33.1662 15.5001C32.9324 13.8991 32.0437 13.0016 30.6405 13.0016C29.705 13.0016 29.3776 13.1714 27.6704 14.5783C24.5834 17.1253 21.894 18.605 18.2224 19.7693C15.7201 20.5698 15.7434 20.5698 15.7434 18.5079C15.7668 12.6377 19.1578 7.76203 24.5133 5.967C26.7584 5.21503 30.0792 5.2878 32.3009 6.16106ZM86.5103 5.967C90.6964 7.37392 93.9237 10.9397 94.906 15.209C95.0931 16.058 95.2568 17.6104 95.2568 18.6777V20.5941L94.2278 20.4485C91.2577 20.0119 88.428 17.9743 88.1239 15.9852C87.7732 13.8263 87.0248 13.0016 85.3644 13.0016C84.5458 13.0016 84.3821 13.0986 81.529 15.3545C78.863 17.4892 74.7938 19.454 71.4495 20.2545L70.4205 20.4728L70.5842 18.1441C70.6778 16.8342 70.9584 15.1362 71.1923 14.3115C72.2447 10.7457 75.3784 7.39818 78.8864 6.08829C80.9911 5.28781 84.3588 5.23929 86.5103 5.967ZM30.7808 21.8069C32.3711 23.4807 34.3589 24.6693 36.4403 25.2514C37.1886 25.4455 37.8435 25.6638 37.9136 25.7366C37.9838 25.8093 37.9136 26.5856 37.7499 27.4831C36.7443 33.1107 32.0203 36.7008 26.6181 35.9973C22.4553 35.4394 18.8772 31.6068 18.3393 27.192C18.2224 26.246 18.1522 25.494 18.1756 25.494C18.1756 25.4697 19.0409 25.2272 20.0699 24.9118C22.2448 24.2811 26.0802 22.4376 27.9277 21.152C28.6059 20.6668 29.2139 20.2787 29.2373 20.2787C29.2841 20.2787 29.9623 20.9579 30.7808 21.8069ZM85.3644 21.5401C87.1183 23.4807 89.5739 24.8876 92.2399 25.4697C92.8246 25.591 92.8246 25.6153 92.6375 27.2405C92.1464 31.6068 88.5215 35.4394 84.3821 35.9973C78.6993 36.7493 73.8116 32.7711 73.1333 26.7796L72.993 25.494L74.5131 25.0574C76.7816 24.4509 79.8218 23.044 82.1137 21.5886C83.2362 20.8851 84.1717 20.303 84.1951 20.303C84.2184 20.2787 84.7563 20.8366 85.3644 21.5401ZM58.7976 21.3945C64.27 23.0683 67.8714 28.2351 67.8948 34.3964V36.0459H66.6553C63.4748 36.0459 58.8677 35.0756 56.342 33.887C54.3776 32.9652 53.4655 32.0919 53.1381 30.8791C52.9978 30.3212 52.6236 29.5692 52.2728 29.1811C51.7817 28.6474 51.4777 28.5261 50.5188 28.5261C48.9987 28.5261 48.1334 29.3751 47.8996 31.0974C47.806 31.7523 47.5722 32.5771 47.4084 32.9167C47.0109 33.7657 45.6311 35.0028 44.5787 35.4394C43.1989 36.0459 43.1054 35.9731 43.1054 34.2751C43.1288 26.8281 48.4842 21.0307 55.4066 21.0064C56.6694 21.0064 58.0258 21.152 58.7976 21.3945ZM53.2784 38.3745C55.3598 39.5874 59.1717 40.6062 64.2466 41.2611L65.3925 41.4309L65.2288 42.7893C64.9014 45.9428 62.5394 49.2417 59.5225 50.7699C58.3065 51.4006 57.979 51.4491 55.5001 51.4491C53.0212 51.4491 52.6938 51.4006 51.4777 50.7699C48.3439 49.169 46.052 45.8943 45.7714 42.5953L45.6311 40.9943L47.3383 40.1211C48.3205 39.6116 49.5366 38.7384 50.0979 38.132C51.1269 37.0404 51.1503 37.0161 51.7349 37.4285C52.0857 37.6468 52.7639 38.0835 53.2784 38.3745ZM38.5217 40.6305C38.7789 40.9215 39.3168 41.2611 39.7378 41.4309C40.4861 41.6978 40.5329 41.7948 40.5329 42.8379C40.5329 45.2878 41.9127 48.9264 43.69 51.1823L44.6956 52.4922L41.1643 54.7481C35.9024 58.0713 34.9436 58.7748 33.4702 60.2545L32.1606 61.5644L34.9903 49.7511C37.4693 39.5146 37.8668 38.0835 37.9604 39.0295C38.0306 39.6359 38.2878 40.3636 38.5217 40.6305ZM76.0566 49.9695L78.8396 61.5886L77.413 60.1089C76.4542 59.1386 74.3494 57.6105 71.1455 55.5243L66.3046 52.3952L67.3803 50.964C69.1577 48.514 70.4673 45.0452 70.4673 42.7166C70.4673 41.7948 70.5375 41.6978 71.2858 41.4067C72.385 40.9943 73.0398 40.0725 73.0632 38.8597C73.0632 38.326 73.11 37.9622 73.1567 38.1077C73.2269 38.229 74.5131 43.5656 76.0566 49.9695ZM28.0212 41.5037C28.793 41.5037 29.9155 41.4309 30.5002 41.3339L31.5759 41.1641L29.8454 48.4655C28.9099 52.4922 28.0914 55.8154 28.068 55.8397C28.0446 55.8882 27.2027 52.5892 26.2439 48.5383L24.4665 41.1641L25.5423 41.3339C26.1269 41.4309 27.2495 41.5037 28.0212 41.5037ZM82.862 41.4795C84.0781 41.5037 85.3878 41.4067 85.7385 41.3097C86.5337 41.0913 86.6506 40.4121 84.5225 49.3873L82.9556 56.058L81.2484 49.0234C80.3363 45.1423 79.5178 41.7948 79.4476 41.5522C79.3307 41.1884 79.4009 41.1399 79.9855 41.3097C80.3363 41.4067 81.646 41.4795 82.862 41.4795ZM22.5255 55.6214L25.5657 68.3078V75.585V82.8621H15.6265H5.68734V69.9331C5.68734 55.6456 5.7575 54.9422 7.13729 52.0556C8.35338 49.5571 10.1307 47.9076 14.9249 44.8755C18.3861 42.6438 19.1578 42.2557 19.2982 42.571C19.3917 42.7893 20.8416 48.6596 22.5255 55.6214ZM96.7067 45.1908C99.5832 47.0586 100.94 48.0774 101.945 49.2175C103.465 50.9155 104.658 53.3654 105.056 55.5486C105.219 56.4704 105.313 61.6129 105.313 69.9331V82.8621H95.3737H85.4345V75.585V68.3321L88.4747 55.5243C90.1586 48.4898 91.5617 42.571 91.6319 42.4012C91.7722 42.0131 91.7254 41.9889 96.7067 45.1908ZM54.7985 56.8342C56.2719 56.907 57.9557 56.8342 58.5403 56.6887C59.1016 56.5674 59.6161 56.4704 59.6395 56.5189C59.6862 56.5674 59.429 57.8045 59.0782 59.3084L58.4468 62.001H55.5001H52.5534L52.0155 59.6966C51.7115 58.4352 51.4309 57.1496 51.3373 56.8585C51.2438 56.4218 51.2906 56.3733 51.6648 56.5431C51.8986 56.6402 53.3252 56.7857 54.7985 56.8342ZM49.5834 72.092L52.9042 85.8943L52.9276 92.1284V98.3867H42.9651H33.0259L33.0961 84.8755C33.1896 72.6984 33.2364 71.1944 33.6105 70.0058C34.5928 66.8767 36.3467 64.4267 38.8958 62.6559C39.5974 62.1708 40.2523 61.7584 40.3458 61.7584C40.4627 61.7584 40.5329 64.8633 40.5329 68.6717V75.6092L39.6676 76.3855C37.4693 78.3746 37.3991 82.0616 39.5039 84.1235C41.7256 86.2824 45.4674 85.9185 47.198 83.3715C48.6011 81.3097 48.1568 77.6468 46.3561 76.2642L45.6779 75.7305V66.9009C45.6779 60.1332 45.748 58.0956 45.9585 58.1684C46.1222 58.2411 47.7125 64.3297 49.5834 72.092ZM65.3223 65.4698V72.7954L64.27 73.3776C62.9603 74.081 61.6975 75.5122 61.0193 77.0162C60.5749 78.035 60.5282 78.6414 60.458 83.323C60.3644 88.7809 60.4814 89.5814 61.4402 90.2606C62.0015 90.6729 63.7321 90.7457 64.4103 90.3818C65.3925 89.8239 65.5562 88.9507 65.5562 84.3176C65.5562 79.4419 65.6965 78.8112 66.9828 78.132C68.3625 77.38 70.0464 78.3988 70.327 80.1453C70.3972 80.6305 70.4673 82.8864 70.4673 85.118V89.2175L71.1455 89.921C71.7302 90.5031 72.0342 90.6244 72.9696 90.6244C73.9519 90.6244 74.2325 90.5031 74.8172 89.8724L75.4954 89.1447V83.7596C75.4954 78.4473 75.4954 78.3503 74.8639 76.9919C74.1623 75.4152 72.7592 73.9112 71.4261 73.2806L70.4673 72.8439V67.289C70.4673 64.2569 70.5375 61.7584 70.6544 61.7584C70.748 61.7584 71.4028 62.1708 72.1043 62.6559C74.6535 64.4267 76.4074 66.8767 77.3896 70.0058C77.7638 71.1944 77.8106 72.6984 77.9041 84.8755L77.9743 98.3867H68.0351H58.0726V92.2011V86.0156L61.3467 72.3588C65.0417 57.0525 64.7611 58.1199 65.0885 58.1199C65.2522 58.1199 65.3223 60.5698 65.3223 65.4698ZM57.0904 67.6286C57.0202 67.7984 56.6694 69.2296 56.2952 70.7821C55.9444 72.3588 55.5703 73.6444 55.5001 73.6444C55.4299 73.6444 55.0558 72.3588 54.705 70.7821C54.3308 69.2296 53.98 67.7984 53.9098 67.6286C53.8397 67.4103 54.2372 67.3376 55.5001 67.3376C56.763 67.3376 57.1605 67.4103 57.0904 67.6286Z" fill="#2E2E2E"/>
</svg>
