<svg width="29" height="35" viewBox="0 0 29 35" xmlns="http://www.w3.org/2000/svg">
    <path
        d="M1.44118 0.187164C0.907754 0.4492 0.477273 0.898396 0.224599 1.45053L0 1.91845V17.5V33.0816L0.224599 33.5495C0.477273 34.1016 0.917112 34.5602 1.45053 34.8128C1.83422 35 2.04011 35 14.0187 35C24.266 35 26.2594 34.9813 26.5214 34.869C27.008 34.6631 27.6163 34.0642 27.8503 33.5495L28.0749 33.0816V17.5V1.91845L27.8503 1.45053C27.5976 0.898396 27.1578 0.439838 26.6243 0.187164C26.2406 0 26.0348 0 14.0281 0C1.9746 0 1.82487 0 1.44118 0.187164ZM26.1377 1.53476C26.7086 1.91845 26.6711 0.83289 26.6711 17.5C26.6711 34.1671 26.7086 33.0816 26.1377 33.4652C25.885 33.6337 25.5107 33.643 14.0374 33.643C2.56417 33.643 2.18984 33.6337 1.93717 33.4652C1.36631 33.0816 1.40374 34.1671 1.40374 17.5C1.40374 0.954544 1.37567 1.90909 1.89973 1.56284C2.02139 1.48797 2.21791 1.40374 2.34893 1.37567C2.47059 1.35695 7.81417 1.33823 14.2246 1.3476C25.5013 1.35695 25.885 1.36631 26.1377 1.53476Z"
    />
    <path
        d="M15.2637 2.86366C15.0204 3.17248 15.011 3.47195 15.245 3.7527L15.4228 3.9773L19.7557 4.00537C22.8065 4.02409 24.1634 3.99601 24.3506 3.92115C24.7811 3.74334 24.8746 3.18184 24.5378 2.77944C24.4067 2.6297 24.0698 2.62034 19.9241 2.62034H15.4509L15.2637 2.86366Z"
    />
    <path
        d="M4.1458 5.62448C3.9212 5.73678 3.65916 5.97074 3.53751 6.1579C3.32227 6.50416 3.32227 6.53223 3.32227 9.77956C3.32227 12.9146 3.33162 13.0643 3.51879 13.3825C3.62173 13.5603 3.84633 13.8036 4.02414 13.9159L4.33296 14.1312H14.0375H23.7421L24.0509 13.9159C24.2287 13.8036 24.4533 13.5603 24.5562 13.3825C24.7434 13.0643 24.7527 12.9146 24.7527 9.77956C24.7527 6.53223 24.7527 6.50416 24.5375 6.1579C24.4158 5.96138 24.1632 5.73678 23.9199 5.62448C23.5268 5.42796 23.4426 5.42796 14.0281 5.42796C4.58563 5.42796 4.53884 5.42796 4.1458 5.62448ZM23.349 9.77956V12.6806H14.0375H4.72601L4.69793 9.87314C4.68858 8.32903 4.69793 7.01887 4.72601 6.95336C4.75408 6.85042 6.6351 6.8317 14.0562 6.85042L23.349 6.87849V9.77956Z"
    />
    <path
        d="M3.72443 16.1055C3.57469 16.1616 3.43432 16.3114 3.37817 16.4892C3.23779 16.8822 3.24715 19.7646 3.37817 20.064C3.55598 20.4571 3.8648 20.5132 5.68967 20.4758C7.16828 20.4477 7.41159 20.429 7.55197 20.2793C7.7017 20.1389 7.72041 19.8956 7.74849 18.417C7.78592 16.5266 7.72977 16.2646 7.28057 16.1055C6.92496 15.9745 4.07068 15.9838 3.72443 16.1055ZM6.36346 18.2485V19.0908H5.52122H4.67897V18.2485V17.4063H5.52122H6.36346V18.2485Z"
    />
    <path
        d="M9.38564 16.0962C9.03002 16.2459 8.98323 16.4799 8.98323 18.2767C8.98323 20.6163 8.81478 20.4385 11.1076 20.4759C12.7921 20.504 12.8856 20.4946 13.129 20.3074L13.3816 20.1109V18.258C13.3816 15.8622 13.5594 16.0588 11.2854 16.0307C10.3589 16.0213 9.49794 16.0494 9.38564 16.0962ZM11.9779 18.2486V19.0909H11.1824H10.387V18.2486V17.4064H11.1824H11.9779V18.2486Z"
    />
    <path
        d="M15.1603 16.0681C14.7017 16.2459 14.6924 16.3021 14.6924 18.258V20.1109L14.9451 20.3074C15.1884 20.4946 15.282 20.504 16.9664 20.4759C19.2592 20.4385 19.0908 20.6163 19.0908 18.2486C19.0908 15.881 19.2499 16.0588 17.0132 16.0307C16.0774 16.0213 15.2352 16.0401 15.1603 16.0681ZM17.687 18.2486V19.0909H16.8916H16.0961V18.2486V17.4064H16.8916H17.687V18.2486Z"
    />
    <path
        d="M20.7653 16.1055C20.3536 16.2552 20.2881 16.564 20.3255 18.417C20.3536 19.8956 20.3723 20.1389 20.522 20.2793C20.6624 20.429 20.9057 20.4477 22.3843 20.4758C24.2092 20.5132 24.518 20.4571 24.6958 20.064C24.8268 19.7646 24.8362 16.8822 24.6958 16.4892C24.6303 16.302 24.4993 16.171 24.3121 16.1055C23.9565 15.9745 21.1022 15.9838 20.7653 16.1055ZM23.395 18.2485V19.0908H22.5528H21.7105V18.2485V17.4063H22.5528H23.395V18.2485Z"
    />
    <path
        d="M3.71621 21.7769C3.36059 21.8705 3.27637 22.2729 3.27637 23.8919C3.27637 25.6419 3.34188 25.9601 3.763 26.1005C4.13733 26.2315 6.90738 26.2315 7.28171 26.1005C7.73091 25.9414 7.78706 25.6793 7.74963 23.789C7.72155 22.3104 7.70284 22.067 7.5531 21.9267C7.40337 21.7769 7.17877 21.7582 5.63466 21.7395C4.67075 21.7301 3.80979 21.7489 3.71621 21.7769ZM6.3646 23.9574V24.7997H5.52236H4.68011V23.9574V23.1152H5.52236H6.3646V23.9574Z"
    />
    <path
        d="M9.21748 21.9452C8.98352 22.1698 8.98352 22.1885 8.98352 23.9385C8.98352 26.3436 8.80571 26.1565 11.164 26.1565C12.8298 26.1565 13.0076 26.1377 13.1854 25.9786C13.3726 25.8102 13.3819 25.7166 13.3819 23.9479V22.095L13.1386 21.9078C12.9046 21.7206 12.7643 21.7113 11.164 21.7113C9.46079 21.7113 9.44208 21.7113 9.21748 21.9452ZM11.9782 23.9573V24.7995H11.1827H10.3873V23.9573V23.115H11.1827H11.9782V23.9573Z"
    />
    <path
        d="M14.9357 21.9078L14.6924 22.095V23.9479C14.6924 25.7166 14.7017 25.8102 14.8889 25.9786C15.0667 26.1377 15.2445 26.1565 16.9103 26.1565C19.2686 26.1565 19.0908 26.3436 19.0908 23.9385C19.0908 21.5615 19.2405 21.7113 16.9103 21.7113C15.31 21.7113 15.1697 21.7206 14.9357 21.9078ZM17.687 23.9573V24.7995H16.8916H16.0961V23.9573V23.115H16.8916H17.687V23.9573Z"
    />
    <path
        d="M20.7007 21.8049C20.5884 21.8517 20.448 22.0015 20.4012 22.1325C20.3451 22.2822 20.3076 24.1445 20.3076 26.849C20.3076 31.2381 20.3076 31.3317 20.5041 31.575L20.6913 31.8183H22.5442C24.3036 31.8183 24.4065 31.8089 24.575 31.6218C24.7434 31.4346 24.7528 31.2007 24.7809 26.9239C24.7996 23.817 24.7715 22.3384 24.706 22.1699C24.6499 22.0389 24.4908 21.8798 24.3691 21.8143C24.0884 21.6926 21.0188 21.6833 20.7007 21.8049ZM23.3959 26.8116V30.5081H22.5536H21.7114V26.8116V23.1151H22.5536H23.3959V26.8116Z"
    />
    <path
        d="M3.54686 27.5977C3.32227 27.7755 3.32227 27.7942 3.32227 29.6004C3.32227 31.2662 3.34098 31.444 3.50007 31.6218C3.66852 31.8089 3.77146 31.8183 5.53082 31.8183H7.38376L7.58029 31.5656C7.76745 31.3223 7.77681 31.2287 7.74874 29.5442C7.7113 27.2515 7.88911 27.4199 5.52146 27.4199C3.93055 27.4199 3.74339 27.4386 3.54686 27.5977ZM6.36371 29.6191V30.4146H5.52146H4.67922V29.6191V28.8236H5.52146H6.36371V29.6191Z"
    />
    <path
        d="M9.21833 27.6539C8.98438 27.8785 8.98438 27.8972 8.98438 29.6659C8.98438 31.3223 8.99373 31.4533 9.17154 31.6311C9.34935 31.8089 9.48036 31.8183 11.2116 31.8183C12.8961 31.8183 13.0833 31.7996 13.2237 31.6498C13.3641 31.5001 13.3828 31.2194 13.3828 29.6378V27.8036L13.1395 27.6164C12.9055 27.4293 12.7651 27.4199 11.1649 27.4199C9.46165 27.4199 9.44293 27.4199 9.21833 27.6539ZM11.979 29.6191V30.4146H11.1836H10.3881V29.6191V28.8236H11.1836H11.979V29.6191Z"
    />
    <path
        d="M14.9357 27.6164L14.6924 27.8036V29.6565C14.6924 31.3317 14.7111 31.5188 14.8608 31.6592C15.0106 31.7996 15.2913 31.8183 16.8729 31.8183C18.5948 31.8183 18.7258 31.8089 18.9036 31.6311C19.0814 31.4533 19.0908 31.3223 19.0908 29.6659C19.0908 27.2702 19.2405 27.4199 16.9103 27.4199C15.31 27.4199 15.1697 27.4293 14.9357 27.6164ZM17.687 29.6191V30.4146H16.8916H16.0961V29.6191V28.8236H16.8916H17.687V29.6191Z"
    />
</svg>