<svg width="63" height="40" viewBox="0 0 63 40" fill="none" xmlns="http://www.w3.org/2000/svg">
<path d="M4.24487 1.35156H57.6627C59.3486 1.35156 60.7152 2.69176 60.7152 4.3448V35.7738C60.7152 37.4269 59.3486 38.7671 57.6627 38.7671H4.24487C2.55906 38.7671 1.19238 37.4269 1.19238 35.7738V4.3448C1.19238 2.69176 2.55906 1.35156 4.24487 1.35156Z" stroke="#2E2E2E" stroke-width="2"/>
<path d="M56.0589 20.0583C56.0589 28.4662 49.0685 35.3092 40.4764 35.3092C36.8927 35.3092 33.589 34.1162 30.9536 32.1211C28.3195 34.1162 25.0158 35.3092 21.4323 35.3092C12.8406 35.3092 5.85059 28.4663 5.85059 20.0583C5.85059 11.6495 12.8408 4.81055 21.4323 4.81055C25.016 4.81055 28.3198 5.99902 30.9536 7.99695C33.5892 5.99902 36.8929 4.81055 40.4764 4.81055C49.0681 4.81055 56.0589 11.6501 56.0589 20.0583ZM40.4542 6.15687C37.2934 6.15687 34.3753 7.17031 32.0176 8.88053C34.1556 10.8279 35.7369 13.3567 36.4924 16.2067H35.0483C34.3084 13.687 32.8621 11.4626 30.9308 9.75067C29.0016 11.4626 27.5543 13.687 26.8172 16.2067H25.3708C26.1281 13.3567 27.7093 10.8279 29.8475 8.88053C27.4887 7.17031 24.5718 6.15687 21.4093 6.15687C13.5746 6.15687 7.22323 12.3724 7.22323 20.0416C7.22323 27.7086 13.5746 33.9263 21.4093 33.9263C24.5717 33.9263 27.4886 32.9128 29.8475 31.2028C27.8356 29.369 26.3179 27.0196 25.5155 24.3752H26.9758C27.7516 26.6908 29.1288 28.7346 30.9308 30.3323C32.7348 28.7346 34.1138 26.6908 34.8896 24.3752H36.3495C35.5458 27.0198 34.0284 29.3691 32.0175 31.2028C34.375 32.9128 37.293 33.9263 40.4541 33.9263C48.2887 33.9263 54.6402 27.7088 54.6402 20.0416C54.6402 12.3725 48.2889 6.15687 40.4542 6.15687Z" fill="#2E2E2E" stroke="#2E2E2E"/>
<path d="M15.6711 16.7082H13.3995L11.9799 20.85L11.9208 16.7082H9.81567L8.67285 23.4H10.0428L10.9226 18.2875L11.0455 23.4H12.0436L13.914 18.257L13.076 23.4H14.539L15.6711 16.7082ZM19.4414 23.3937H18.2287L18.2569 22.8291C17.8868 23.2749 17.3938 23.4882 16.724 23.4882C15.9295 23.4882 15.3884 22.8811 15.3884 22.003C15.3884 20.676 16.332 19.9047 17.9553 19.9047C18.1217 19.9047 18.3346 19.9198 18.5522 19.9471C18.5975 19.7661 18.6084 19.69 18.6084 19.5926C18.6084 19.2336 18.3548 19.0982 17.6706 19.0982C16.9556 19.089 16.3648 19.2641 16.1223 19.3432C16.1378 19.252 16.3261 18.1198 16.3261 18.1198C17.0538 17.9098 17.5354 17.8307 18.0767 17.8307C19.3329 17.8307 19.9985 18.3815 19.9969 19.4254C19.9985 19.7054 19.9517 20.0507 19.8786 20.5059C19.7512 21.2924 19.4791 22.9813 19.4416 23.3936V23.3937H19.4414ZM18.4135 20.9949C18.2597 20.9796 18.1926 20.9735 18.0869 20.9735C17.2566 20.9735 16.8383 21.2517 16.8383 21.7997C16.8383 22.1393 17.0436 22.3551 17.3607 22.3551C17.9579 22.3551 18.3868 21.7997 18.4135 20.9949ZM38.6004 16.5586C36.6614 16.5586 35.3054 18.2292 35.3054 20.6214C35.3054 22.3985 36.2868 23.5094 37.8618 23.5094C38.2659 23.5094 38.6157 23.4576 39.1537 23.3116L39.4103 21.7883C38.9267 22.0213 38.5288 22.1323 38.1677 22.1323C37.3173 22.1323 36.804 21.5174 36.804 20.5024C36.804 19.028 37.5678 17.9949 38.6607 17.9949C39.0666 17.9949 39.446 18.0984 39.9683 18.3572L40.2077 16.9056C39.9934 16.8233 39.2391 16.5586 38.6004 16.5586ZM43.8629 23.3937H42.6519L42.6798 22.8291C42.3082 23.2749 41.8137 23.4882 41.145 23.4882C40.3521 23.4882 39.8079 22.8811 39.8079 22.003C39.8079 20.676 40.7548 19.9047 42.3765 19.9047C42.5429 19.9047 42.756 19.9198 42.9739 19.9471C43.0186 19.7661 43.0297 19.69 43.0297 19.5926C43.0297 19.2336 42.7762 19.0982 42.0934 19.0982C41.3769 19.089 40.7877 19.2641 40.5449 19.3432C40.559 19.252 40.7472 18.1198 40.7472 18.1198C41.4763 17.9098 41.9582 17.8307 42.4961 17.8307C43.7542 17.8307 44.4198 18.3815 44.4181 19.4254C44.4212 19.7054 44.3731 20.0507 44.3 20.5059C44.1741 21.2924 43.9007 22.9813 43.8631 23.3936V23.3937H43.8629ZM42.8344 20.9949C42.6821 20.9796 42.6137 20.9735 42.5063 20.9735C41.6775 20.9735 41.2577 21.2517 41.2577 21.7997C41.2577 22.1393 41.4631 22.3551 41.7835 22.3551C42.3791 22.3551 42.8096 21.7997 42.8344 20.9949ZM26.6412 22.1326C26.5432 22.1662 26.4142 22.1842 26.2479 22.1842C25.8996 22.1842 25.7458 22.0628 25.7458 21.781C25.749 21.6077 25.9899 20.3204 26.1579 19.2871H26.9086L27.1078 17.9785H26.3598L26.5292 17.1572H25.0754C25.0754 17.1572 24.5252 20.3601 24.4428 20.8667C24.3494 21.4465 24.2314 22.078 24.2405 22.3183C24.2405 23.0929 24.648 23.5145 25.3956 23.5145C25.735 23.5145 26.0469 23.4595 26.4486 23.3379L26.6412 22.1326ZM31.1109 23.269C30.6103 23.4182 30.128 23.4882 29.6182 23.4882C27.9885 23.4848 27.1398 22.6528 27.1398 21.0597C27.1398 19.2001 28.2203 17.8306 29.6865 17.8306C30.8853 17.8306 31.652 18.596 31.652 19.8011C31.652 20.1997 31.5975 20.5878 31.4714 21.1402H28.5763C28.4784 21.9268 28.9948 22.2555 29.8406 22.2555C30.3612 22.2555 30.8294 22.1519 31.3518 21.9147L31.1109 23.269ZM30.3485 20.0768C30.3579 19.9642 30.5022 19.1028 29.672 19.1028C29.2085 19.1028 28.8759 19.4514 28.7424 20.0768H30.3485ZM20.5998 19.6718C20.5998 20.3612 20.9385 20.8345 21.7129 21.1921C22.3054 21.4659 22.3971 21.545 22.3971 21.7933C22.3971 22.1307 22.1358 22.283 21.5559 22.283C21.1206 22.283 20.7132 22.219 20.245 22.0701C20.245 22.0701 20.0525 23.2691 20.043 23.327C20.3774 23.3972 20.6727 23.4636 21.5668 23.4883C23.1105 23.4883 23.8229 22.9114 23.8229 21.6698C23.8229 20.9198 23.5258 20.4846 22.7917 20.1541C22.1794 19.8772 22.1078 19.8164 22.1078 19.5623C22.1078 19.2671 22.3519 19.118 22.8261 19.118C23.1121 19.118 23.5055 19.1485 23.8756 19.2003L24.0841 17.9372C23.7046 17.8794 23.131 17.8307 22.7966 17.8307C21.1594 17.8306 20.5935 18.666 20.5998 19.6718ZM52.0988 23.4001H50.7136L50.7835 22.8936C50.3808 23.3122 49.969 23.4947 49.434 23.4947C48.3703 23.4947 47.6677 22.5984 47.6677 21.2381C47.6677 19.4256 48.7574 17.9011 50.0478 17.9011C50.6141 17.9011 51.0461 18.1263 51.446 18.6423L51.7692 16.7083H53.2123L52.0988 23.4001ZM49.9437 22.1529C50.6246 22.1529 51.1051 21.3964 51.1051 20.3191C51.1051 19.6267 50.8331 19.2524 50.3289 19.2524C49.6651 19.2524 49.194 20.0087 49.194 21.0784C49.194 21.7922 49.4461 22.1529 49.9437 22.1529ZM45.4441 17.9643C45.2608 19.6473 44.9357 21.353 44.6823 23.0391L44.6154 23.4057H46.077C46.601 20.078 46.7283 19.4283 47.5478 19.5103C47.6782 18.8271 47.9207 18.2324 48.1042 17.9312C47.4905 17.8061 47.1481 18.1471 46.7021 18.7908C46.7377 18.5107 46.8015 18.2414 46.7876 17.9643H45.4441ZM32.6259 17.9643C32.442 19.6473 32.1156 21.353 31.8622 23.0391L31.7952 23.4057H33.2582C33.7823 20.078 33.9082 19.4283 34.7275 19.5103C34.8596 18.8271 35.1037 18.2324 35.2843 17.9312C34.6731 17.8061 34.3284 18.1471 33.8817 18.7908C33.9175 18.5107 33.981 18.2414 33.9688 17.9643H32.6259Z" fill="#2E2E2E"/>
</svg>
