<svg width="63" height="40" viewBox="0 0 63 40" fill="none" xmlns="http://www.w3.org/2000/svg">
<path d="M4.28935 1.27539H57.9566C59.6504 1.27539 61.0234 2.61531 61.0234 4.26814V35.6928C61.0234 37.3457 59.6504 38.6858 57.9566 38.6858H4.28935C2.59564 38.6858 1.22266 37.3458 1.22266 35.6928V4.26814C1.22266 2.61531 2.59564 1.27539 4.28935 1.27539Z" stroke="#2E2E2E" stroke-width="2"/>
<path d="M23.6818 27.4682L26.2395 12.8212H30.3306L27.771 27.4682H23.6818ZM42.5503 13.1367C41.7398 12.84 40.47 12.5215 38.8839 12.5215C34.8415 12.5215 31.9941 14.508 31.9699 17.3551C31.947 19.4598 34.0027 20.6339 35.5543 21.3345C37.1467 22.0524 37.682 22.5102 37.6745 23.1513C37.6643 24.1331 36.4027 24.5817 35.227 24.5817C33.5897 24.5817 32.7197 24.3597 31.3763 23.8128L30.8491 23.58L30.2749 26.8589C31.2305 27.2678 32.9974 27.622 34.8319 27.6404C39.1321 27.6404 41.9237 25.6765 41.9555 22.6363C41.9709 20.97 40.8811 19.702 38.5208 18.6566C37.091 17.9792 36.2152 17.5269 36.2246 16.8408C36.2246 16.2321 36.9657 15.5809 38.5671 15.5809C39.9051 15.5607 40.874 15.8454 41.629 16.1421L41.9957 16.3112L42.5502 13.1365M53.0777 12.8207H49.9167C48.9374 12.8207 48.2046 13.0816 47.7744 14.0354L41.6991 27.4585H45.9947C45.9947 27.4585 46.6971 25.6535 46.8561 25.2573C47.3255 25.2573 51.4986 25.2636 52.0953 25.2636C52.2176 25.7765 52.5929 27.4585 52.5929 27.4585H56.389L53.0777 12.8203V12.8207ZM48.0623 22.2789C48.4007 21.435 49.6922 18.1844 49.6922 18.1844C49.6681 18.2236 50.0281 17.3364 50.2349 16.7866L50.5112 18.0495C50.5112 18.0495 51.2945 21.5457 51.4583 22.2789H48.0623ZM20.2098 12.8207L16.2047 22.8087L15.7779 20.7788C15.0323 18.4389 12.7093 15.9037 10.1123 14.6346L13.7744 27.4441L18.1027 27.4393L24.5431 12.8201H20.2098" fill="#2E2E2E"/>
<path d="M12.4661 12.8203H5.86957L5.81738 13.1251C10.9493 14.3375 14.3449 17.2672 15.7552 20.7877L14.3208 14.0568C14.0732 13.1295 13.355 12.8527 12.4665 12.8203" fill="#2E2E2E"/>
</svg>
