<svg width="57" height="57" viewBox="0 0 57 57" fill="none" xmlns="http://www.w3.org/2000/svg">
    <path
        d="M28.5 49.0201C21.375 49.0201 15.0765 45.3721 11.4 39.9001C11.4855 34.2001 22.8 31.0651 28.5 31.0651C34.2 31.0651 45.5145 34.2001 45.6 39.9001C43.7158 42.7056 41.1707 45.0049 38.1887 46.5952C35.2068 48.1856 31.8795 49.0183 28.5 49.0201ZM28.5 8.55002C30.7676 8.55002 32.9423 9.45082 34.5458 11.0543C36.1492 12.6577 37.05 14.8324 37.05 17.1C37.05 19.3676 36.1492 21.5424 34.5458 23.1458C32.9423 24.7492 30.7676 25.65 28.5 25.65C26.2324 25.65 24.0577 24.7492 22.4542 23.1458C20.8508 21.5424 19.95 19.3676 19.95 17.1C19.95 14.8324 20.8508 12.6577 22.4542 11.0543C24.0577 9.45082 26.2324 8.55002 28.5 8.55002ZM28.5 0C24.7573 0 21.0513 0.737176 17.5935 2.16944C14.1357 3.6017 10.9939 5.701 8.34746 8.34747C3.00267 13.6923 0 20.9414 0 28.5001C0 36.0587 3.00267 43.3078 8.34746 48.6526C10.9939 51.2991 14.1357 53.3984 17.5935 54.8307C21.0513 56.2629 24.7573 57.0001 28.5 57.0001C36.0587 57.0001 43.3078 53.9974 48.6525 48.6526C53.9973 43.3078 57 36.0587 57 28.5001C57 12.7395 44.175 0 28.5 0Z"
        fill="#717FEB" />
</svg>