<svg style="display: none;" aria-hidden="true" xmlns="http://www.w3.org/2000/svg" xmlns:xlink="http://www.w3.org/1999/xlink"><symbol viewBox="0 0 22 16" id="svg-icon-arrow"><path d="M20.998 9C21.5503 9 21.998 8.55228 21.998 8C21.998 7.44772 21.5503 7 20.998 7L20.998 9ZM0.507876 7.29289C0.117352 7.68342 0.117352 8.31658 0.507876 8.7071L6.87184 15.0711C7.26236 15.4616 7.89553 15.4616 8.28605 15.0711C8.67657 14.6805 8.67657 14.0474 8.28605 13.6569L2.6292 8L8.28605 2.34314C8.67658 1.95262 8.67658 1.31946 8.28605 0.928931C7.89553 0.538407 7.26236 0.538407 6.87184 0.928931L0.507876 7.29289ZM20.998 7L1.21498 7L1.21498 9L20.998 9L20.998 7Z"/></symbol><symbol viewBox="0 0 28 28" fill="none" id="svg-icon-benefit"><path d="M18.8125 11.375L12.3922 17.5L9.1875 14.4375" stroke="#000" stroke-width="2" stroke-linecap="round" stroke-linejoin="round"/><path d="M14 24.5C19.799 24.5 24.5 19.799 24.5 14C24.5 8.20101 19.799 3.5 14 3.5C8.20101 3.5 3.5 8.20101 3.5 14C3.5 19.799 8.20101 24.5 14 24.5Z" stroke="#000" stroke-width="2" stroke-linecap="round" stroke-linejoin="round"/></symbol><symbol viewBox="0 0 29 35" id="svg-icon-calc"><path d="M1.44118 0.187164C0.907754 0.4492 0.477273 0.898396 0.224599 1.45053L0 1.91845V17.5V33.0816L0.224599 33.5495C0.477273 34.1016 0.917112 34.5602 1.45053 34.8128C1.83422 35 2.04011 35 14.0187 35C24.266 35 26.2594 34.9813 26.5214 34.869C27.008 34.6631 27.6163 34.0642 27.8503 33.5495L28.0749 33.0816V17.5V1.91845L27.8503 1.45053C27.5976 0.898396 27.1578 0.439838 26.6243 0.187164C26.2406 0 26.0348 0 14.0281 0C1.9746 0 1.82487 0 1.44118 0.187164ZM26.1377 1.53476C26.7086 1.91845 26.6711 0.83289 26.6711 17.5C26.6711 34.1671 26.7086 33.0816 26.1377 33.4652C25.885 33.6337 25.5107 33.643 14.0374 33.643C2.56417 33.643 2.18984 33.6337 1.93717 33.4652C1.36631 33.0816 1.40374 34.1671 1.40374 17.5C1.40374 0.954544 1.37567 1.90909 1.89973 1.56284C2.02139 1.48797 2.21791 1.40374 2.34893 1.37567C2.47059 1.35695 7.81417 1.33823 14.2246 1.3476C25.5013 1.35695 25.885 1.36631 26.1377 1.53476Z"/><path d="M15.2637 2.86366C15.0204 3.17248 15.011 3.47195 15.245 3.7527L15.4228 3.9773 19.7557 4.00537C22.8065 4.02409 24.1634 3.99601 24.3506 3.92115 24.7811 3.74334 24.8746 3.18184 24.5378 2.77944 24.4067 2.6297 24.0698 2.62034 19.9241 2.62034H15.4509L15.2637 2.86366zM4.1458 5.62448C3.9212 5.73678 3.65916 5.97074 3.53751 6.1579 3.32227 6.50416 3.32227 6.53223 3.32227 9.77956 3.32227 12.9146 3.33162 13.0643 3.51879 13.3825 3.62173 13.5603 3.84633 13.8036 4.02414 13.9159L4.33296 14.1312H14.0375 23.7421L24.0509 13.9159C24.2287 13.8036 24.4533 13.5603 24.5562 13.3825 24.7434 13.0643 24.7527 12.9146 24.7527 9.77956 24.7527 6.53223 24.7527 6.50416 24.5375 6.1579 24.4158 5.96138 24.1632 5.73678 23.9199 5.62448 23.5268 5.42796 23.4426 5.42796 14.0281 5.42796 4.58563 5.42796 4.53884 5.42796 4.1458 5.62448zM23.349 9.77956V12.6806H14.0375 4.72601L4.69793 9.87314C4.68858 8.32903 4.69793 7.01887 4.72601 6.95336 4.75408 6.85042 6.6351 6.8317 14.0562 6.85042L23.349 6.87849V9.77956zM3.72443 16.1055C3.57469 16.1616 3.43432 16.3114 3.37817 16.4892 3.23779 16.8822 3.24715 19.7646 3.37817 20.064 3.55598 20.4571 3.8648 20.5132 5.68967 20.4758 7.16828 20.4477 7.41159 20.429 7.55197 20.2793 7.7017 20.1389 7.72041 19.8956 7.74849 18.417 7.78592 16.5266 7.72977 16.2646 7.28057 16.1055 6.92496 15.9745 4.07068 15.9838 3.72443 16.1055zM6.36346 18.2485V19.0908H5.52122 4.67897V18.2485 17.4063H5.52122 6.36346V18.2485zM9.38564 16.0962C9.03002 16.2459 8.98323 16.4799 8.98323 18.2767 8.98323 20.6163 8.81478 20.4385 11.1076 20.4759 12.7921 20.504 12.8856 20.4946 13.129 20.3074L13.3816 20.1109V18.258C13.3816 15.8622 13.5594 16.0588 11.2854 16.0307 10.3589 16.0213 9.49794 16.0494 9.38564 16.0962zM11.9779 18.2486V19.0909H11.1824 10.387V18.2486 17.4064H11.1824 11.9779V18.2486zM15.1603 16.0681C14.7017 16.2459 14.6924 16.3021 14.6924 18.258V20.1109L14.9451 20.3074C15.1884 20.4946 15.282 20.504 16.9664 20.4759 19.2592 20.4385 19.0908 20.6163 19.0908 18.2486 19.0908 15.881 19.2499 16.0588 17.0132 16.0307 16.0774 16.0213 15.2352 16.0401 15.1603 16.0681zM17.687 18.2486V19.0909H16.8916 16.0961V18.2486 17.4064H16.8916 17.687V18.2486zM20.7653 16.1055C20.3536 16.2552 20.2881 16.564 20.3255 18.417 20.3536 19.8956 20.3723 20.1389 20.522 20.2793 20.6624 20.429 20.9057 20.4477 22.3843 20.4758 24.2092 20.5132 24.518 20.4571 24.6958 20.064 24.8268 19.7646 24.8362 16.8822 24.6958 16.4892 24.6303 16.302 24.4993 16.171 24.3121 16.1055 23.9565 15.9745 21.1022 15.9838 20.7653 16.1055zM23.395 18.2485V19.0908H22.5528 21.7105V18.2485 17.4063H22.5528 23.395V18.2485zM3.71621 21.7769C3.36059 21.8705 3.27637 22.2729 3.27637 23.8919 3.27637 25.6419 3.34188 25.9601 3.763 26.1005 4.13733 26.2315 6.90738 26.2315 7.28171 26.1005 7.73091 25.9414 7.78706 25.6793 7.74963 23.789 7.72155 22.3104 7.70284 22.067 7.5531 21.9267 7.40337 21.7769 7.17877 21.7582 5.63466 21.7395 4.67075 21.7301 3.80979 21.7489 3.71621 21.7769zM6.3646 23.9574V24.7997H5.52236 4.68011V23.9574 23.1152H5.52236 6.3646V23.9574zM9.21748 21.9452C8.98352 22.1698 8.98352 22.1885 8.98352 23.9385 8.98352 26.3436 8.80571 26.1565 11.164 26.1565 12.8298 26.1565 13.0076 26.1377 13.1854 25.9786 13.3726 25.8102 13.3819 25.7166 13.3819 23.9479V22.095L13.1386 21.9078C12.9046 21.7206 12.7643 21.7113 11.164 21.7113 9.46079 21.7113 9.44208 21.7113 9.21748 21.9452zM11.9782 23.9573V24.7995H11.1827 10.3873V23.9573 23.115H11.1827 11.9782V23.9573zM14.9357 21.9078L14.6924 22.095V23.9479C14.6924 25.7166 14.7017 25.8102 14.8889 25.9786 15.0667 26.1377 15.2445 26.1565 16.9103 26.1565 19.2686 26.1565 19.0908 26.3436 19.0908 23.9385 19.0908 21.5615 19.2405 21.7113 16.9103 21.7113 15.31 21.7113 15.1697 21.7206 14.9357 21.9078zM17.687 23.9573V24.7995H16.8916 16.0961V23.9573 23.115H16.8916 17.687V23.9573zM20.7007 21.8049C20.5884 21.8517 20.448 22.0015 20.4012 22.1325 20.3451 22.2822 20.3076 24.1445 20.3076 26.849 20.3076 31.2381 20.3076 31.3317 20.5041 31.575L20.6913 31.8183H22.5442C24.3036 31.8183 24.4065 31.8089 24.575 31.6218 24.7434 31.4346 24.7528 31.2007 24.7809 26.9239 24.7996 23.817 24.7715 22.3384 24.706 22.1699 24.6499 22.0389 24.4908 21.8798 24.3691 21.8143 24.0884 21.6926 21.0188 21.6833 20.7007 21.8049zM23.3959 26.8116V30.5081H22.5536 21.7114V26.8116 23.1151H22.5536 23.3959V26.8116zM3.54686 27.5977C3.32227 27.7755 3.32227 27.7942 3.32227 29.6004 3.32227 31.2662 3.34098 31.444 3.50007 31.6218 3.66852 31.8089 3.77146 31.8183 5.53082 31.8183H7.38376L7.58029 31.5656C7.76745 31.3223 7.77681 31.2287 7.74874 29.5442 7.7113 27.2515 7.88911 27.4199 5.52146 27.4199 3.93055 27.4199 3.74339 27.4386 3.54686 27.5977zM6.36371 29.6191V30.4146H5.52146 4.67922V29.6191 28.8236H5.52146 6.36371V29.6191zM9.21833 27.6539C8.98438 27.8785 8.98438 27.8972 8.98438 29.6659 8.98438 31.3223 8.99373 31.4533 9.17154 31.6311 9.34935 31.8089 9.48036 31.8183 11.2116 31.8183 12.8961 31.8183 13.0833 31.7996 13.2237 31.6498 13.3641 31.5001 13.3828 31.2194 13.3828 29.6378V27.8036L13.1395 27.6164C12.9055 27.4293 12.7651 27.4199 11.1649 27.4199 9.46165 27.4199 9.44293 27.4199 9.21833 27.6539zM11.979 29.6191V30.4146H11.1836 10.3881V29.6191 28.8236H11.1836 11.979V29.6191zM14.9357 27.6164L14.6924 27.8036V29.6565C14.6924 31.3317 14.7111 31.5188 14.8608 31.6592 15.0106 31.7996 15.2913 31.8183 16.8729 31.8183 18.5948 31.8183 18.7258 31.8089 18.9036 31.6311 19.0814 31.4533 19.0908 31.3223 19.0908 29.6659 19.0908 27.2702 19.2405 27.4199 16.9103 27.4199 15.31 27.4199 15.1697 27.4293 14.9357 27.6164zM17.687 29.6191V30.4146H16.8916 16.0961V29.6191 28.8236H16.8916 17.687V29.6191z"/></symbol><symbol viewBox="0 0 13 9" fill="none" id="svg-icon-checkbox"><path fill-rule="evenodd" clip-rule="evenodd" d="M12.2116 0.4056C12.4191 0.613066 12.4191 0.949434 12.2116 1.1569L4.77409 8.5944C4.56662 8.80187 4.23025 8.80187 4.02279 8.5944L0.304037 4.87565C0.096571 4.66818 0.096571 4.33182 0.304037 4.12435C0.511503 3.91688 0.847872 3.91688 1.05534 4.12435L4.39844 7.46745L11.4603 0.4056C11.6678 0.198133 12.0041 0.198133 12.2116 0.4056Z" fill="#fff"/></symbol><symbol viewBox="0 0 28 35" id="svg-icon-doc"><path d="M12.2004 0.0156441C8.15852 0.532104 5.83821 2.80751 5.04481 7.05892C4.97745 7.44814 4.91008 8.32387 4.88763 9.1996L4.84272 10.6891L4.59572 11.1008C4.46099 11.3253 4.31129 11.6996 4.26638 11.9241C4.0119 13.1441 4.88763 14.4091 6.12264 14.6112L6.42203 14.6561L6.46694 15.0977C6.63909 16.5722 7.31273 18.0168 8.37559 19.147L8.83216 19.641V20.5766V21.5122L8.5178 21.5571C8.33816 21.5871 7.91152 21.7293 7.55973 21.8715C7.20794 22.0212 6.63909 22.2458 6.2873 22.3805C4.88763 22.9194 3.85472 23.5556 2.89665 24.4463C1.48949 25.7637 0.531427 27.5151 0.142213 29.4836C0.0224547 30.1049 0 30.554 0 32.4551C0 34.6033 0.00748488 34.7081 0.149698 34.8503C0.299395 35 0.396699 35 13.6225 35C26.8483 35 26.9456 35 27.0953 34.8503C27.2375 34.7081 27.245 34.6033 27.245 32.5C27.245 30.0824 27.1851 29.5285 26.7959 28.316C25.9202 25.5765 23.8918 23.5107 20.9726 22.388C20.6134 22.2532 20.037 22.0212 19.6852 21.8715C19.3335 21.7293 18.9068 21.5871 18.7347 21.5571L18.4128 21.5122V20.5766V19.641L18.8694 19.147C19.9322 18.0168 20.6059 16.5722 20.778 15.0977L20.823 14.6561L21.1223 14.6112C21.287 14.5812 21.5789 14.4839 21.766 14.3866C22.8963 13.8028 23.3379 12.478 22.7765 11.3403C22.4547 10.6816 22.3798 10.3523 22.3274 9.16218C22.26 7.5679 22.4846 6.70713 23.1732 5.96613C23.7346 5.35985 23.7121 5.15028 23.0085 4.22964C22.2376 3.22666 20.8155 2.3659 19.3335 2.0216L18.7945 1.89435L18.9442 1.70723C19.1239 1.46771 19.1239 1.23568 18.9368 0.996166C18.817 0.838982 18.6149 0.764133 17.829 0.577011C16.1374 0.165344 15.1868 0.0381012 13.7722 0.00815964C13.0536 -0.00680923 12.3426 0.000675201 12.2004 0.0156441ZM15.082 1.20574C15.8305 1.30305 16.5865 1.43777 17.2003 1.57999L17.3724 1.6249L17.1853 1.84944C17.0581 1.99914 16.9907 2.17129 16.9907 2.32848C16.9907 2.70272 17.2377 2.8599 17.9038 2.9123C19.4757 3.05451 21.07 3.78054 21.9607 4.76855L22.29 5.13531L21.9607 5.62182C21.781 5.89128 21.5415 6.39277 21.4292 6.72959C21.2346 7.30592 21.2271 7.4182 21.2196 8.72805V10.1202L21.0176 10.0903C20.8155 10.0604 20.808 10.0379 20.808 9.61127C20.808 8.60829 20.2167 8.24154 19.0865 8.54093C18.1209 8.79542 17.0655 8.75799 15.9054 8.42117C15.621 8.33135 14.7153 7.99453 13.8919 7.67268C12.1555 6.9691 11.4369 6.78198 10.5537 6.78198C9.78274 6.78947 9.38605 6.8718 8.78726 7.16371C7.64955 7.72508 6.69897 8.83284 6.48191 9.85827C6.45197 10.0155 6.38461 10.0678 6.20497 10.0903L5.96545 10.1277L6.01036 8.92266C6.06276 7.56041 6.21994 6.65474 6.62412 5.53201C7.8217 2.17129 10.8082 0.644375 15.082 1.20574ZM11.5417 8.01699C11.7812 8.08435 12.7018 8.42117 13.5851 8.77296C15.8081 9.65618 16.3769 9.79839 17.7018 9.79839C18.4128 9.80588 18.8993 9.76845 19.2212 9.68612L19.6927 9.56636L19.6703 12.463C19.6403 15.2474 19.6329 15.3746 19.4682 15.8761C18.7796 17.9644 17.2377 19.4539 15.1569 20.0452C14.3111 20.2847 12.9414 20.2847 12.0881 20.0452C10.0148 19.4539 8.45792 17.9494 7.7768 15.8761C7.61213 15.3821 7.60464 15.2249 7.5747 12.7849C7.55225 10.5469 7.56722 10.1726 7.67201 9.85078C7.89655 9.18463 8.84713 8.3089 9.6555 8.03196C10.0896 7.87477 10.9728 7.87477 11.5417 8.01699ZM6.437 12.3582C6.437 13.234 6.41455 13.5184 6.34718 13.5184C6.29479 13.5184 6.11515 13.4435 5.95048 13.3462C5.56875 13.1367 5.27684 12.5903 5.34421 12.216C5.41157 11.8642 5.67354 11.5049 5.98791 11.3403C6.44449 11.0933 6.437 11.0858 6.437 12.3582ZM21.4217 11.4301C21.9008 11.7744 22.0205 12.4705 21.6912 12.9795C21.5116 13.2414 21.1074 13.5184 20.8903 13.5184C20.8304 13.5184 20.808 13.1516 20.808 12.3507V11.1831L21.0101 11.2355C21.1223 11.2579 21.302 11.3478 21.4217 11.4301ZM11.7138 21.1679C12.2228 21.3101 12.5072 21.3326 13.6225 21.3401C15.112 21.3401 15.6584 21.2278 16.7212 20.7114L17.2976 20.4344L17.2751 21.2952L17.2527 22.1559L15.4413 23.1963L13.6225 24.2442L11.8111 23.1963L9.99232 22.1559L9.96987 21.2952L9.94741 20.4344L10.5387 20.7188C10.8606 20.876 11.392 21.0781 11.7138 21.1679ZM10.3366 28.3759C11.1151 31.295 11.7513 33.7351 11.7513 33.7874C11.7513 33.8623 11.6016 33.8773 11.145 33.8623L10.5387 33.8398L9.52826 30.9956C8.89204 29.2217 8.54025 28.1214 8.57768 28.069C8.6151 28.0166 8.80223 27.7696 9.00432 27.5151C9.56568 26.7741 9.49083 26.5121 8.57019 26.093L7.95643 25.8011L7.78428 24.5286C7.68698 23.8251 7.6271 23.2338 7.64955 23.2113C7.70195 23.1514 8.47289 23.0392 8.71241 23.0466L8.92947 23.0616L10.3366 28.3759ZM19.3709 23.1439C19.6628 23.1963 19.6628 23.1589 19.4457 24.6634L19.2811 25.816L18.7347 26.0705C17.7541 26.5196 17.6718 26.7666 18.2481 27.5151C18.4428 27.7696 18.6299 28.0166 18.6673 28.069C18.7122 28.1289 18.3754 29.1693 17.7167 31.0031L16.7063 33.8398L16.1 33.8623C15.7257 33.8773 15.4937 33.8548 15.4937 33.8099C15.4937 33.7351 18.2257 23.3385 18.308 23.1065C18.338 23.0092 18.6374 23.0167 19.3709 23.1439ZM12.0058 24.6334C12.8441 25.1125 13.5027 25.4418 13.6225 25.4418C13.7422 25.4418 14.4608 25.075 15.4114 24.5361C16.4368 23.9523 16.9832 23.6754 16.9607 23.7577C16.9308 23.855 14.6629 32.4327 14.3635 33.5928L14.2886 33.8773H13.6225C13.2482 33.8773 12.9489 33.8623 12.9489 33.8548C12.9489 33.8174 10.3441 23.9373 10.2767 23.7352C10.2393 23.6005 10.2468 23.6005 10.4115 23.7128C10.5088 23.7727 11.2273 24.1918 12.0058 24.6334ZM6.72143 25.0975C6.81873 25.7861 6.93849 26.4223 6.99088 26.5047C7.04328 26.587 7.26782 26.7367 7.4774 26.834C7.68698 26.9388 7.85913 27.0436 7.85913 27.066C7.85913 27.096 7.73937 27.2756 7.59716 27.4627C7.43249 27.6723 7.33519 27.8894 7.33519 28.0241C7.33519 28.2037 7.88158 29.7905 9.25132 33.5928L9.34862 33.8773H5.23942H1.12273V32.1258C1.12273 30.2396 1.1901 29.6408 1.5344 28.6304C1.93859 27.4403 2.52241 26.5047 3.44305 25.5466C4.32626 24.6259 4.37117 24.611 4.1092 25.367C3.8622 26.093 3.70502 27.2756 3.77987 27.9717L3.82478 28.4657L3.59274 28.563C2.92659 28.8399 2.31283 29.798 2.26044 30.6588C2.23798 30.9881 2.18559 31.1977 2.09577 31.295C1.70655 31.7366 1.60925 32.3953 1.87122 32.8967C2.35774 33.8548 3.7125 33.8773 4.24393 32.9417C4.46099 32.5599 4.46848 32.0285 4.26638 31.6318C4.12417 31.3474 3.66011 30.9582 3.4655 30.9582C3.23347 30.9582 3.44305 30.1872 3.7649 29.8504C4.1616 29.4238 4.98493 29.2516 5.449 29.4911C5.82324 29.6857 6.2873 30.3145 6.2873 30.6213C6.2873 30.6887 6.19 30.8234 6.07024 30.9282C5.50139 31.4073 5.45648 32.3054 5.97294 32.8518C6.27233 33.1662 6.5343 33.2785 6.97591 33.2785C7.76931 33.2785 8.30822 32.7321 8.30822 31.9312C8.30822 31.4447 8.15852 31.1603 7.71692 30.801C7.52231 30.6513 7.41004 30.4941 7.41004 30.3968C7.41004 30.0824 6.89358 29.1768 6.5343 28.8699C6.17503 28.548 5.52385 28.2636 5.16457 28.2636C4.97745 28.2636 4.94002 28.2337 4.89511 27.9941C4.83524 27.6573 4.91757 26.6544 5.05978 26.108C5.23942 25.4418 5.59121 24.7831 6.0403 24.2966C6.26485 24.0496 6.47443 23.8475 6.50436 23.8475C6.5343 23.8475 6.63161 24.4089 6.72143 25.0975ZM21.1598 24.2367C21.7735 24.8954 22.1777 25.7487 22.2975 26.6544L22.3499 27.0585L22.0729 27.1783C21.7211 27.343 21.2945 27.7696 21.1448 28.1289C21.0849 28.2861 21.0325 28.6229 21.0325 28.8774C21.04 30.7336 23.5624 31.3399 24.4157 29.6932C24.6702 29.2067 24.7001 28.548 24.4831 28.0765C24.3633 27.7995 23.9367 27.3579 23.6223 27.1783C23.5325 27.1259 23.4726 26.9388 23.4202 26.5421C23.3753 26.2352 23.2481 25.7038 23.1358 25.367C22.8738 24.611 22.9187 24.6259 23.8019 25.5466C24.7226 26.4972 25.3064 27.4552 25.7181 28.6603C26.0474 29.6408 26.1222 30.2471 26.1222 32.1258V33.8773H22.0056H17.8964L17.9937 33.5928C19.3784 29.7456 19.9098 28.2037 19.9098 28.0091C19.9098 27.8594 19.82 27.6648 19.6478 27.4478C19.5056 27.2681 19.3859 27.096 19.3859 27.066C19.3859 27.0436 19.558 26.9388 19.7676 26.834C19.9772 26.7367 20.2017 26.587 20.2541 26.5047C20.3065 26.4223 20.4263 25.7861 20.5236 25.0975C20.6134 24.4089 20.7107 23.8475 20.7406 23.8475C20.7631 23.8475 20.9502 24.0272 21.1598 24.2367ZM23.0609 28.1888C23.2331 28.1888 23.5025 28.5929 23.5025 28.8399C23.5025 29.1842 23.1582 29.536 22.8289 29.536C22.3424 29.536 21.9981 28.9223 22.2376 28.4807C22.3274 28.3085 22.7391 28.0989 22.8888 28.1513C22.9487 28.1738 23.0235 28.1888 23.0609 28.1888Z"/><path d="M10.3444 10.9436C10.1872 11.0484 10.1797 11.1083 10.1797 12.0888 10.1797 13.2565 10.2246 13.3687 10.7186 13.3687 11.1752 13.3687 11.2276 13.234 11.2276 12.0739 11.2276 11.1083 11.2201 11.0484 11.0629 10.9436 10.9731 10.8763 10.8084 10.8239 10.7036 10.8239 10.5988 10.8239 10.4342 10.8763 10.3444 10.9436zM16.1822 10.9436C16.0251 11.0484 16.0176 11.1083 16.0176 12.0888 16.0176 13.2565 16.0625 13.3687 16.5565 13.3687 17.0131 13.3687 17.0655 13.234 17.0655 12.0739 17.0655 11.1083 17.058 11.0484 16.9008 10.9436 16.811 10.8763 16.6463 10.8239 16.5415 10.8239 16.4367 10.8239 16.2721 10.8763 16.1822 10.9436zM11.4221 16.3701C11.2799 16.4824 11.2275 16.5871 11.2275 16.7967 11.2275 17.0213 11.2874 17.1261 11.6467 17.4704 11.8862 17.7024 12.2679 17.9644 12.5449 18.0991 12.979 18.3012 13.0913 18.3236 13.5329 18.2937 14.2514 18.2413 14.8951 17.8671 15.3517 17.2383 15.6137 16.8716 15.6287 16.6395 15.3817 16.4 15.0972 16.1081 14.8652 16.1605 14.3862 16.6171 14.1541 16.8341 13.8847 17.0512 13.7949 17.1036 13.4056 17.3057 12.9865 17.1485 12.3727 16.5797 11.9386 16.168 11.7365 16.1231 11.4221 16.3701z"/></symbol><symbol viewBox="0 0 110 104" fill="none" id="svg-icon-feature_1"><path d="M13.5156 0.255196C7.6565 1.54162 3.05905 5.7336 1.02762 11.6334L0.36473 13.563L0.300579 57.967L0.257812 102.371L0.771016 102.992L1.28422 103.613L5.17602 103.679C9.30303 103.746 10.0515 103.635 10.6288 102.748C11.142 102.016 11.0351 100.53 10.4364 99.798C9.92315 99.1992 9.859 99.177 7.33575 99.1105L4.74835 99.0217V57.1907C4.74835 11.212 4.66281 14.4281 6.05274 11.4782C7.015 9.48198 9.49548 6.93131 11.4414 5.9554C13.5156 4.91295 15.3973 4.51371 17.4715 4.64679C23.5017 5.04603 28.0136 9.48198 28.9758 15.9363L29.0614 16.5573H26.1532C22.7319 16.5573 22.0262 16.8235 21.6627 18.2652C20.9356 21.1264 17.7923 36.5413 17.7923 37.2954C17.7923 38.0274 17.9206 38.3379 18.4552 38.8702L19.0967 39.5134H31.3494C44.9707 39.5134 44.4361 39.5799 44.9279 38.0052C45.1418 37.3398 44.9493 36.1199 43.2386 28.0686C42.1695 23.0116 41.2072 18.5535 41.0789 18.1543C40.6512 16.8235 39.9242 16.5573 36.567 16.5573H33.6374L33.5091 15.4927C32.5897 8.32863 28.4626 3.02767 22.0476 0.787514C20.3155 0.18866 19.674 0.0777512 17.4715 0.0112152C15.825 -0.0331497 14.4137 0.0555801 13.5156 0.255196ZM37.3582 21.703C37.4223 21.9914 38.0852 25.0744 38.8336 28.5788L40.1808 34.9665H31.4349C25.9822 34.9665 22.7105 34.8778 22.7105 34.7447C22.7105 34.6338 23.3306 31.573 24.1004 27.9799C24.8702 24.3646 25.4903 21.3703 25.4903 21.3038C25.4903 21.2594 28.1419 21.2151 31.3708 21.2151H37.2513L37.3582 21.703Z" fill="#2E2E2E"/><path d="M30.0667 48.496C27.6718 49.0062 25.1058 51.1354 24.0794 53.4865C23.3095 55.2165 23.1385 56.7247 23.1385 61.937V66.6391L22.3473 66.7944C19.1184 67.4154 16.4882 69.8774 15.5687 73.0934C15.2694 74.1359 15.2266 76.1542 15.2266 88.1313C15.2266 103.147 15.2052 102.903 16.4027 103.458C16.809 103.657 21.4278 103.724 34.8139 103.724C50.3169 103.724 52.7546 103.679 53.2892 103.391C54.3798 102.814 54.6577 101.639 54.0162 100.375C53.3534 99.0438 53.781 99.0659 35.9686 99.0659H19.7171V95.9608V92.8556H62.591H105.465V95.9608V99.0659L88.1657 99.1103C70.9734 99.1768 70.8451 99.1768 70.2463 99.6426C69.5834 100.153 69.1985 101.35 69.4124 102.26C69.4979 102.593 69.8614 103.036 70.2463 103.28C70.9092 103.724 71.3369 103.724 89.8122 103.679L108.715 103.613L109.228 102.992L109.742 102.349L109.699 87.7986L109.635 73.2265L108.972 71.7848C107.838 69.2785 105.208 67.1492 102.771 66.7722L101.83 66.6391V61.3603C101.83 56.7247 101.787 55.9041 101.402 54.6842C100.589 51.9561 98.836 49.9821 96.27 48.8953L95.0939 48.3852L63.0187 48.363C45.3773 48.3408 30.5372 48.4073 30.0667 48.496ZM94.7304 53.2647C95.7354 53.7083 96.4197 54.3737 96.9329 55.4161C97.2964 56.1481 97.3392 56.7691 97.3392 61.4712V66.6835H95.2009H93.0625V62.9129C93.0625 58.8984 92.8914 58.0999 92.0147 57.5898C91.7367 57.4567 87.182 57.368 78.8425 57.368H66.0765L65.4564 58.0112L64.8363 58.6544V62.6689V66.6835H62.591H60.3458V63.046C60.3458 59.2089 60.2388 58.5878 59.469 57.8337C58.9772 57.368 58.8917 57.368 46.1257 57.368H33.2743L32.6327 58.0555L32.0126 58.7209L31.9485 62.7133L31.8629 66.6835H29.746H27.629V61.7152C27.629 58.61 27.7145 56.4808 27.8642 56.015C28.2491 54.8616 29.0189 53.9301 30.024 53.3978L30.9435 52.932H62.4413C90.3896 52.932 94.0248 52.9764 94.7304 53.2647ZM55.8552 64.2437V66.6835H46.1257H36.3962V64.2437V61.8039H46.1257H55.8552V64.2437ZM88.7858 64.2437V66.6835H78.9494H69.113V64.2437V61.8039H78.9494H88.7858V64.2437ZM102.407 71.4521C103.156 71.6739 103.733 72.051 104.246 72.6498C105.123 73.6701 105.465 74.7125 105.465 76.4869V77.7734H62.591H19.7171V76.0433C19.7171 73.5148 20.5511 72.2062 22.6253 71.4521C23.3309 71.186 29.5321 71.1416 62.3986 71.1194C96.4625 71.1194 101.466 71.1638 102.407 71.4521ZM105.465 85.3145V88.4196H62.591H19.7171V85.3145V82.2093H62.591H105.465V85.3145Z" fill="#2E2E2E"/><path d="M60.7091 99.5317C60.1959 99.8422 59.7041 100.907 59.7041 101.728C59.7041 102.77 60.7091 103.724 61.7997 103.724C62.7406 103.724 63.6814 103.103 63.9808 102.282C64.2588 101.55 63.8525 100.286 63.1896 99.7313C62.5909 99.2434 61.3506 99.1547 60.7091 99.5317Z" fill="#2E2E2E"/></symbol><symbol viewBox="0 0 111 104" fill="none" id="svg-icon-feature_2"><path d="M25.4487 0.12104C18.7837 1.26112 13.5919 5.79721 11.3702 12.3951C10.7622 14.2387 10.7388 14.6268 10.6452 19.4055L10.5517 24.451L11.1831 25.1301C11.5339 25.5183 12.0484 25.8821 12.3524 25.9549C12.7968 26.0762 12.9137 26.3187 13.0306 27.4831C13.3814 30.5152 14.5741 33.5231 16.2579 35.6335C17.0531 36.628 17.1466 36.8706 16.8894 37.1132C16.7023 37.283 14.7144 38.5929 12.4694 40.024C10.2243 41.4552 7.81549 43.0804 7.11391 43.6383C4.58819 45.6517 2.38988 49.0234 1.22056 52.662L0.659294 54.36L0.589136 70.2969C0.542363 81.6008 0.589136 86.4037 0.776226 86.7433C0.916543 87.0344 1.38427 87.471 1.78184 87.7136C2.50681 88.1744 3.06808 88.1987 15.2289 88.1987H27.9043V94.8694C27.9043 100.376 27.9745 101.686 28.2551 102.268C29.0268 103.796 27.4834 103.723 55.5001 103.723C83.5169 103.723 81.9734 103.796 82.7451 102.268C83.0257 101.686 83.0959 100.376 83.0959 94.8694V88.1987H95.7946C107.932 88.1987 108.493 88.1744 109.218 87.7136C109.616 87.471 110.084 87.0344 110.224 86.7433C110.411 86.4037 110.458 81.6008 110.411 70.2969L110.341 54.36L109.78 52.662C108.61 49.0234 106.412 45.6517 103.886 43.6383C103.185 43.0804 100.776 41.4552 98.5308 40.024C96.2858 38.5929 94.2979 37.283 94.1108 37.1132C93.8536 36.8706 93.9471 36.628 94.7423 35.6335C96.4261 33.5231 97.6188 30.5152 97.9696 27.4831C98.0865 26.3187 98.2034 26.0762 98.6478 25.9549C98.9518 25.8821 99.4663 25.5183 99.8171 25.1301L100.449 24.451L100.355 19.4055C100.261 14.6268 100.238 14.2387 99.63 12.3951C97.6188 6.42789 93.1988 2.13438 87.282 0.484901C85.224 -0.0972672 80.7339 -0.0972748 78.6525 0.46064C77.8106 0.678955 76.1268 1.38241 74.9107 2.01309C73.0398 2.95912 72.3616 3.49277 70.5609 5.33632C68.7835 7.20412 68.269 7.90758 67.3569 9.84815C66.1175 12.4437 65.6497 14.1659 65.4159 16.7614L65.2522 18.5565L64.3167 17.9258C61.5338 16.1065 56.9501 15.1362 53.3953 15.6213C51.0801 15.9609 48.2036 16.9312 46.6835 17.9258L45.748 18.5565L45.5843 16.7614C45.3505 14.1659 44.8827 12.4437 43.6433 9.84815C42.7312 7.90758 42.2167 7.20412 40.4393 5.33632C38.6386 3.49277 37.9604 2.95912 36.0895 2.01309C34.8734 1.38241 33.2364 0.703209 32.4646 0.509155C30.7808 0.0482712 27.0624 -0.14579 25.4487 0.12104ZM32.3009 6.16106C34.1017 6.86452 35.6685 8.00461 37.0717 9.58132C39.2934 12.0555 40.1119 14.1902 40.416 18.2654L40.5797 20.5213H40.0184C39.0362 20.5213 36.7209 19.7936 35.6685 19.1629C34.3589 18.3624 33.3767 16.9312 33.1662 15.5001C32.9324 13.8991 32.0437 13.0016 30.6405 13.0016C29.705 13.0016 29.3776 13.1714 27.6704 14.5783C24.5834 17.1253 21.894 18.605 18.2224 19.7693C15.7201 20.5698 15.7434 20.5698 15.7434 18.5079C15.7668 12.6377 19.1578 7.76203 24.5133 5.967C26.7584 5.21503 30.0792 5.2878 32.3009 6.16106ZM86.5103 5.967C90.6964 7.37392 93.9237 10.9397 94.906 15.209C95.0931 16.058 95.2568 17.6104 95.2568 18.6777V20.5941L94.2278 20.4485C91.2577 20.0119 88.428 17.9743 88.1239 15.9852C87.7732 13.8263 87.0248 13.0016 85.3644 13.0016C84.5458 13.0016 84.3821 13.0986 81.529 15.3545C78.863 17.4892 74.7938 19.454 71.4495 20.2545L70.4205 20.4728L70.5842 18.1441C70.6778 16.8342 70.9584 15.1362 71.1923 14.3115C72.2447 10.7457 75.3784 7.39818 78.8864 6.08829C80.9911 5.28781 84.3588 5.23929 86.5103 5.967ZM30.7808 21.8069C32.3711 23.4807 34.3589 24.6693 36.4403 25.2514C37.1886 25.4455 37.8435 25.6638 37.9136 25.7366C37.9838 25.8093 37.9136 26.5856 37.7499 27.4831C36.7443 33.1107 32.0203 36.7008 26.6181 35.9973C22.4553 35.4394 18.8772 31.6068 18.3393 27.192C18.2224 26.246 18.1522 25.494 18.1756 25.494C18.1756 25.4697 19.0409 25.2272 20.0699 24.9118C22.2448 24.2811 26.0802 22.4376 27.9277 21.152C28.6059 20.6668 29.2139 20.2787 29.2373 20.2787C29.2841 20.2787 29.9623 20.9579 30.7808 21.8069ZM85.3644 21.5401C87.1183 23.4807 89.5739 24.8876 92.2399 25.4697C92.8246 25.591 92.8246 25.6153 92.6375 27.2405C92.1464 31.6068 88.5215 35.4394 84.3821 35.9973C78.6993 36.7493 73.8116 32.7711 73.1333 26.7796L72.993 25.494L74.5131 25.0574C76.7816 24.4509 79.8218 23.044 82.1137 21.5886C83.2362 20.8851 84.1717 20.303 84.1951 20.303C84.2184 20.2787 84.7563 20.8366 85.3644 21.5401ZM58.7976 21.3945C64.27 23.0683 67.8714 28.2351 67.8948 34.3964V36.0459H66.6553C63.4748 36.0459 58.8677 35.0756 56.342 33.887C54.3776 32.9652 53.4655 32.0919 53.1381 30.8791C52.9978 30.3212 52.6236 29.5692 52.2728 29.1811C51.7817 28.6474 51.4777 28.5261 50.5188 28.5261C48.9987 28.5261 48.1334 29.3751 47.8996 31.0974C47.806 31.7523 47.5722 32.5771 47.4084 32.9167C47.0109 33.7657 45.6311 35.0028 44.5787 35.4394C43.1989 36.0459 43.1054 35.9731 43.1054 34.2751C43.1288 26.8281 48.4842 21.0307 55.4066 21.0064C56.6694 21.0064 58.0258 21.152 58.7976 21.3945ZM53.2784 38.3745C55.3598 39.5874 59.1717 40.6062 64.2466 41.2611L65.3925 41.4309L65.2288 42.7893C64.9014 45.9428 62.5394 49.2417 59.5225 50.7699C58.3065 51.4006 57.979 51.4491 55.5001 51.4491C53.0212 51.4491 52.6938 51.4006 51.4777 50.7699C48.3439 49.169 46.052 45.8943 45.7714 42.5953L45.6311 40.9943L47.3383 40.1211C48.3205 39.6116 49.5366 38.7384 50.0979 38.132C51.1269 37.0404 51.1503 37.0161 51.7349 37.4285C52.0857 37.6468 52.7639 38.0835 53.2784 38.3745ZM38.5217 40.6305C38.7789 40.9215 39.3168 41.2611 39.7378 41.4309C40.4861 41.6978 40.5329 41.7948 40.5329 42.8379C40.5329 45.2878 41.9127 48.9264 43.69 51.1823L44.6956 52.4922L41.1643 54.7481C35.9024 58.0713 34.9436 58.7748 33.4702 60.2545L32.1606 61.5644L34.9903 49.7511C37.4693 39.5146 37.8668 38.0835 37.9604 39.0295C38.0306 39.6359 38.2878 40.3636 38.5217 40.6305ZM76.0566 49.9695L78.8396 61.5886L77.413 60.1089C76.4542 59.1386 74.3494 57.6105 71.1455 55.5243L66.3046 52.3952L67.3803 50.964C69.1577 48.514 70.4673 45.0452 70.4673 42.7166C70.4673 41.7948 70.5375 41.6978 71.2858 41.4067C72.385 40.9943 73.0398 40.0725 73.0632 38.8597C73.0632 38.326 73.11 37.9622 73.1567 38.1077C73.2269 38.229 74.5131 43.5656 76.0566 49.9695ZM28.0212 41.5037C28.793 41.5037 29.9155 41.4309 30.5002 41.3339L31.5759 41.1641L29.8454 48.4655C28.9099 52.4922 28.0914 55.8154 28.068 55.8397C28.0446 55.8882 27.2027 52.5892 26.2439 48.5383L24.4665 41.1641L25.5423 41.3339C26.1269 41.4309 27.2495 41.5037 28.0212 41.5037ZM82.862 41.4795C84.0781 41.5037 85.3878 41.4067 85.7385 41.3097C86.5337 41.0913 86.6506 40.4121 84.5225 49.3873L82.9556 56.058L81.2484 49.0234C80.3363 45.1423 79.5178 41.7948 79.4476 41.5522C79.3307 41.1884 79.4009 41.1399 79.9855 41.3097C80.3363 41.4067 81.646 41.4795 82.862 41.4795ZM22.5255 55.6214L25.5657 68.3078V75.585V82.8621H15.6265H5.68734V69.9331C5.68734 55.6456 5.7575 54.9422 7.13729 52.0556C8.35338 49.5571 10.1307 47.9076 14.9249 44.8755C18.3861 42.6438 19.1578 42.2557 19.2982 42.571C19.3917 42.7893 20.8416 48.6596 22.5255 55.6214ZM96.7067 45.1908C99.5832 47.0586 100.94 48.0774 101.945 49.2175C103.465 50.9155 104.658 53.3654 105.056 55.5486C105.219 56.4704 105.313 61.6129 105.313 69.9331V82.8621H95.3737H85.4345V75.585V68.3321L88.4747 55.5243C90.1586 48.4898 91.5617 42.571 91.6319 42.4012C91.7722 42.0131 91.7254 41.9889 96.7067 45.1908ZM54.7985 56.8342C56.2719 56.907 57.9557 56.8342 58.5403 56.6887C59.1016 56.5674 59.6161 56.4704 59.6395 56.5189C59.6862 56.5674 59.429 57.8045 59.0782 59.3084L58.4468 62.001H55.5001H52.5534L52.0155 59.6966C51.7115 58.4352 51.4309 57.1496 51.3373 56.8585C51.2438 56.4218 51.2906 56.3733 51.6648 56.5431C51.8986 56.6402 53.3252 56.7857 54.7985 56.8342ZM49.5834 72.092L52.9042 85.8943L52.9276 92.1284V98.3867H42.9651H33.0259L33.0961 84.8755C33.1896 72.6984 33.2364 71.1944 33.6105 70.0058C34.5928 66.8767 36.3467 64.4267 38.8958 62.6559C39.5974 62.1708 40.2523 61.7584 40.3458 61.7584C40.4627 61.7584 40.5329 64.8633 40.5329 68.6717V75.6092L39.6676 76.3855C37.4693 78.3746 37.3991 82.0616 39.5039 84.1235C41.7256 86.2824 45.4674 85.9185 47.198 83.3715C48.6011 81.3097 48.1568 77.6468 46.3561 76.2642L45.6779 75.7305V66.9009C45.6779 60.1332 45.748 58.0956 45.9585 58.1684C46.1222 58.2411 47.7125 64.3297 49.5834 72.092ZM65.3223 65.4698V72.7954L64.27 73.3776C62.9603 74.081 61.6975 75.5122 61.0193 77.0162C60.5749 78.035 60.5282 78.6414 60.458 83.323C60.3644 88.7809 60.4814 89.5814 61.4402 90.2606C62.0015 90.6729 63.7321 90.7457 64.4103 90.3818C65.3925 89.8239 65.5562 88.9507 65.5562 84.3176C65.5562 79.4419 65.6965 78.8112 66.9828 78.132C68.3625 77.38 70.0464 78.3988 70.327 80.1453C70.3972 80.6305 70.4673 82.8864 70.4673 85.118V89.2175L71.1455 89.921C71.7302 90.5031 72.0342 90.6244 72.9696 90.6244C73.9519 90.6244 74.2325 90.5031 74.8172 89.8724L75.4954 89.1447V83.7596C75.4954 78.4473 75.4954 78.3503 74.8639 76.9919C74.1623 75.4152 72.7592 73.9112 71.4261 73.2806L70.4673 72.8439V67.289C70.4673 64.2569 70.5375 61.7584 70.6544 61.7584C70.748 61.7584 71.4028 62.1708 72.1043 62.6559C74.6535 64.4267 76.4074 66.8767 77.3896 70.0058C77.7638 71.1944 77.8106 72.6984 77.9041 84.8755L77.9743 98.3867H68.0351H58.0726V92.2011V86.0156L61.3467 72.3588C65.0417 57.0525 64.7611 58.1199 65.0885 58.1199C65.2522 58.1199 65.3223 60.5698 65.3223 65.4698ZM57.0904 67.6286C57.0202 67.7984 56.6694 69.2296 56.2952 70.7821C55.9444 72.3588 55.5703 73.6444 55.5001 73.6444C55.4299 73.6444 55.0558 72.3588 54.705 70.7821C54.3308 69.2296 53.98 67.7984 53.9098 67.6286C53.8397 67.4103 54.2372 67.3376 55.5001 67.3376C56.763 67.3376 57.1605 67.4103 57.0904 67.6286Z" fill="#2E2E2E"/></symbol><symbol viewBox="0 0 99 104" fill="none" id="svg-icon-feature_3"><g clip-path="url(#hclip0_804_6382)"><path d="M13.329 93.9733C10.2295 91.9706 8.30273 88.4922 8.30273 84.7959V80.1932H29.9435V84.7959C29.9435 88.5203 28.0447 92.0057 24.9173 93.9733H13.329Z" fill="#A071EB"/><path d="M78.5939 81.7884H47.124V84.016H78.5939V81.7884zM78.5935 70.8472H29.9297V73.0748H78.5935V70.8472zM78.5935 37.6161H29.9297V39.8437H78.5935V37.6161zM78.5935 48.761H29.9297V50.9886H78.5935V48.761zM78.5935 59.899H29.9297V62.1266H78.5935V59.899z" fill="#2E2E2E"/><path d="M30.4248 22.9153H64.8964V30.1603H30.4248V22.9153Z" fill="#A071EB"/><path d="M22.6963 68.9851V69.0132C22.9895 71.4797 24.9372 73.0749 25.1885 73.2013L25.9773 73.6019 27.9459 71.0932 27.1012 70.4186C27.0943 70.4116 26.1867 69.6597 26.082 68.6478V68.6267C26.0052 68.0294 26.2356 67.404 26.7731 66.7786L26.8011 66.7434C27.9739 65.2678 28.4486 63.8131 28.2531 62.3023 27.9599 59.9272 26.0401 58.4585 25.7609 58.3179L24.9302 57.9034 23.0593 60.5245 23.904 61.1639C23.911 61.171 24.7626 61.8385 24.8604 62.731V62.7521C24.9372 63.3072 24.6998 63.9045 24.1413 64.5861 23.0384 65.9705 22.5497 67.4602 22.6963 68.9851zM16.3303 68.9851V69.0132C16.6235 71.4797 18.5712 73.0749 18.8225 73.2013L19.6114 73.6019 21.58 71.0932 20.7353 70.4186C20.7283 70.4116 19.8208 69.6597 19.7161 68.6478V68.6267C19.6393 68.0294 19.8696 67.404 20.4072 66.7786L20.4351 66.7434C21.6079 65.2678 22.0826 63.8131 21.8871 62.3023 21.5939 59.9272 19.6742 58.4585 19.3949 58.3179L18.5642 57.9034 16.6933 60.5245 17.538 61.1639C17.545 61.171 18.3967 61.8385 18.4944 62.731V62.745C18.5712 63.3002 18.3338 63.8904 17.7824 64.565 16.6933 65.9072 16.1837 67.4391 16.3303 68.9851zM10.0056 68.9851V69.0132C10.2988 71.4797 12.2465 73.0749 12.4978 73.2013L13.2867 73.6019 15.2622 71.0862 14.4036 70.4116C14.3966 70.4046 13.4891 69.6527 13.3844 68.6408V68.6197C13.3076 68.0224 13.538 67.397 14.0755 66.7716L14.1034 66.7364C15.2762 65.2607 15.7509 63.8061 15.5554 62.2953 15.2622 59.9201 13.3425 58.4515 13.0633 58.3109L12.2325 57.8963 10.3617 60.5174 11.2064 61.1569C11.2133 61.1639 12.065 61.8315 12.1627 62.7239V62.738C12.2395 63.2931 12.0022 63.8904 11.4437 64.5721 10.3547 65.9705 9.85904 67.4602 10.0056 68.9851z" fill="#2E2E2E"/><path d="M87.5147 27.3565C86.1045 27.9608 84.5478 28.263 82.8794 28.263C75.9822 28.263 70.3696 22.6132 70.3696 15.6704C70.3696 13.8504 70.7326 12.1147 71.4586 10.5125L72.5546 8.0882H17.5522V57.6714H20.9519V11.4682H67.5144C67.1514 12.8104 66.9699 14.2088 66.9699 15.6283C66.9699 24.4613 74.1114 31.643 82.8794 31.643C84.1289 31.643 85.3436 31.5095 86.4955 31.2425V96.7491H31.9049C33.8246 94.7183 35.2836 92.2518 36.1283 89.5463H39.556C41.3012 89.5463 42.9347 88.8647 44.1564 87.635C45.378 86.4052 46.0552 84.7539 46.0552 83.0041C46.0552 79.3922 43.1371 76.4549 39.549 76.4549H36.9591V73.9883H0.553711V84.0793C0.553711 90.0101 3.38795 95.5545 8.16288 98.9908C7.62535 100.017 7.3531 101.036 7.3531 102.026V103.72H30.2016V102.026C30.2016 101.408 30.1038 100.797 29.9014 100.178H89.3088V99.581H89.8603V26.3446L87.5147 27.3565ZM39.556 86.1312H36.8474C36.9242 85.4425 36.966 84.7609 36.966 84.0793V79.8841H39.556C41.2383 79.8841 42.6624 81.3176 42.6624 83.0111C42.6555 84.6976 41.2383 86.1312 39.556 86.1312ZM26.1666 100.298H11.3182C11.3392 100.256 11.3671 100.221 11.395 100.178H25.9432H26.0968C26.1177 100.213 26.1387 100.256 26.1666 100.298ZM3.91152 77.4105H33.5594V84.0793C33.5594 89.2231 30.8787 94.0648 26.5575 96.7561H25.9292H10.9552C6.60614 94.0577 3.91152 89.209 3.91152 84.0793V77.4105Z" fill="#2E2E2E"/><path d="M82.8867 0C74.3002 0 67.3193 7.0271 67.3193 15.6704C67.3193 24.3138 74.3002 31.3409 82.8867 31.3409C91.4732 31.3409 98.4541 24.3138 98.4541 15.6704C98.4541 7.0271 91.4662 0 82.8867 0ZM82.8867 28.6144C75.7941 28.6144 70.0279 22.81 70.0279 15.6704C70.0279 8.5309 75.7941 2.72652 82.8867 2.72652C89.9793 2.72652 95.7455 8.5309 95.7455 15.6704C95.7455 22.81 89.9723 28.6144 82.8867 28.6144Z" fill="#2E2E2E"/><path d="M82.8862 26.4641C76.75 26.4641 71.7656 21.4467 71.7656 15.2699C71.7656 9.09306 76.7849 4.07571 82.8862 4.07571C89.0224 4.07571 94.0067 9.09306 94.0067 15.2699C94.0067 21.4467 89.0224 26.4641 82.8862 26.4641Z" fill="#C63436"/><path d="M90.6839 9.47253L79.8775 19.9991L76.0729 15.4596L74.3486 16.8299L79.7239 23.2457L92.1988 11.0677L90.6839 9.47253Z" fill="#2E2E2E"/></g><defs><clipPath id="hclip0_804_6382"><path fill="#fff" transform="translate(.554)" d="M0 0H97.893V103.72H0z"/></clipPath></defs></symbol><symbol viewBox="0 0 100 104" fill="none" id="svg-icon-feature_4"><path d="M48.5537.526742C48.0654 1.05346 48.0459 1.1345 48.0459 3.50475 48.0459 5.89526 48.0654 5.97629 48.5732 6.52328 49.0029 6.98922 49.2568 7.09052 49.999 7.09052 50.7412 7.09052 50.9951 6.98922 51.4248 6.52328 51.9326 5.97629 51.9521 5.89526 51.9521 3.50475 51.9521 1.1345 51.9326 1.05346 51.4443.526742 51.0342.101312 50.7412.0000190735 49.999.0000190735 49.2568.0000190735 48.9639.101312 48.5537.526742zM38.0272 4.3759C37.3631 5.06469 37.1873 6.05736 37.5584 6.80693 37.7147 7.13107 38.4764 8.00218 39.2186 8.75175 40.4295 9.98752 40.6639 10.1293 41.367 10.1293 42.6951 10.1293 43.6522 8.91382 43.3982 7.49572 43.3397 7.2121 42.617 6.28021 41.7967 5.40909 40.3514 3.93021 40.2342 3.84918 39.4139 3.84918 38.7303 3.84918 38.4178 3.97073 38.0272 4.3759zM59.4718 4.21383C58.4952 4.86211 56.6983 6.969 56.5616 7.61727 56.2686 8.95434 57.2061 10.1293 58.5538 10.1293 59.3546 10.1293 59.5108 10.028 60.8585 8.69098 62.4991 7.02977 62.8507 6.25995 62.4405 5.22676 62.0889 4.33538 61.6983 4.03151 60.7999 3.93021 60.2725 3.84918 59.8819 3.95047 59.4718 4.21383zM46.9914 11.2435C44.3156 12.0336 41.5226 14.2621 40.1554 16.6931 39.3937 18.0302 39.1984 18.2125 38.9445 17.8073 38.8859 17.6858 38.3 17.3211 37.6554 17.0172 32.7531 14.6065 27.089 17.0983 25.3898 22.406 24.9992 23.6013 24.9797 24.047 25.0382 28.0176L25.0968 32.3327 25.8195 33.8521C26.3078 34.8853 26.9132 35.7361 27.6359 36.4452 28.2218 37.0327 28.7101 37.5797 28.7101 37.6607 28.7101 37.762 27.7531 38.0861 26.5617 38.39 25.3898 38.6939 23.8859 39.2004 23.2414 39.5245 20.9367 40.659 18.9054 43.3939 18.3586 46.1085 18.2218 46.7365 18.1632 48.418 18.2023 50.0184 18.3 54.1309 18.2023 54.0904 24.7648 54.0904H29.1007V58.3852C29.1007 62.1736 29.1593 62.7611 29.4523 63.1257 30.1164 63.9766 30.3898 64.0171 37.089 64.0171H43.5148L44.1007 63.5106C44.8625 62.8624 45.0382 62.052 44.6476 61.0999 44.2765 60.1882 43.4172 59.7628 41.8937 59.7628H40.8195V57.2507C40.8195 54.8197 40.8 54.7387 40.3117 54.2119 39.5695 53.4624 38.1632 53.4624 37.4211 54.2119 36.9328 54.7387 36.9132 54.8197 36.9132 57.2507V59.7628H35.0382 33.1632L33.2414 56.1568 33.3 52.5507 33.964 51.1529C34.7453 49.4917 36.0734 48.0533 37.4797 47.324 38.3586 46.8378 43.5539 45.3792 44.3156 45.3792 44.5304 45.3792 45.1945 46.7568 46.4445 49.7145 47.4601 52.1051 48.4562 54.2322 48.6711 54.4348 48.9445 54.6779 49.3742 54.7994 50.0382 54.7994 50.839 54.7994 51.0929 54.6982 51.425 54.293 51.6593 54.0094 52.6359 51.9025 53.5929 49.6335 54.55 47.3443 55.3703 45.44 55.4093 45.3995 55.5656 45.1969 61.1125 46.6555 62.2453 47.2025 63.8273 47.9521 65.1945 49.3702 66.0343 51.1529L66.6984 52.5507 66.757 56.1568 66.8351 59.7628H64.9601 63.0851V57.2507C63.0851 54.8197 63.0656 54.7387 62.5773 54.2119 61.8351 53.4624 60.4289 53.4624 59.6867 54.2119 59.1984 54.7387 59.1789 54.8197 59.1789 57.2507V59.7628H58.007C56.3859 59.7628 55.5265 60.168 55.1554 61.0999 54.7648 62.052 54.9406 62.8624 55.7023 63.5106L56.2882 64.0171H62.8117C69.6281 64.0171 69.882 63.9968 70.5461 63.1257 70.839 62.7611 70.8976 62.1736 70.8976 58.3852V54.0904H75.2531C81.8742 54.0904 81.8351 54.1107 81.8351 49.6538 81.8351 45.3387 81.2687 43.5559 79.1984 41.4085 77.7336 39.8689 76.5617 39.2409 73.6711 38.4508 72.4015 38.1266 71.3468 37.8025 71.3078 37.762 71.2687 37.7215 71.7765 37.0935 72.4406 36.3844 73.1828 35.5538 73.8859 34.5611 74.2765 33.69L74.9015 32.3124 74.9601 28.0784C74.9992 25.1409 74.9601 23.5405 74.7843 22.9125 74.2179 20.684 72.8312 18.7392 70.9953 17.5237 68.2023 15.6802 64.3742 15.6396 61.6593 17.4224 61.1515 17.7465 60.6828 18.0302 60.6437 18.0302 60.6047 18.0302 60.2922 17.5034 59.9601 16.8349 58.8078 14.5862 56.3664 12.4793 53.7882 11.5069 52.3234 10.9397 48.4953 10.7979 46.9914 11.2435zM53.1632 15.8827C54.5109 16.5715 56.0929 18.2327 56.7375 19.6914 57.0109 20.2789 57.2257 20.8866 57.2257 21.0082 57.2257 21.15 56.5422 20.8461 55.7218 20.3194 54.6867 19.6914 53.9054 19.3672 53.3 19.2862 52.4406 19.2052 52.3625 19.2457 51.1515 20.3599 49.0617 22.3047 46.9914 23.0745 43.7101 23.0948 43.0851 23.0948 42.5773 23.034 42.5773 22.9327 42.5773 22.1021 43.0656 20.1978 43.4757 19.3672 44.3547 17.6047 45.5461 16.4905 47.4406 15.6599 48.3781 15.2547 48.7882 15.194 50.2922 15.2547 51.7179 15.3155 52.2648 15.4371 53.1632 15.8827zM35.2531 20.603C36.2297 20.9271 37.8898 22.4263 37.8898 22.953 37.8898 23.7228 34.1593 24.7155 31.2101 24.7155 28.8273 24.7155 28.8273 24.7155 29.4914 23.2366 30.0578 22.0008 31.0343 21.0892 32.2648 20.6435 33.5539 20.1776 34.0617 20.1776 35.2531 20.603zM68.3 20.8461C69.257 21.3526 70.214 22.3857 70.5851 23.3379 71.1515 24.7155 71.132 24.7155 68.7882 24.7155 65.8976 24.7155 62.1086 23.7228 62.1086 22.953 62.1086 22.8112 62.4992 22.2845 62.9679 21.778 64.4132 20.2789 66.5422 19.9142 68.3 20.8461zM55.5851 25.2625L57.4797 26.3969 57.382 28.8077C57.2843 30.9551 57.2257 31.3198 56.6789 32.4543 55.9367 34.0344 54.6281 35.412 53.1632 36.1818 52.1476 36.7085 51.8547 36.7693 50.0968 36.7693 48.3586 36.7693 48.007 36.7085 46.9523 36.2021 44.1789 34.865 42.5773 31.9883 42.5773 28.3012V27.3491H43.7101C47.2062 27.3491 50.2531 26.478 52.3429 24.9181 52.9289 24.4724 53.4757 24.1077 53.5539 24.1077 53.632 24.1077 54.5304 24.6344 55.5851 25.2625zM38.4757 29.3547C38.4757 30.712 38.3976 31.1172 37.9289 32.0288 36.3859 35.1081 32.7336 35.6956 30.4289 33.2241 29.4523 32.1706 29.1007 31.2793 29.1007 29.8206V28.9698H31.4054C33.6515 28.9698 36.8351 28.4633 37.6359 27.9771 38.3781 27.5314 38.4757 27.6935 38.4757 29.3547zM63.4172 28.281C64.8429 28.7267 65.6437 28.828 68.1242 28.9293L71.1125 29.0103 70.9953 29.9624C70.8 31.5224 70.3312 32.5353 69.4328 33.4064 67.6945 35.0676 65.3703 35.2094 63.4562 33.7305 62.1867 32.7784 61.6398 31.5629 61.5617 29.4155 61.5226 28.5038 61.5422 27.7543 61.6007 27.7543 61.6593 27.7543 62.4797 27.9974 63.4172 28.281zM34.7648 39.7068C34.7648 40.7197 35.6047 41.4693 37.3039 41.8947L38.7492 42.2594 37.3039 42.7456C35.6632 43.2926 33.3976 44.7715 32.3234 46.0072 31.464 46.9999 30.0773 49.1878 30.0773 49.5727 30.0773 49.7753 29.3156 49.8361 26.1711 49.8361H22.2648V48.5395C22.2648 46.3719 23.0656 44.6904 24.6086 43.637 25.0773 43.3128 26.4445 42.8469 28.3976 42.3607 30.0773 41.9353 31.6593 41.4288 31.9328 41.2465 32.2453 41.0439 32.5187 40.5779 32.6554 40.0107L32.8898 39.0991H33.8273C34.7453 39.0991 34.7648 39.1193 34.7648 39.7068zM67.3625 40.0107C67.4992 40.5779 67.7531 41.0439 68.0656 41.2465 68.3195 41.4288 69.9015 41.915 71.5812 42.3404 74.8429 43.171 75.7609 43.6167 76.6593 44.8727 77.4211 45.8857 77.714 46.8986 77.7336 48.4585V49.8361H73.8664 69.9992L69.7648 49.1676C69.3742 48.0939 67.675 45.8654 66.4836 44.893 65.2531 43.9003 63.4367 42.9279 62.1086 42.543L61.2297 42.2797 62.6945 41.8947C64.3937 41.4491 65.2336 40.7197 65.2336 39.7068 65.2336 39.1193 65.2531 39.0991 66.1906 39.0991H67.1476L67.3625 40.0107zM52.1476 41.7529C52.1476 42.3404 50.2336 47.2025 49.9992 47.2025 49.7843 47.2025 47.8312 42.2391 47.8507 41.6922V41.1452H49.9992 52.1476V41.7529z" fill="#2E2E2E"/><path d="M4.60871 31.9275C2.63605 32.5555 1.09309 34.0546.389961 36.0197-.000664011 37.0934-.0201953 37.4378.0383985 55.3869L.0969922 73.6399.643867 75.4226C.936836 76.395 1.48371 77.8536 1.87434 78.664 2.69465 80.3657 6.69855 86.3622 7.40168 86.9295 8.14387 87.5372 9.27668 87.4359 9.99934 86.7066 10.5267 86.1394 10.5853 85.9773 10.5071 85.1265 10.429 84.3161 10.1556 83.7894 8.74934 81.7433 6.34699 78.2385 5.74152 77.2054 5.11652 75.5239 3.98371 72.5459 4.00324 72.87 4.00324 54.5968 4.00324 38.7141 4.02277 37.7417 4.3548 37.215 4.80402 36.4856 5.80012 35.8576 6.50324 35.8576 7.24543 35.8576 8.08527 36.3438 8.57355 37.0326 8.94465 37.5796 8.96418 37.9645 9.0423 51.5783 9.1009 63.936 9.15949 65.6782 9.45246 66.8532 9.92121 68.6765 10.9759 70.8644 12.0696 72.2825 13.7298 74.4502 22.4993 83.8907 23.0267 84.0933 24.0814 84.5187 25.3314 83.8502 25.6829 82.6954 25.9954 81.6015 25.6243 81.095 20.5657 75.5036 17.8118 72.4649 15.4486 69.7097 15.3118 69.345 14.9407 68.4334 14.9798 67.5825 15.429 66.6304 15.9564 65.5769 16.8353 65.03 18.0071 65.03 18.847 65.03 19.1986 65.2123 22.1868 67.2787 27.0306 70.6011 28.6321 71.8976 30.4681 73.883 32.265 75.8075 33.5345 77.651 34.6478 79.9605 36.1321 83.0601 36.4642 84.2959 38.5736 94.7695 39.3939 98.801 40.1361 102.326 40.2337 102.589 40.4876 103.319 41.1907 103.724 42.1478 103.724 43.0853 103.724 43.8275 103.136 44.0618 102.225 44.179 101.698 41.4251 87.517 40.5071 83.9717 39.5306 80.1631 37.8314 76.4761 35.7806 73.6399 34.5111 71.8774 31.972 69.2235 30.2728 67.8864 27.6165 65.7593 21.015 61.2821 20.1946 61.0188 19.1204 60.6946 16.8743 60.7149 15.7806 61.0593 15.2923 61.2011 14.4915 61.6265 14.0032 61.9709L13.1048 62.6192 13.0462 49.4916 12.9876 36.3641 12.5384 35.493C11.972 34.399 10.8978 33.1632 10.0384 32.596 8.55402 31.6439 6.34699 31.3805 4.60871 31.9275zM91.5622 31.9072C89.863 32.3934 88.3982 33.6697 87.4607 35.493L87.0114 36.3641 86.9528 49.4916 86.8943 62.6192 85.9958 61.9709C85.5075 61.6265 84.7068 61.2011 84.2185 61.0593 83.1247 60.7149 80.8786 60.6946 79.8044 61.0188 78.9841 61.2821 72.3825 65.7593 69.7263 67.8864 64.7068 71.8571 61.1911 77.4079 59.4919 83.9717 58.5739 87.517 55.82 101.698 55.9372 102.225 56.1716 103.136 56.9138 103.724 57.8513 103.724 58.8083 103.724 59.5114 103.319 59.7653 102.589 59.863 102.326 60.6052 98.801 61.4255 94.7695 63.5349 84.2959 63.8669 83.0601 65.3513 79.9605 66.4646 77.651 67.7341 75.8075 69.531 73.883 71.3669 71.8976 72.9685 70.6011 77.8122 67.2787 80.8005 65.2123 81.1521 65.03 81.9919 65.03 83.1638 65.03 84.0427 65.5769 84.57 66.6304 85.0193 67.5825 85.0583 68.4334 84.6872 69.345 84.5505 69.7097 82.1872 72.4649 79.4333 75.5036 74.3747 81.095 74.0036 81.6015 74.3161 82.6954 74.6677 83.8502 75.9177 84.5187 76.9724 84.0933 77.4997 83.8907 86.2693 74.4502 87.9294 72.2825 89.0232 70.8644 90.0778 68.6765 90.5466 66.8532 90.8396 65.6782 90.8982 63.936 90.9568 51.5783 91.0349 37.9645 91.0544 37.5796 91.4255 37.0326 91.9138 36.3438 92.7536 35.8576 93.4958 35.8576 94.1989 35.8576 95.195 36.4856 95.6443 37.215 95.9763 37.7417 95.9958 38.7141 95.9958 54.6981 95.9958 73.2752 96.0153 72.8093 94.7849 75.848 94.1013 77.5498 93.6521 78.2588 85.3708 90.3532L78.0857 100.989 78.1833 101.901C78.32 103.096 78.9841 103.724 80.156 103.724 80.6052 103.724 81.1325 103.602 81.3083 103.46 81.9333 102.995 97.07 80.7303 97.9294 78.9881 98.4177 78.036 99.0622 76.4558 99.3552 75.4429L99.9021 73.6399 99.9607 55.3869C100.019 37.4378 99.9997 37.0934 99.6091 36.0197 98.4177 32.7176 94.9411 30.9348 91.5622 31.9072zM49.2178 59.9856C48.4561 60.2894 48.0459 60.9782 48.0459 61.9506 48.0459 62.6597 48.1631 62.9433 48.6123 63.4295 49.8623 64.7261 51.9521 63.8347 51.9521 61.9912 51.9521 60.9782 51.5225 60.2692 50.7412 59.9856 50.0186 59.7222 49.8623 59.7222 49.2178 59.9856z" fill="#2E2E2E"/><path d="M11.874 89.6644C11.1709 90.0493 10.9365 90.5355 10.9365 91.5687 10.9365 92.2372 11.0537 92.5411 11.5029 93.007 12.7725 94.3036 14.8428 93.4122 14.8428 91.5687 14.8428 90.5152 14.5889 90.029 13.8662 89.6441 13.1631 89.2592 12.5576 89.2592 11.874 89.6644zM16.2497 95.4381C15.156 95.7622 14.531 97.2613 15.0583 98.3148 15.5661 99.3075 18.5739 103.481 18.8669 103.602 19.0232 103.663 19.5114 103.724 19.9216 103.724 20.9958 103.724 21.6989 103.055 21.8161 101.901 21.9138 101.029 21.8552 100.888 20.2146 98.4971 18.6911 96.2484 17.656 95.1747 17.0896 95.2355 16.9919 95.2355 16.6013 95.3368 16.2497 95.4381z" fill="#2E2E2E"/></symbol><symbol viewBox="0 0 20 27" fill="none" id="svg-icon-location"><path d="M10.0003 0.666748C4.84033 0.666748 0.666992 4.84008 0.666992 10.0001C0.666992 15.5601 6.56033 23.2267 8.98699 26.1467C9.52033 26.7867 10.4937 26.7867 11.027 26.1467C13.4403 23.2267 19.3337 15.5601 19.3337 10.0001C19.3337 4.84008 15.1603 0.666748 10.0003 0.666748ZM10.0003 13.3334C9.11627 13.3334 8.26842 12.9822 7.6433 12.3571C7.01818 11.732 6.66699 10.8841 6.66699 10.0001C6.66699 9.11603 7.01818 8.26818 7.6433 7.64306C8.26842 7.01794 9.11627 6.66675 10.0003 6.66675C10.8844 6.66675 11.7322 7.01794 12.3573 7.64306C12.9825 8.26818 13.3337 9.11603 13.3337 10.0001C13.3337 10.8841 12.9825 11.732 12.3573 12.3571C11.7322 12.9822 10.8844 13.3334 10.0003 13.3334V13.3334Z" fill="#FAFBFC"/></symbol><symbol viewBox="0 0 256 256" id="svg-icon-phone"><path d="M153.62012,38.45117a6.00483,6.00483,0,0,1,7.3457-4.248,86.16039,86.16039,0,0,1,60.83106,60.83106,6.00022,6.00022,0,1,1-11.59376,3.09766,74.12757,74.12757,0,0,0-52.335-52.335A6.00032,6.00032,0,0,1,153.62012,38.45117ZM149.584,76.71387A42.0663,42.0663,0,0,1,179.28613,106.416a6.00022,6.00022,0,0,0,11.59375-3.09766,54.10244,54.10244,0,0,0-38.19824-38.19824A6.00022,6.00022,0,0,0,149.584,76.71387Zm79.98829,98.11523A54.06881,54.06881,0,0,1,176,222C97.70117,222,34,158.29883,34,80A54.06881,54.06881,0,0,1,81.1709,26.42773a14.0284,14.0284,0,0,1,14.56348,8.3877L115.8252,81.69336A13.97116,13.97116,0,0,1,114.6709,94.876L98.03516,120.29492a1.92572,1.92572,0,0,0-.167,1.88672v.001a78.53419,78.53419,0,0,0,36.26954,36.10547,1.92279,1.92279,0,0,0,1.8916-.18164l25.03515-16.69434a13.95374,13.95374,0,0,1,13.28223-1.21973l46.83691,20.07324A14.0264,14.0264,0,0,1,229.57227,174.8291ZM217.666,173.3252a1.97274,1.97274,0,0,0-1.21-2.03028l-46.83593-20.07324a2.0042,2.0042,0,0,0-1.89844.1748L142.6875,168.09082a13.96574,13.96574,0,0,1-13.7666,1.00391A90.591,90.591,0,0,1,87.085,127.44824a13.98163,13.98163,0,0,1,.90918-13.72461l16.63574-25.41992a1.99737,1.99737,0,0,0,.165-1.88476L84.70508,39.543a1.99164,1.99164,0,0,0-1.80274-1.22363,1.7927,1.7927,0,0,0-.22754.01464A42.04507,42.04507,0,0,0,46,80,130.14675,130.14675,0,0,0,176,210,42.04507,42.04507,0,0,0,217.666,173.3252Z"/></symbol><symbol viewBox="0 0 28 28" fill="none" id="svg-icon-schedule"><path d="M14 26C20.6274 26 26 20.6274 26 14C26 7.37258 20.6274 2 14 2C7.37258 2 2 7.37258 2 14C2 20.6274 7.37258 26 14 26Z" stroke="#FAFBFC" stroke-width="2" stroke-miterlimit="10"/><path d="M14 7V14H21" stroke="#FAFBFC" stroke-width="2" stroke-linecap="round" stroke-linejoin="round"/></symbol><symbol viewBox="0 0 90 90" id="svg-icon-whatsapp"><path d="M90,43.841c0,24.213-19.779,43.841-44.182,43.841c-7.747,0-15.025-1.98-21.357-5.455L0,90l7.975-23.522 c-4.023-6.606-6.34-14.354-6.34-22.637C1.635,19.628,21.416,0,45.818,0C70.223,0,90,19.628,90,43.841z M45.818,6.982 c-20.484,0-37.146,16.535-37.146,36.859c0,8.065,2.629,15.534,7.076,21.61L11.107,79.14l14.275-4.537 c5.865,3.851,12.891,6.097,20.437,6.097c20.481,0,37.146-16.533,37.146-36.857S66.301,6.982,45.818,6.982z M68.129,53.938 c-0.273-0.447-0.994-0.717-2.076-1.254c-1.084-0.537-6.41-3.138-7.4-3.495c-0.993-0.358-1.717-0.538-2.438,0.537 c-0.721,1.076-2.797,3.495-3.43,4.212c-0.632,0.719-1.263,0.809-2.347,0.271c-1.082-0.537-4.571-1.673-8.708-5.333 c-3.219-2.848-5.393-6.364-6.025-7.441c-0.631-1.075-0.066-1.656,0.475-2.191c0.488-0.482,1.084-1.255,1.625-1.882 c0.543-0.628,0.723-1.075,1.082-1.793c0.363-0.717,0.182-1.344-0.09-1.883c-0.27-0.537-2.438-5.825-3.34-7.977 c-0.902-2.15-1.803-1.792-2.436-1.792c-0.631,0-1.354-0.09-2.076-0.09c-0.722,0-1.896,0.269-2.889,1.344 c-0.992,1.076-3.789,3.676-3.789,8.963c0,5.288,3.879,10.397,4.422,11.113c0.541,0.716,7.49,11.92,18.5,16.223 C58.2,65.771,58.2,64.336,60.186,64.156c1.984-0.179,6.406-2.599,7.312-5.107C68.398,56.537,68.398,54.386,68.129,53.938z"/></symbol><symbol viewBox="0 0 265 90" fill="none" id="svg-logo"><path d="M95.3996 32.4746C95.6996 33.0746 96.0996 33.7746 96.4996 34.5746 96.8996 35.3746 97.2996 36.2746 97.7996 37.2746 98.2996 38.2746 98.6996 39.2746 99.0996 40.2746L100.3 43.1746 101.5 40.2746C101.9 39.2746 102.4 38.2746 102.8 37.2746 103.2 36.2746 103.7 35.3746 104.1 34.5746 104.5 33.7746 104.9 33.0746 105.2 32.4746H108.9C109.1 33.6746 109.2 34.9746 109.4 36.4746 109.6 37.9746 109.7 39.4746 109.8 41.0746 109.9 42.6746 110 44.2746 110.1 45.8746 110.2 47.4746 110.3 48.9746 110.3 50.3746H106.4C106.4 48.5746 106.3 46.6746 106.2 44.6746 106.1 42.6746 106 40.5746 105.8 38.4746L104.8 40.8746C104.4 41.7746 104 42.6746 103.7 43.4746 103.4 44.2746 103 45.1746 102.6 45.9746 102.2 46.7746 102 47.4746 101.7 48.0746H98.7996C98.5996 47.4746 98.2996 46.7746 97.8996 45.9746L96.7996 43.4746C96.3996 42.5746 95.9996 41.6746 95.6996 40.8746L94.6996 38.4746C94.4996 40.5746 94.3996 42.6746 94.2996 44.6746 94.1996 46.7746 94.0996 48.6746 94.0996 50.3746H90.0996C90.1996 48.9746 90.2996 47.4746 90.2996 45.8746 90.2996 44.2746 90.4996 42.6746 90.5996 41.0746 90.6996 39.4746 90.7996 37.9746 90.9996 36.4746 91.1996 34.9746 91.2996 33.6746 91.4996 32.4746H95.3996zM126.5 43.5746C126.5 44.5746 126.4 45.5746 126 46.4746 125.7 47.2746 125.3 48.0746 124.7 48.7746 124.1 49.3746 123.4 49.8746 122.6 50.2746 120.8 50.9746 118.9 50.9746 117.1 50.2746 116.3 49.9746 115.6 49.4746 115 48.7746 114.4 48.0746 113.9 47.3746 113.6 46.4746 113.3 45.5746 113.1 44.5746 113.1 43.5746 113.1 42.5746 113.3 41.5746 113.6 40.6746 113.9 39.8746 114.4 39.0746 115 38.3746 115.6 37.7746 116.3 37.2746 117.1 36.8746 118.8 36.1746 120.8 36.1746 122.5 36.8746 123.3 37.1746 124 37.6746 124.6 38.3746 125.2 39.0746 125.7 39.7746 126 40.6746 126.3 41.5746 126.5 42.5746 126.5 43.5746zM122.6 43.5746C122.7 42.5746 122.4 41.5746 121.9 40.7746 121.1 39.6746 119.5 39.3746 118.3 40.2746 118.1 40.3746 117.9 40.5746 117.8 40.7746 117.3 41.5746 117 42.5746 117.1 43.5746 117.1 44.5746 117.3 45.5746 117.8 46.3746 118.6 47.4746 120.2 47.7746 121.3 46.9746 121.5 46.7746 121.7 46.5746 121.9 46.3746 122.4 45.5746 122.6 44.5746 122.6 43.5746zM135.3 45.5755C134.8 46.3755 134.3 47.1755 133.8 48.0755 133.4 48.8755 132.9 49.6755 132.6 50.4755H128.7C129.2 49.3755 129.7 48.2755 130.2 47.3755 130.7 46.5755 131.2 45.7755 131.7 44.9755 131 44.6755 130.4 44.0755 130 43.4755 129.6 42.7755 129.3 42.0755 129.4 41.2755 129.3 39.8755 129.9 38.5755 131 37.7755 132.3 36.8755 133.9 36.4755 135.6 36.5755 136 36.5755 136.5 36.5755 137 36.5755 137.5 36.5755 138.1 36.6755 138.6 36.7755 139.1 36.8755 139.6 36.8755 140.1 36.9755 140.6 37.0755 141 37.1755 141.3 37.1755V50.4755H137.4V45.6755H135.3V45.5755zM137.3 39.5755L136.5 39.4755H135.6C134.9 39.3755 134.2 39.5755 133.7 39.9755 133.4 40.2755 133.2 40.7755 133.2 41.1755 133.2 41.4755 133.3 41.7755 133.4 41.9755 133.5 42.1755 133.7 42.3755 134 42.4755 134.2 42.5755 134.5 42.6755 134.8 42.7755 135.1 42.8755 135.4 42.8755 135.6 42.8755H137.5L137.3 39.5755zM150.6 43.575C150.6 42.575 150.8 41.675 151.1 40.775 151.4 39.875 151.9 39.175 152.5 38.475 153.1 37.775 153.9 37.275 154.7 36.975 155.6 36.575 156.7 36.375 157.7 36.375 158.4 36.375 159 36.475 159.7 36.575 160.3 36.675 160.9 36.875 161.5 37.175L160.7 40.275C160.3 40.175 159.9 39.975 159.5 39.875 159 39.775 158.5 39.675 158.1 39.675 157.1 39.575 156.2 39.975 155.5 40.775 154.9 41.575 154.6 42.575 154.6 43.575 154.5 44.575 154.8 45.575 155.4 46.375 156.1 47.075 157.1 47.475 158.2 47.375 158.7 47.375 159.2 47.375 159.7 47.275 160.2 47.175 160.7 47.075 161.2 46.875L161.8 50.075C161.3 50.275 160.7 50.475 160.1 50.575 159.4 50.675 158.6 50.775 157.9 50.775 156.8 50.775 155.7 50.575 154.7 50.175 153.9 49.875 153.1 49.375 152.5 48.675 151.9 48.075 151.5 47.275 151.2 46.375 150.7 45.475 150.6 44.575 150.6 43.575zM163.7 43.6751C163.7 42.5751 163.9 41.4751 164.3 40.4751 164.6 39.6751 165.1 38.8751 165.8 38.1751 166.4 37.5751 167.1 37.0751 167.9 36.7751 168.7 36.4751 169.5 36.2751 170.3 36.2751 172 36.1751 173.7 36.8751 174.9 38.0751 176.1 39.5751 176.7 41.3751 176.6 43.2751 176.6 43.4751 176.6 43.7751 176.6 43.9751 176.6 44.1751 176.6 44.4751 176.5 44.6751H167.7C167.8 45.4751 168.2 46.1751 168.8 46.5751 169.6 47.0751 170.5 47.3751 171.4 47.2751 172.1 47.2751 172.8 47.1751 173.5 47.0751 174.1 46.9751 174.6 46.7751 175.2 46.5751L175.7 49.6751C175.4 49.7751 175.2 49.8751 174.9 49.9751 174.6 50.0751 174.2 50.1751 173.8 50.2751 173.4 50.3751 172.9 50.3751 172.4 50.4751 171.9 50.5751 171.4 50.5751 170.9 50.5751 169.8 50.5751 168.7 50.3751 167.7 50.0751 166.8 49.7751 166.1 49.2751 165.4 48.5751 164.8 47.9751 164.3 47.1751 164.1 46.3751 163.9 45.5751 163.7 44.6751 163.7 43.6751zM172.8 42.1751C172.8 41.8751 172.7 41.4751 172.6 41.1751 172.5 40.8751 172.4 40.5751 172.2 40.3751 172 40.1751 171.7 39.8751 171.4 39.7751 171 39.5751 170.7 39.5751 170.3 39.5751 169.9 39.5751 169.5 39.6751 169.2 39.7751 168.9 39.8751 168.6 40.0751 168.4 40.3751 168.2 40.5751 168 40.8751 167.9 41.1751 167.8 41.4751 167.7 41.8751 167.7 42.1751H172.8zM183.5 42.575C183.5 43.175 183.4 43.875 183.4 44.575L183.3 46.675C183.3 47.375 183.2 48.075 183.2 48.775 183.2 49.475 183.2 49.975 183.1 50.475H179.3C179.3 49.475 179.4 48.475 179.5 47.275 179.6 46.075 179.7 44.875 179.8 43.675 179.9 42.475 180 41.175 180.1 40.075 180.2 38.975 180.3 37.875 180.4 36.875H183.6C184.4 38.075 185 39.375 185.7 40.675 186.3 41.975 187 43.375 187.7 44.975 188.4 43.275 189.1 41.775 189.8 40.375 190.4 39.175 191 38.075 191.7 36.975H195C195.1 37.875 195.2 38.975 195.4 40.175 195.6 41.375 195.6 42.575 195.7 43.775 195.8 44.975 195.9 46.275 195.9 47.375 195.9 48.475 196 49.675 196 50.575H192.2C192.2 49.275 192.1 47.875 192.1 46.575 192.1 45.275 192 43.975 191.9 42.675L189 48.875H186.3L183.5 42.575zM203.4 41.5754C203.7 41.4754 204 41.4754 204.3 41.3754 204.7 41.2754 205.2 41.2754 205.6 41.2754 206.4 41.2754 207.1 41.3754 207.9 41.5754 208.6 41.7754 209.2 42.0754 209.7 42.4754 210.2 42.8754 210.7 43.3754 210.9 43.9754 211.2 44.6754 211.4 45.3754 211.3 46.0754 211.3 46.7754 211.2 47.4754 210.9 48.1754 210.6 48.7754 210.2 49.2754 209.7 49.5754 209.1 49.9754 208.5 50.2754 207.8 50.3754 207 50.5754 206.2 50.6754 205.4 50.6754 204.4 50.6754 203.3 50.6754 202.3 50.4754 201.3 50.3754 200.3 50.1754 199.4 49.9754V36.7754H203.3L203.4 41.5754zM205.3 47.6754C205.9 47.6754 206.5 47.5754 207 47.2754 207.4 46.9754 207.6 46.4754 207.6 45.9754 207.6 45.6754 207.5 45.3754 207.4 45.1754 207.3 44.9754 207.1 44.7754 206.8 44.6754 206.5 44.5754 206.3 44.4754 206 44.3754 205.7 44.2754 205.3 44.2754 205 44.2754 204.7 44.2754 204.5 44.2754 204.1 44.2754L203.4 44.3754V47.4754C203.6 47.4754 203.9 47.5754 204.2 47.5754L205.3 47.6754zM219.9 45.5755C219.4 46.3755 218.9 47.1755 218.4 48.0755 218 48.8755 217.5 49.6755 217.2 50.4755H213.2C213.7 49.3755 214.2 48.2755 214.7 47.3755 215.2 46.5755 215.7 45.7755 216.2 44.9755 215.5 44.6755 214.9 44.1755 214.5 43.4755 214 42.7755 213.8 42.0755 213.9 41.2755 213.8 39.8755 214.4 38.5755 215.5 37.7755 216.8 36.8755 218.4 36.4755 220.1 36.5755 220.5 36.5755 221 36.5755 221.5 36.5755 222 36.5755 222.6 36.6755 223.1 36.7755 223.6 36.8755 224.1 36.8755 224.6 36.9755 225.1 37.0755 225.5 37.1755 225.8 37.1755V50.4755H221.9V45.6755H219.9V45.5755zM221.9 39.5755L221.1 39.4755H220.2C219.5 39.3755 218.8 39.5755 218.2 39.9755 217.9 40.2755 217.7 40.7755 217.7 41.1755 217.7 41.4755 217.8 41.7755 217.9 41.9755 218 42.1755 218.2 42.3755 218.4 42.4755 218.6 42.5755 218.9 42.6755 219.2 42.7755 219.5 42.8755 219.8 42.8755 220 42.8755H221.9V39.5755zM237.7 41.0752H263.6V44.2752H237.7V41.0752zM94.2 67.575C94.2 68.175 94.1 68.875 94.1 69.575 94.1 70.275 94 70.975 94 71.675 94 72.375 94 73.075 93.9 73.775 93.8 74.475 93.9 74.975 93.8 75.475H90C90 74.475 90.1 73.475 90.2 72.275 90.3 71.075 90.4 69.875 90.5 68.675 90.6 67.475 90.7 66.275 90.8 65.075 90.9 63.875 91 62.875 91.1 61.875H94.3C95.1 63.075 95.7 64.375 96.4 65.675 97 66.975 97.7 68.375 98.4 69.975 99.1 68.275 99.8 66.775 100.5 65.375 101.1 64.175 101.7 63.075 102.4 61.975H105.7C105.8 62.875 105.9 63.975 106 65.175 106.1 66.375 106.2 67.575 106.3 68.775 106.4 69.975 106.5 71.175 106.5 72.375 106.5 73.575 106.6 74.675 106.7 75.575H102.8C102.8 74.275 102.7 72.875 102.6 71.575 102.5 70.275 102.5 68.975 102.4 67.675L99.5 73.975H97L94.2 67.575zM123 68.575C123 69.575 122.9 70.575 122.5 71.475 122.2 72.375 121.8 73.075 121.2 73.775 120.6 74.375 119.8 74.875 119 75.275 117.2 75.975 115.3 75.975 113.5 75.275 112.7 74.975 112 74.475 111.4 73.775 110.8 73.075 110.3 72.375 110 71.475 109.7 70.575 109.5 69.575 109.5 68.575 109.5 67.575 109.7 66.575 110 65.675 110.3 64.875 110.8 64.075 111.4 63.375 112 62.775 112.7 62.275 113.5 61.875 114.3 61.475 115.3 61.375 116.2 61.375 117.1 61.375 118.1 61.575 118.9 61.875 119.7 62.175 120.4 62.675 121 63.375 121.6 64.075 122.1 64.775 122.4 65.675 122.8 66.575 123 67.575 123 68.575zM119.1 68.575C119.2 67.575 118.9 66.575 118.4 65.775 117.9 65.075 117.2 64.775 116.4 64.775 115.6 64.775 114.9 65.175 114.4 65.775 113.9 66.575 113.6 67.575 113.7 68.575 113.7 69.575 113.9 70.575 114.4 71.375 114.9 71.975 115.6 72.375 116.4 72.375 117.2 72.375 117.9 72.075 118.4 71.375 118.8 70.575 119.1 69.575 119.1 68.575zM131.7 70.575C131.2 71.375 130.7 72.175 130.2 72.975 129.8 73.775 129.3 74.575 129 75.375H125C125.5 74.275 126 73.175 126.5 72.275 127 71.475 127.5 70.675 128 69.875 127.3 69.575 126.7 68.975 126.3 68.375 125.8 67.675 125.6 66.975 125.6 66.175 125.5 64.775 126.1 63.475 127.2 62.675 128.5 61.775 130.1 61.375 131.8 61.475 132.2 61.475 132.7 61.475 133.2 61.475 133.7 61.475 134.2 61.575 134.8 61.675 135.4 61.775 135.8 61.775 136.3 61.875 136.8 61.975 137.2 62.075 137.5 62.075V75.375H133.6V70.575H131.7zM133.7 64.575L132.9 64.475H132C131.3 64.375 130.6 64.575 130.1 64.975 129.8 65.275 129.6 65.775 129.6 66.175 129.6 66.675 129.9 67.275 130.4 67.475 130.6 67.575 130.9 67.675 131.2 67.775 131.5 67.875 131.8 67.875 132 67.875H133.9L133.7 64.575zM151.6 66.4748C152 66.0748 152.4 65.6748 152.8 65.2748 153.2 64.8748 153.6 64.4748 154 63.9748 154.4 63.4748 154.8 63.1748 155.1 62.7748 155.4 62.3748 155.8 61.9748 156.1 61.6748H160.8L159.5 63.0748 157.9 64.7748C157.3 65.3748 156.8 65.9748 156.2 66.4748 155.6 66.9748 155.1 67.5748 154.6 67.9748 155.2 68.4748 155.7 68.9748 156.2 69.4748 156.8 70.0748 157.4 70.6748 157.9 71.3748 158.4 72.0748 159 72.7748 159.5 73.3748 160 73.9748 160.4 74.6748 160.8 75.3748H156.4C156.1 74.8748 155.7 74.3748 155.3 73.8748 154.9 73.3748 154.5 72.8748 154.1 72.3748 153.7 71.8748 153.2 71.3748 152.8 70.9748 152.4 70.5748 152 70.1748 151.6 69.8748V75.3748H147.7V61.7748H151.6V66.4748zM175.7 68.5754C175.7 69.5754 175.6 70.4754 175.3 71.4754 175.1 72.2754 174.7 73.0754 174.2 73.6754 173.7 74.2754 173.1 74.7754 172.3 75.0754 171.5 75.4754 170.6 75.5754 169.7 75.5754 169.2 75.5754 168.7 75.5754 168.2 75.3754 167.7 75.2754 167.3 75.1754 166.8 74.9754V80.0754H162.9V62.0754C163.2 61.9754 163.6 61.8754 164.1 61.7754 164.5 61.6754 165 61.5754 165.5 61.5754 166 61.5754 166.5 61.4754 167 61.3754 167.5 61.2754 168 61.2754 168.5 61.2754 169.5 61.2754 170.5 61.4754 171.5 61.7754 172.3 62.0754 173.1 62.5754 173.7 63.1754 174.3 63.7754 174.8 64.5754 175.1 65.3754 175.6 66.5754 175.8 67.5754 175.7 68.5754zM171.7 68.6754C171.8 67.6754 171.5 66.6754 170.9 65.7754 170.3 65.0754 169.4 64.6754 168.5 64.6754 168.2 64.6754 167.8 64.6754 167.5 64.6754 167.3 64.6754 167 64.6754 166.8 64.7754V71.7754C167.1 71.9754 167.4 72.0754 167.7 72.1754 168.1 72.2754 168.5 72.3754 168.9 72.3754 170.9 72.3754 171.8 71.1754 171.7 68.6754zM178.2 68.6751C178.2 67.5751 178.4 66.4751 178.8 65.4751 179.1 64.6751 179.6 63.8751 180.3 63.1751 180.9 62.5751 181.6 62.0751 182.4 61.7751 183.2 61.4751 184 61.2751 184.8 61.2751 186.5 61.1751 188.2 61.8751 189.4 63.0751 190.6 64.5751 191.2 66.3751 191.1 68.2751 191.1 68.4751 191.1 68.7751 191.1 68.9751 191.1 69.1751 191.1 69.4751 191 69.6751H182.2C182.3 70.4751 182.7 71.1751 183.3 71.5751 184.1 72.0751 185 72.2751 185.9 72.2751 186.6 72.2751 187.3 72.1751 188 72.0751 188.6 71.9751 189.1 71.7751 189.7 71.5751L190.2 74.6751C189.9 74.7751 189.7 74.8751 189.4 74.9751 189.1 75.0751 188.7 75.1751 188.3 75.2751 187.9 75.3751 187.4 75.3751 186.9 75.4751 186.4 75.5751 185.9 75.5751 185.4 75.5751 184.3 75.5751 183.2 75.3751 182.2 75.0751 181.4 74.7751 180.6 74.2751 180 73.5751 179.4 72.9751 179 72.1751 178.7 71.3751 178.4 70.5751 178.2 69.6751 178.2 68.6751zM187.3 67.1751C187.3 66.8751 187.2 66.4751 187.1 66.1751 187 65.8751 186.9 65.5751 186.7 65.3751 186.5 65.1751 186.2 64.8751 185.9 64.7751 185.5 64.5751 185.2 64.5751 184.8 64.5751 184.4 64.5751 184 64.6751 183.7 64.7751 183.4 64.8751 183.1 65.0751 182.9 65.3751 182.7 65.5751 182.5 65.8751 182.4 66.1751 182.3 66.4751 182.2 66.8751 182.2 67.1751H187.3zM205.9 61.7754V75.3754H202V64.9754H198V75.3754H194.1V61.7754H205.9zM222.4 68.575C222.4 69.575 222.3 70.575 221.9 71.475 221.6 72.375 221.2 73.075 220.5 73.775 219.9 74.375 219.2 74.875 218.4 75.275 217.5 75.675 216.6 75.775 215.6 75.775 214.7 75.775 213.7 75.575 212.9 75.275 212.1 74.975 211.4 74.475 210.8 73.775 210.2 73.075 209.7 72.375 209.4 71.475 209.1 70.575 208.9 69.575 208.9 68.575 208.9 67.575 209.1 66.575 209.4 65.675 209.7 64.875 210.2 64.075 210.8 63.375 211.4 62.775 212.1 62.275 212.9 61.875 213.7 61.475 214.7 61.375 215.6 61.375 216.5 61.375 217.5 61.575 218.3 61.875 219.1 62.175 219.8 62.675 220.4 63.375 221 64.075 221.5 64.775 221.8 65.675 222.2 66.575 222.4 67.575 222.4 68.575zM218.5 68.575C218.6 67.575 218.3 66.575 217.8 65.775 217.3 65.075 216.6 64.775 215.8 64.775 215 64.775 214.2 65.075 213.7 65.775 213.2 66.575 212.9 67.575 213 68.575 213 69.575 213.2 70.575 213.7 71.375 214.2 72.075 214.9 72.375 215.8 72.375 216.6 72.375 217.3 72.075 217.8 71.375 218.3 70.575 218.5 69.575 218.5 68.575zM224.9 68.575C224.9 67.575 225.1 66.675 225.4 65.775 225.7 64.875 226.2 64.175 226.8 63.475 227.4 62.775 228.2 62.275 229 61.975 229.9 61.575 231 61.375 232 61.375 232.7 61.375 233.3 61.475 234 61.575 234.6 61.675 235.2 61.875 235.8 62.175L235 65.275C234.6 65.175 234.2 64.975 233.8 64.875 233.3 64.775 232.8 64.675 232.4 64.675 231.4 64.575 230.5 64.975 229.8 65.775 229.2 66.575 228.9 67.575 228.9 68.575 228.8 69.575 229.1 70.575 229.7 71.375 230.4 72.075 231.4 72.475 232.5 72.375 233 72.375 233.5 72.375 234 72.275 234.5 72.175 235 72.075 235.5 71.875L236 75.075C235.5 75.275 234.9 75.475 234.3 75.575 233.6 75.675 232.8 75.775 232.1 75.775 231 75.775 229.9 75.575 228.9 75.175 228.1 74.875 227.3 74.375 226.7 73.675 226.1 72.975 225.7 72.275 225.4 71.375 225 70.475 224.9 69.575 224.9 68.575zM249.9 64.9754H245.5V75.4754H241.6V64.9754H237.2V61.7754H249.8V64.9754H249.9zM256.2 66.5754C256.5 66.4754 256.8 66.4754 257.2 66.3754 257.6 66.2754 258.1 66.2754 258.5 66.2754 259.3 66.2754 260 66.3754 260.8 66.5754 261.5 66.7754 262.1 67.0754 262.6 67.4754 263.1 67.8754 263.5 68.3754 263.8 68.9754 264.4 70.2754 264.4 71.7754 263.8 73.1754 263.5 73.7754 263.1 74.2754 262.6 74.5754 262 74.9754 261.4 75.2754 260.7 75.3754 259.9 75.5754 259.1 75.6754 258.3 75.6754 257.3 75.6754 256.2 75.6754 255.2 75.4754 254.2 75.3754 253.3 75.1754 252.3 74.9754V61.7754H256.2V66.5754zM258.2 72.6754C258.8 72.6754 259.4 72.5754 259.9 72.2754 260.3 71.9754 260.5 71.4754 260.5 70.9754 260.5 70.6754 260.4 70.3754 260.3 70.1754 260.2 69.9754 260 69.7754 259.7 69.6754 259.4 69.5754 259.1 69.4754 258.8 69.3754 258.5 69.2754 258.1 69.2754 257.8 69.2754 257.5 69.2754 257.3 69.2754 256.9 69.2754L256.2 69.3754V72.4754C256.4 72.4754 256.7 72.5754 257 72.5754L258.2 72.6754zM89.9004 13.9754H90.9004V17.3754H92.3004L93.3004 15.2754C93.9004 14.0754 94.4004 13.7754 95.1004 13.7754 95.3004 13.7754 95.4004 13.7754 95.6004 13.8754L95.4004 14.8754C95.3004 14.8754 95.2004 14.8754 95.1004 14.8754 94.8004 14.8754 94.5004 14.9754 94.1004 15.8754L93.1004 17.7754 95.9004 22.0754H94.8004L92.4004 18.1754H91.0004V22.0754H90.0004L89.9004 13.9754zM96.7002 22.175L96.9002 21.275C97.0002 21.275 97.1002 21.275 97.2002 21.275 97.6002 21.275 97.9002 20.875 98.0002 20.075 98.2002 18.775 98.3002 17.475 98.5002 16.175H102.2V22.175H101.2V16.975H99.3002C99.2002 18.075 99.0002 19.175 98.9002 20.275 98.7002 21.575 98.2002 22.275 97.3002 22.275 97.1002 22.275 96.9002 22.175 96.7002 22.175zM104.2 16.0746H105.2V18.5746C105.2 19.1746 105.2 19.9746 105.1 20.7746 105.3 20.3746 105.6 19.7746 105.9 19.3746L108.1 15.9746H109.2V21.9746H108.2V19.4746C108.2 18.8746 108.2 18.0746 108.3 17.1746H108.2C108 17.6746 107.6 18.1746 107.4 18.5746L105.2 21.9746H104.1L104.2 16.0746zM111.2 16.075H112.2V18.475H115.1V16.075H116.1V22.075H115.1V19.475H112.2V22.175H111.2V16.075zM118.2 16.075H119.2V18.575C119.2 19.175 119.1 19.975 119.1 20.775 119.3 20.375 119.7 19.775 119.9 19.375L122 16.075H123.1V22.075H122.1V19.575C122.1 18.975 122.1 18.175 122.2 17.275 122 17.775 121.7 18.275 121.4 18.675L119.3 22.075H118.2V16.075zM125.2 16.0746H126.2V18.5746H127.5L128.1 17.2746C128.6 16.1746 129 15.9746 129.7 15.9746 129.8 15.9746 130 16.0746 130.1 16.0746L129.9 17.0746C129.8 17.0746 129.8 17.0746 129.7 17.0746 129.4 17.0746 129.1 17.1746 128.8 17.8746L128.3 19.0746 130.2 22.2746H129.1L127.5 19.5746H126.2V22.2746H125.2V16.0746zM130.9 20.575C130.9 19.275 132 18.575 134.6 18.275 134.6 17.475 134.3 16.775 133.4 16.775 132.8 16.775 132.1 16.975 131.6 17.375L131.2 16.675C131.9 16.175 132.7 15.875 133.6 15.875 135.1 15.875 135.7 16.875 135.7 18.375V22.075H134.9L134.8 21.375C134.3 21.875 133.5 22.175 132.8 22.275 131.9 22.375 131.1 21.675 131 20.775 130.9 20.775 130.9 20.675 130.9 20.575zM134.6 20.675V19.075C132.6 19.275 131.9 19.775 131.9 20.575 131.9 21.375 132.4 21.475 132.9 21.475 133.6 21.475 134.2 21.175 134.6 20.675z" fill="#262626"/><path d="M35.9 43.875V28.475C39.6 28.475 42.7 31.475 42.7 35.275V42.075C40.3 42.175 38 42.875 35.9 43.875ZM38.5 54.075C41 51.575 42.5 48.275 42.7 44.775C40.3 44.875 38 45.675 35.9 46.975V56.075C36.8 55.475 37.7 54.875 38.5 54.075ZM42.7 67.775V62.075C42.7 59.975 44.4 58.275 46.5 58.275H52.2C56 58.275 59 55.275 59 51.475C59 47.675 56 44.675 52.2 44.675H45.3C45.1 48.875 43.3 52.875 40.3 55.875C39 57.175 37.5 58.175 35.9 59.075V74.475C39.7 74.475 42.7 71.475 42.7 67.775ZM19.7 44.775H25.4C27.5 44.775 29.2 43.075 29.2 40.975V35.275C29.2 31.575 32.2 28.475 36 28.475V25.875C30.8 25.875 26.6 30.075 26.6 35.275V40.875C26.6 41.475 26.1 42.075 25.4 42.075H19.7C14.5 42.275 10.4 46.575 10.6 51.775C10.8 56.775 14.7 60.675 19.7 60.875H26.5V67.675C26.5 72.875 30.7 77.075 35.9 77.075V74.475C32.2 74.475 29.1 71.475 29.1 67.675V60.875C31.5 60.775 33.8 60.075 35.9 59.075V56.075C33.9 57.375 31.5 58.075 29.1 58.275C29.4 53.575 31.9 49.375 35.9 46.875V43.875C34.3 44.675 32.8 45.775 31.5 47.075C28.5 50.075 26.7 54.075 26.5 58.275H19.7C15.9 58.275 12.9 55.275 12.9 51.475C12.9 47.775 15.9 44.675 19.7 44.775ZM71.8 21.975V65.475C71.8 68.375 70.2 71.075 67.7 72.575L40 88.575C37.5 90.075 34.3 90.075 31.8 88.575L4.1 72.575C1.6 71.175 0 68.375 0 65.475V21.975C0 20.975 0.5 20.075 1.4 19.575L6.2 16.775C7.5 15.975 9.2 16.475 10 17.775C10.2 18.175 10.4 18.675 10.4 19.175V28.475L13.7 26.575V14.175C13.7 13.175 14.2 12.275 15.1 11.775L20.7 8.475C22 7.675 23.7 8.175 24.5 9.475C24.7 9.875 24.9 10.375 24.9 10.875V20.175L28.4 18.175V5.575C28.4 4.575 28.9 3.675 29.8 3.175L34.6 0.375C35.5 -0.125 36.5 -0.125 37.4 0.375L42.2 3.175C43.1 3.675 43.6 4.575 43.6 5.575V18.075L47.1 20.075V10.775C47 9.275 48.2 8.075 49.8 8.075C50.3 8.075 50.8 8.175 51.2 8.475L56.8 11.775C57.7 12.275 58.2 13.175 58.2 14.175V26.675L61.5 28.575V19.275C61.5 17.775 62.8 16.475 64.3 16.475C64.8 16.475 65.3 16.575 65.7 16.875L70.6 19.675C71.3 20.075 71.8 20.975 71.8 21.975ZM35.9 87.075V77.075C41.1 77.075 45.3 72.875 45.3 67.675V62.075C45.3 61.475 45.8 60.875 46.5 60.875H52.2C57.4 60.875 61.6 56.675 61.6 51.475C61.6 46.275 57.4 42.075 52.2 42.075H45.4V35.275C45.4 30.075 41.2 25.875 36 25.875V2.675H35.9L31 5.475C30.9 5.475 30.9 5.575 30.9 5.575V18.475C30.9 19.175 30.5 19.775 29.9 20.075L25.1 23.075C24.2 23.575 23 23.275 22.5 22.375C22.3 22.075 22.2 21.775 22.2 21.475V10.875C22.2 10.775 22.2 10.775 22.1 10.775C22 10.775 22 10.775 21.9 10.775L16.3 14.075L16.2 14.175V27.075C16.2 27.775 15.8 28.375 15.2 28.775L10.5 31.375C9.6 31.875 8.4 31.575 7.9 30.575C7.7 30.275 7.7 29.975 7.7 29.675V19.175C7.7 19.175 7.7 19.075 7.6 19.075H7.5L2.7 21.875C2.6 21.875 2.6 21.975 2.6 21.975V65.475C2.6 67.475 3.7 69.275 5.4 70.275L33.1 86.275C34 86.875 34.9 87.075 35.9 87.075Z" fill="url(#npaint0_linear_726_5080)"/><defs><linearGradient id="npaint0_linear_726_5080" x1="65.899" y1="74.844" x2="5.943" y2="14.898" gradientUnits="userSpaceOnUse"><stop offset="0" stop-color="#737FE6"/><stop offset="1" stop-color="#64C8BF"/></linearGradient></defs></symbol></svg>