<svg width="61" height="61" viewBox="0 0 61 61" fill="none" xmlns="http://www.w3.org/2000/svg">
<path d="M26.8555 0.571907C25.8271 0.680801 23.746 1.12848 22.7297 1.45516C18.2045 2.94338 15.4579 6.2465 14.6836 11.1588C14.4174 12.8165 14.49 17.8014 14.8046 19.0718C15.0103 19.9188 15.0103 19.9551 14.7683 20.6689C14.4537 21.5885 14.4174 23.6696 14.6957 24.7222C15.0829 26.2104 16.0508 27.5051 17.1519 28.0011C17.6237 28.2068 17.6479 28.2673 17.8536 29.0901C18.4344 31.51 19.4144 33.47 20.8906 35.1761L21.5318 35.9141V37.3539V38.7938L21.1325 38.9874C20.334 39.3745 18.6401 40.766 16.8736 42.5083C15.1555 44.2022 14.9861 44.3353 13.6067 45.0612C11.8886 45.9566 8.17413 48.0861 6.9642 48.8604C4.47173 50.4454 2.26965 52.4781 1.3501 54.0268C0.527341 55.4183 0.0917644 56.9186 0.0191683 58.6004C-0.0534278 60.3185 0.043367 60.5 0.962918 60.5C1.79777 60.5 1.91877 60.3064 2.05186 58.7819C2.23335 56.6161 2.89881 55.14 4.41123 53.5066C5.92365 51.8732 8.01684 50.4575 12.5662 47.9651L15.2765 46.4769L15.7604 47.1665C16.2565 47.8804 17.5148 49.4049 18.3618 50.3123C18.7732 50.7479 18.9063 50.8205 19.3539 50.8205C19.7532 50.8205 19.9347 50.7479 20.2251 50.4575C20.4308 50.2518 20.6123 50.0946 20.6244 50.1188C20.6365 50.143 20.8906 50.5301 21.1809 51.002C21.8585 52.103 23.0684 53.797 24.0001 54.9343C24.9075 56.0595 27.3274 58.552 28.5857 59.6651C29.4327 60.4274 29.5658 60.5 30.0498 60.5C30.7636 60.5 31.2355 60.137 33.5102 57.8502C35.8575 55.4909 37.7329 53.1073 39.3905 50.3849C39.5236 50.1672 39.5478 50.1793 39.8381 50.4817C40.1164 50.7842 40.2495 50.8205 40.8666 50.8205H41.5925L42.4274 49.8768C43.3833 48.812 44.3754 47.5537 44.7021 46.9971L44.9199 46.622L47.1099 47.8199C53.1474 51.1351 55.5431 52.9379 56.8619 55.1763C57.5153 56.2773 57.8178 57.2937 57.9509 58.7819C58.084 60.3064 58.205 60.5 59.0398 60.5C59.9594 60.5 60.0562 60.3185 59.9836 58.6004C59.8626 55.8901 58.822 53.7123 56.6562 51.6554C54.6599 49.78 52.3731 48.3281 45.9846 44.9402C45.3433 44.6015 44.811 44.178 44.0487 43.3915C42.5847 41.8791 40.7698 40.282 39.7534 39.6165C39.2816 39.2898 38.8581 38.9753 38.8097 38.9148C38.7613 38.8422 38.7129 38.0678 38.7129 37.1966C38.7129 35.6721 38.725 35.6116 39.0154 35.3333C39.4389 34.9341 40.431 33.47 40.8545 32.611C41.3264 31.6672 41.774 30.421 42.0402 29.2837L42.258 28.3762L42.984 27.9527C44.1092 27.2994 44.8957 26.162 45.2587 24.6859C45.5006 23.6696 45.4522 21.7458 45.1619 20.8988L44.9199 20.1971L45.1619 19.2654C45.3796 18.4426 45.4159 17.9466 45.4159 14.8854C45.428 11.9695 45.3917 11.2798 45.2103 10.4329C43.9519 4.69778 40.2858 1.57615 33.7764 0.680801C32.518 0.49931 28.1381 0.438812 26.8555 0.571907ZM32.2397 2.6046C36.2083 2.83448 39.5962 4.359 41.3385 6.69418C42.0644 7.67422 42.7541 9.16245 43.0808 10.4208C43.5042 12.1147 43.5647 18.2491 43.1534 18.116C42.8993 18.0434 42.2701 16.8576 42.1249 16.1922C42.0402 15.8413 41.9192 14.6314 41.8587 13.5182C41.7014 10.8927 41.4958 9.88841 40.8303 8.53328C39.2816 5.33905 36.7649 4.3711 30.0377 4.359C24.472 4.359 21.9432 4.98817 20.2735 6.79097C18.8216 8.36389 18.3497 9.79161 18.144 13.2399C17.9988 15.6235 17.8173 16.5793 17.3575 17.3779C16.8615 18.2249 16.7405 18.2491 16.6437 17.5231C16.4985 16.289 16.559 12.4172 16.7526 11.3645C17.5632 6.68208 20.3945 3.92343 25.4278 2.90708C26.6982 2.6409 29.3359 2.43521 30.4248 2.4957C30.7636 2.5199 31.5743 2.5683 32.2397 2.6046ZM32.3002 6.46429C35.2283 6.58529 37.1642 7.16605 38.1563 8.2308C39.2816 9.44073 39.6325 10.5539 39.8018 13.5666C39.9228 15.6235 40.0196 16.4342 40.2737 17.269C40.5036 18.0555 41.1812 19.1202 41.8708 19.8099C42.9114 20.8383 42.9235 20.8504 43.1413 21.3707C43.4558 22.0846 43.4195 23.8148 43.0808 24.7101C42.742 25.5813 41.9313 26.3435 41.2296 26.4645C40.673 26.5492 40.431 26.7549 40.3342 27.2026C39.572 30.7356 38.7613 32.5263 37.2126 34.075C36.7286 34.5469 36.0873 35.0551 35.7486 35.2124C35.4219 35.3696 34.708 35.781 34.1756 36.1319C32.6995 37.0999 32.2397 37.2087 29.8804 37.2087C27.5089 37.2087 27.1338 37.112 25.5488 36.0714C24.968 35.6963 24.3268 35.3091 24.109 35.2245C23.8912 35.1398 23.5766 34.8857 23.4072 34.6558C23.2378 34.4259 22.9837 34.2444 22.8627 34.2444C22.6087 34.2444 21.8343 33.3128 21.1446 32.1754C20.576 31.2438 20.0073 29.6588 19.7048 28.1947C19.5717 27.5656 19.3781 26.9606 19.2813 26.8638C19.1845 26.767 18.7732 26.5492 18.3618 26.3798C17.0067 25.8354 16.4501 24.7343 16.4501 22.5806V21.3828L17.7689 20.1003C18.5312 19.3622 19.1966 18.5878 19.3539 18.2975C19.8379 17.3295 20.0557 16.0954 20.1888 13.7118C20.3703 10.5539 20.697 9.45283 21.8464 8.2308C22.8748 7.14185 24.7986 6.57318 28.0655 6.42799C29.0939 6.3796 30.1103 6.3554 30.3039 6.3796C30.5095 6.39169 31.4049 6.44009 32.3002 6.46429ZM24.7986 37.9347C26.2385 38.9027 27.0007 39.1083 29.4811 39.1809C32.5664 39.2535 33.6433 39.0115 35.4582 37.8016C36.0026 37.4507 36.5229 37.1482 36.6076 37.1482C36.7528 37.1482 36.7891 37.5354 36.898 40.6087C36.9343 41.4072 36.0389 42.7019 33.5586 45.4968C31.9252 47.3359 30.6668 48.8362 30.316 49.3928C30.195 49.5864 30.0498 49.7316 30.0135 49.7316C29.9651 49.7316 29.7352 49.4775 29.5053 49.1508C29.2875 48.8362 28.7914 48.2192 28.4043 47.7836C28.0292 47.3359 27.642 46.7914 27.5331 46.5494C27.4363 46.3075 27.1338 45.9566 26.8313 45.7388C25.9965 45.1338 23.9154 42.6414 23.4072 41.6371C22.9958 40.8144 22.9595 40.5119 23.262 40.1973C23.504 39.9432 23.5282 39.7617 23.5645 38.5276C23.6008 37.5233 23.6492 37.1724 23.746 37.2329C23.8307 37.2813 24.3026 37.5959 24.7986 37.9347ZM21.5197 42.3994C21.7375 42.8954 22.2094 43.6819 22.5724 44.1659L23.2257 45.0249L22.766 45.2185C22.04 45.5089 20.9148 46.3801 20.0799 47.2633L19.3176 48.0861L18.8337 47.5537C18.2892 46.9366 17.1761 45.3879 17.1761 45.2427C17.1761 44.9765 20.7938 41.4919 21.0478 41.504C21.0841 41.5161 21.2898 41.9154 21.5197 42.3994ZM40.7093 43.1132C41.3748 43.7182 42.1733 44.5047 42.5 44.8434L43.0687 45.4605L42.5121 46.2349C42.1975 46.6583 41.7014 47.2875 41.4111 47.6263L40.8908 48.2434L39.7655 47.1181C38.8339 46.1865 38.4588 45.9082 37.6724 45.5452C37.1521 45.2911 36.7044 45.0733 36.6802 45.0612C36.656 45.0491 36.8859 44.7345 37.1763 44.3595C37.7691 43.6456 38.6403 42.23 38.7734 41.7702L38.846 41.504L39.1727 41.746C39.3542 41.8791 40.0438 42.4962 40.7093 43.1132ZM25.9239 48.1224C27.1217 49.5017 27.9445 50.5664 28.7188 51.7643C29.2996 52.6596 29.4327 52.7564 30.0498 52.7564C30.4732 52.7564 30.7031 52.5628 31.0056 51.9579C31.3807 51.2198 33.0746 49.054 33.9095 48.2555C34.3934 47.7836 34.9621 47.3601 35.2646 47.2391C35.7486 47.0576 35.8333 47.0576 36.3777 47.2391C36.7044 47.348 37.2247 47.6384 37.5272 47.9046L38.0958 48.3643L37.6361 49.1508C36.9706 50.2881 35.5792 52.2966 34.6475 53.4824C33.6312 54.7528 30.3401 58.0801 30.0982 58.0801C29.8441 58.0801 26.6014 54.7407 25.4278 53.2646C24.3268 51.8853 23.5161 50.7116 22.6208 49.2234L22.04 48.2555L22.4272 47.9046C23.1047 47.3117 23.8549 46.9487 24.3873 46.9487C24.8712 46.9487 24.9317 46.9971 25.9239 48.1224Z" fill="#2E2E2E"/>
</svg>
