<svg width="62" height="40" viewBox="0 0 62 40" fill="none" xmlns="http://www.w3.org/2000/svg">
<path d="M4.4002 1.16016H58.0002C59.7682 1.16016 61.2002 2.59216 61.2002 4.36016V35.6402C61.2002 37.4082 59.7682 38.8402 58.0002 38.8402H4.4002C2.6322 38.8402 1.2002 37.4082 1.2002 35.6402V4.36016C1.2002 2.59216 2.6322 1.16016 4.4002 1.16016Z" stroke="#2E2E2E"/>
<path d="M43.5283 19.2402V27.8802H48.3283V22.7602H53.7683C56.0563 22.7442 58.0003 21.2802 58.7363 19.2402H43.5283Z" fill="#2E2E2E"/>
<path d="M42.8887 12.1211C43.1687 15.6491 46.5127 18.4411 50.5927 18.4411C50.6087 18.4411 58.9367 18.4411 58.9367 18.4411C59.0007 18.1211 59.0327 17.7851 59.0327 17.4411C59.0327 14.5131 56.6727 12.1451 53.7527 12.1211H42.8887Z" fill="#2E2E2E"/>
<path d="M35.7841 18.3531C35.8401 18.2571 35.9281 18.2011 36.0401 18.2011C36.2001 18.2011 36.3201 18.3291 36.3281 18.4811V27.8011H41.1281V12.1211H36.3281C35.7201 12.1451 35.0321 12.5851 34.7761 13.1371L30.9601 21.3291C30.9521 21.3611 30.9361 21.3931 30.9201 21.4251C30.8641 21.5051 30.7681 21.5611 30.6561 21.5611C30.4801 21.5611 30.3361 21.4171 30.3361 21.2411V12.1211H25.5361V27.8011H30.3361C30.9361 27.7691 31.6081 27.3291 31.8641 26.7851L35.7841 18.3771C35.7761 18.3691 35.7841 18.3611 35.7841 18.3531Z" fill="#2E2E2E"/>
<path d="M17.864 18.6233L15.056 27.7993H11.6L8.79998 18.6153C8.77598 18.4713 8.64798 18.3593 8.48798 18.3593C8.31198 18.3593 8.17598 18.5033 8.17598 18.6713V27.7913H3.37598V12.1113H7.49597H8.71998C9.59998 12.1113 10.528 12.7993 10.784 13.6393L13.12 21.2793C13.24 21.6633 13.424 21.6553 13.544 21.2793L15.88 13.6393C16.136 12.7913 17.064 12.1113 17.944 12.1113H19.168H23.288V27.7913H18.488V18.6713C18.488 18.6713 18.488 18.6713 18.488 18.6633C18.488 18.4873 18.344 18.3513 18.176 18.3513C18.016 18.3593 17.888 18.4713 17.864 18.6233Z" fill="#2E2E2E"/>
</svg>
