<svg width="40" height="40" viewBox="0 0 40 40" fill="none" xmlns="http://www.w3.org/2000/svg">
<path d="M21.9167 21.9993C23.1543 21.9993 24.3413 21.5077 25.2165 20.6325C26.0917 19.7573 26.5833 18.5703 26.5833 17.3327C26.5833 16.095 26.0917 14.908 25.2165 14.0329C24.3413 13.1577 23.1543 12.666 21.9167 12.666H17.9167C17.7399 12.666 17.5703 12.7363 17.4453 12.8613C17.3203 12.9863 17.25 13.1559 17.25 13.3327V20.666H15.4167C15.2399 20.666 15.0703 20.7363 14.9453 20.8613C14.8203 20.9863 14.75 21.1559 14.75 21.3327C14.75 21.5095 14.8203 21.6791 14.9453 21.8041C15.0703 21.9291 15.2399 21.9993 15.4167 21.9993H17.25V23.9993H15.4167C15.2399 23.9993 15.0703 24.0696 14.9453 24.1946C14.8203 24.3196 14.75 24.4892 14.75 24.666C14.75 24.8428 14.8203 25.0124 14.9453 25.1374C15.0703 25.2624 15.2399 25.3327 15.4167 25.3327H17.25V27.3327C17.25 27.5095 17.3203 27.6791 17.4453 27.8041C17.5703 27.9291 17.7399 27.9993 17.9167 27.9993C18.0935 27.9993 18.2631 27.9291 18.3881 27.8041C18.5131 27.6791 18.5833 27.5095 18.5833 27.3327V25.3327H22.75C22.9268 25.3327 23.0964 25.2624 23.2214 25.1374C23.3464 25.0124 23.4167 24.8428 23.4167 24.666C23.4167 24.4892 23.3464 24.3196 23.2214 24.1946C23.0964 24.0696 22.9268 23.9993 22.75 23.9993H18.5833V21.9993H21.9167ZM25.25 17.3327C25.2489 18.2164 24.8974 19.0636 24.2725 19.6885C23.6476 20.3134 22.8004 20.6649 21.9167 20.666H18.5833V13.9993H21.9167C22.8004 14.0004 23.6476 14.3519 24.2725 14.9768C24.8974 15.6017 25.2489 16.4489 25.25 17.3327Z" fill="#2E2E2E"/>
<path d="M20 0C16.0444 0 12.1776 1.17298 8.8886 3.37061C5.59962 5.56823 3.03617 8.6918 1.52242 12.3463C0.00866588 16.0009 -0.387401 20.0222 0.384303 23.9018C1.15601 27.7814 3.06082 31.3451 5.85787 34.1421C8.65493 36.9392 12.2186 38.844 16.0982 39.6157C19.9778 40.3874 23.9991 39.9913 27.6537 38.4776C31.3082 36.9639 34.4318 34.4004 36.6294 31.1114C38.827 27.8224 40 23.9556 40 20C39.994 14.6975 37.8849 9.61393 34.1355 5.86449C30.3861 2.11506 25.3025 0.00599929 20 0ZM20 38.6667C16.3081 38.6667 12.6991 37.5719 9.62933 35.5208C6.55965 33.4697 4.16709 30.5543 2.75426 27.1434C1.34142 23.7325 0.97176 19.9793 1.69202 16.3583C2.41227 12.7373 4.1901 9.41127 6.80067 6.80067C9.41127 4.19009 12.7373 2.41227 16.3583 1.69201C19.9793 0.971753 23.7325 1.34141 27.1435 2.75425C30.5543 4.16709 33.4697 6.55964 35.5208 9.62933C37.5719 12.6991 38.6667 16.3081 38.6667 20C38.661 24.949 36.6925 29.6937 33.1931 33.1931C29.6937 36.6925 24.949 38.661 20 38.6667Z" fill="#2E2E2E"/>
<path d="M31.7697 9.86275C31.7697 9.44449 31.6457 9.03562 31.4134 8.68789C31.181 8.34015 30.8507 8.06909 30.4643 7.90902C30.0779 7.74895 29.6527 7.70709 29.2425 7.78869C28.8323 7.87029 28.4555 8.07169 28.1598 8.36742C27.864 8.66315 27.6626 9.03995 27.581 9.45015C27.4994 9.86042 27.5413 10.2856 27.7014 10.672C27.8614 11.0584 28.1324 11.3887 28.4802 11.621C28.828 11.8534 29.2368 11.9774 29.655 11.9774C29.945 11.9773 30.2317 11.9169 30.497 11.8001C32.373 14.2022 33.3692 17.1746 33.3194 20.2219C33.2697 23.2693 32.1771 26.2076 30.2238 28.5472C28.2704 30.8868 25.5744 32.4863 22.5848 33.0792C19.5952 33.672 16.4927 33.2225 13.7944 31.8054C13.6381 31.7242 13.4561 31.7082 13.288 31.7607C13.1199 31.8133 12.9795 31.9302 12.8973 32.086C12.8152 32.2418 12.798 32.4237 12.8495 32.5921C12.901 32.7605 13.0172 32.9016 13.1724 32.9848C16.148 34.5539 19.5729 35.0518 22.8722 34.3947C26.1714 33.7376 29.1443 31.9657 31.2918 29.3762C33.4392 26.7868 34.6306 23.5374 34.6659 20.1736C34.7012 16.8097 33.5784 13.536 31.4857 10.9021C31.6694 10.5864 31.7674 10.228 31.7697 9.86275ZM28.8737 9.86275C28.8737 9.70822 28.9196 9.55715 29.0054 9.42862C29.0912 9.30015 29.2133 9.20002 29.356 9.14089C29.4988 9.08175 29.6559 9.06629 29.8075 9.09642C29.959 9.12655 30.0983 9.20095 30.2076 9.31022C30.3168 9.41955 30.3912 9.55875 30.4214 9.71029C30.4515 9.86189 30.436 10.019 30.3769 10.1618C30.3178 10.3045 30.2176 10.4266 30.0892 10.5124C29.9606 10.5982 29.8096 10.6441 29.655 10.6441C29.5524 10.6441 29.4508 10.6239 29.356 10.5846C29.2612 10.5454 29.1751 10.4878 29.1026 10.4152C29.03 10.3427 28.9725 10.2566 28.9332 10.1618C28.894 10.067 28.8737 9.96535 28.8737 9.86275Z" fill="#2E2E2E"/>
<path d="M9.86246 28.0239C9.70719 28.0249 9.55246 28.043 9.40112 28.0779C7.62032 25.7626 6.65868 22.9216 6.66712 20.0006C6.67119 16.4657 8.07726 13.0766 10.5769 10.577C13.0765 8.07738 16.4655 6.67132 20.0005 6.66728C21.9503 6.66215 23.8771 7.08878 25.6425 7.91658C25.8027 7.99158 25.9861 7.99985 26.1524 7.93958C26.3187 7.87932 26.4542 7.75545 26.5291 7.59525C26.6041 7.43512 26.6124 7.25165 26.5521 7.08538C26.4919 6.91912 26.368 6.78358 26.2078 6.70858C23.2471 5.32278 19.9081 4.96635 16.7215 5.69598C13.5349 6.4256 10.6837 8.19938 8.62086 10.7355C6.5581 13.2715 5.4022 16.4243 5.33691 19.6927C5.27161 22.9611 6.30066 26.1575 8.26046 28.7739C7.93166 29.1527 7.74972 29.637 7.74779 30.1386C7.74779 30.5569 7.87186 30.9657 8.10419 31.3134C8.33659 31.6612 8.66686 31.9322 9.05326 32.0923C9.43966 32.2524 9.86486 32.2943 10.2751 32.2127C10.6853 32.1311 11.0621 31.9297 11.3578 31.6339C11.6535 31.3382 11.8549 30.9614 11.9365 30.5512C12.0181 30.141 11.9763 29.7158 11.8162 29.3294C11.6561 28.943 11.3851 28.6127 11.0373 28.3803C10.6896 28.148 10.2807 28.0239 9.86246 28.0239ZM9.86246 30.9199C9.70792 30.9199 9.55686 30.8741 9.42839 30.7882C9.29992 30.7024 9.19979 30.5804 9.14059 30.4376C9.08146 30.2948 9.06599 30.1377 9.09619 29.9862C9.12632 29.8346 9.20072 29.6954 9.30999 29.5861C9.41926 29.4769 9.55846 29.4024 9.71006 29.3723C9.86159 29.3421 10.0187 29.3576 10.1615 29.4168C10.3043 29.4759 10.4263 29.576 10.5121 29.7045C10.598 29.833 10.6438 29.9841 10.6438 30.1386C10.6438 30.2413 10.6236 30.3428 10.5843 30.4376C10.5451 30.5324 10.4875 30.6185 10.415 30.6911C10.3424 30.7637 10.2563 30.8212 10.1615 30.8604C10.0667 30.8997 9.96506 30.9199 9.86246 30.9199Z" fill="#2E2E2E"/>
</svg>
