<svg width="20" height="20" viewBox="0 0 20 20" fill="none" xmlns="http://www.w3.org/2000/svg">
<path fill-rule="evenodd" clip-rule="evenodd" d="M18.5281 4.08847C18.7952 4.79724 18.937 5.54709 18.9471 6.30447C19.0028 7.25706 19.0031 7.5686 19.005 9.97983L19.0051 10.0135C19.0051 12.4565 18.9921 12.7615 18.9491 13.7235C18.9341 14.4725 18.7931 15.2105 18.5301 15.9105C18.2982 16.5082 17.9442 17.051 17.4909 17.5043C17.0376 17.9576 16.4948 18.3116 15.8971 18.5435C15.1974 18.8061 14.4582 18.9478 13.7111 18.9625C12.7561 19.0185 12.4431 19.0185 10.0011 19.0185C7.55907 19.0185 7.25407 19.0055 6.29107 18.9625C5.54244 18.9378 4.8035 18.7857 4.10607 18.5125C3.50813 18.281 2.96505 17.9274 2.51151 17.4742C2.05797 17.021 1.70395 16.4782 1.47207 15.8805C1.20907 15.1795 1.06807 14.4415 1.05307 13.6935C0.99707 12.7375 0.99707 12.4255 0.99707 9.98347C0.99707 7.54147 1.01007 7.23647 1.05307 6.27347C1.06719 5.52658 1.2089 4.7876 1.47207 4.08847C1.70356 3.49053 2.05732 2.94749 2.5107 2.4941C2.96409 2.04071 3.50713 1.68696 4.10507 1.45547C4.80442 1.19294 5.54323 1.05092 6.29007 1.03547C7.24507 0.980469 7.55807 0.980469 10.0001 0.980469C12.4421 0.980469 12.7471 0.992469 13.7091 1.03547C14.4562 1.05081 15.1954 1.19283 15.8951 1.45547C16.4929 1.68712 17.0359 2.04093 17.4892 2.4943C17.9426 2.94767 18.2964 3.49062 18.5281 4.08847ZM5.37107 9.97847C5.37107 12.5325 7.44007 14.6015 9.99407 14.6015C11.2202 14.6015 12.396 14.1144 13.263 13.2474C14.13 12.3804 14.6171 11.2046 14.6171 9.97847C14.6171 8.75237 14.13 7.5765 13.263 6.70951C12.396 5.84253 11.2202 5.35547 9.99407 5.35547C7.44007 5.35547 5.37107 7.42447 5.37107 9.97847ZM13.7231 5.18447C13.7231 5.78047 14.2041 6.26247 14.8011 6.26247C15.3961 6.26247 15.8781 5.78047 15.8781 5.18447C15.8781 5.04297 15.8502 4.90286 15.7961 4.77213C15.7419 4.6414 15.6625 4.52262 15.5625 4.42256C15.4624 4.32251 15.3436 4.24314 15.2129 4.18899C15.0822 4.13484 14.9421 4.10697 14.8006 4.10697C14.6591 4.10697 14.519 4.13484 14.3882 4.18899C14.2575 4.24314 14.1387 4.32251 14.0387 4.42256C13.9386 4.52262 13.8592 4.6414 13.8051 4.77213C13.7509 4.90286 13.7231 5.04297 13.7231 5.18447ZM12.997 9.97859C12.997 11.6371 11.6525 12.9816 9.99397 12.9816C8.33546 12.9816 6.99097 11.6371 6.99097 9.97859C6.99097 8.32008 8.33546 6.97559 9.99397 6.97559C11.6525 6.97559 12.997 8.32008 12.997 9.97859Z" fill="url(#paint0_radial_804_5649)"/>
<defs>
<radialGradient id="paint0_radial_804_5649" cx="0" cy="0" r="1" gradientUnits="userSpaceOnUse" gradientTransform="translate(15.5 18.9995) rotate(-124.077) scale(20.5244 20.4902)">
<stop stop-color="#FFD353"/>
<stop offset="0.442708" stop-color="#E7476E"/>
<stop offset="1" stop-color="#3E5BED"/>
</radialGradient>
</defs>
</svg>
