<svg width="265" height="90" viewBox="0 0 265 90" fill="none" xmlns="http://www.w3.org/2000/svg">
    <path
        d="M95.3996 32.4746C95.6996 33.0746 96.0996 33.7746 96.4996 34.5746C96.8996 35.3746 97.2996 36.2746 97.7996 37.2746C98.2996 38.2746 98.6996 39.2746 99.0996 40.2746L100.3 43.1746L101.5 40.2746C101.9 39.2746 102.4 38.2746 102.8 37.2746C103.2 36.2746 103.7 35.3746 104.1 34.5746C104.5 33.7746 104.9 33.0746 105.2 32.4746H108.9C109.1 33.6746 109.2 34.9746 109.4 36.4746C109.6 37.9746 109.7 39.4746 109.8 41.0746C109.9 42.6746 110 44.2746 110.1 45.8746C110.2 47.4746 110.3 48.9746 110.3 50.3746H106.4C106.4 48.5746 106.3 46.6746 106.2 44.6746C106.1 42.6746 106 40.5746 105.8 38.4746L104.8 40.8746C104.4 41.7746 104 42.6746 103.7 43.4746C103.4 44.2746 103 45.1746 102.6 45.9746C102.2 46.7746 102 47.4746 101.7 48.0746H98.7996C98.5996 47.4746 98.2996 46.7746 97.8996 45.9746L96.7996 43.4746C96.3996 42.5746 95.9996 41.6746 95.6996 40.8746L94.6996 38.4746C94.4996 40.5746 94.3996 42.6746 94.2996 44.6746C94.1996 46.7746 94.0996 48.6746 94.0996 50.3746H90.0996C90.1996 48.9746 90.2996 47.4746 90.2996 45.8746C90.2996 44.2746 90.4996 42.6746 90.5996 41.0746C90.6996 39.4746 90.7996 37.9746 90.9996 36.4746C91.1996 34.9746 91.2996 33.6746 91.4996 32.4746H95.3996Z"
        fill="#262626" />
    <path
        d="M126.5 43.5746C126.5 44.5746 126.4 45.5746 126 46.4746C125.7 47.2746 125.3 48.0746 124.7 48.7746C124.1 49.3746 123.4 49.8746 122.6 50.2746C120.8 50.9746 118.9 50.9746 117.1 50.2746C116.3 49.9746 115.6 49.4746 115 48.7746C114.4 48.0746 113.9 47.3746 113.6 46.4746C113.3 45.5746 113.1 44.5746 113.1 43.5746C113.1 42.5746 113.3 41.5746 113.6 40.6746C113.9 39.8746 114.4 39.0746 115 38.3746C115.6 37.7746 116.3 37.2746 117.1 36.8746C118.8 36.1746 120.8 36.1746 122.5 36.8746C123.3 37.1746 124 37.6746 124.6 38.3746C125.2 39.0746 125.7 39.7746 126 40.6746C126.3 41.5746 126.5 42.5746 126.5 43.5746ZM122.6 43.5746C122.7 42.5746 122.4 41.5746 121.9 40.7746C121.1 39.6746 119.5 39.3746 118.3 40.2746C118.1 40.3746 117.9 40.5746 117.8 40.7746C117.3 41.5746 117 42.5746 117.1 43.5746C117.1 44.5746 117.3 45.5746 117.8 46.3746C118.6 47.4746 120.2 47.7746 121.3 46.9746C121.5 46.7746 121.7 46.5746 121.9 46.3746C122.4 45.5746 122.6 44.5746 122.6 43.5746Z"
        fill="#262626" />
    <path
        d="M135.3 45.5755C134.8 46.3755 134.3 47.1755 133.8 48.0755C133.4 48.8755 132.9 49.6755 132.6 50.4755H128.7C129.2 49.3755 129.7 48.2755 130.2 47.3755C130.7 46.5755 131.2 45.7755 131.7 44.9755C131 44.6755 130.4 44.0755 130 43.4755C129.6 42.7755 129.3 42.0755 129.4 41.2755C129.3 39.8755 129.9 38.5755 131 37.7755C132.3 36.8755 133.9 36.4755 135.6 36.5755C136 36.5755 136.5 36.5755 137 36.5755C137.5 36.5755 138.1 36.6755 138.6 36.7755C139.1 36.8755 139.6 36.8755 140.1 36.9755C140.6 37.0755 141 37.1755 141.3 37.1755V50.4755H137.4V45.6755H135.3V45.5755ZM137.3 39.5755L136.5 39.4755H135.6C134.9 39.3755 134.2 39.5755 133.7 39.9755C133.4 40.2755 133.2 40.7755 133.2 41.1755C133.2 41.4755 133.3 41.7755 133.4 41.9755C133.5 42.1755 133.7 42.3755 134 42.4755C134.2 42.5755 134.5 42.6755 134.8 42.7755C135.1 42.8755 135.4 42.8755 135.6 42.8755H137.5L137.3 39.5755Z"
        fill="#262626" />
    <path
        d="M150.6 43.575C150.6 42.575 150.8 41.675 151.1 40.775C151.4 39.875 151.9 39.175 152.5 38.475C153.1 37.775 153.9 37.275 154.7 36.975C155.6 36.575 156.7 36.375 157.7 36.375C158.4 36.375 159 36.475 159.7 36.575C160.3 36.675 160.9 36.875 161.5 37.175L160.7 40.275C160.3 40.175 159.9 39.975 159.5 39.875C159 39.775 158.5 39.675 158.1 39.675C157.1 39.575 156.2 39.975 155.5 40.775C154.9 41.575 154.6 42.575 154.6 43.575C154.5 44.575 154.8 45.575 155.4 46.375C156.1 47.075 157.1 47.475 158.2 47.375C158.7 47.375 159.2 47.375 159.7 47.275C160.2 47.175 160.7 47.075 161.2 46.875L161.8 50.075C161.3 50.275 160.7 50.475 160.1 50.575C159.4 50.675 158.6 50.775 157.9 50.775C156.8 50.775 155.7 50.575 154.7 50.175C153.9 49.875 153.1 49.375 152.5 48.675C151.9 48.075 151.5 47.275 151.2 46.375C150.7 45.475 150.6 44.575 150.6 43.575Z"
        fill="#262626" />
    <path
        d="M163.7 43.6751C163.7 42.5751 163.9 41.4751 164.3 40.4751C164.6 39.6751 165.1 38.8751 165.8 38.1751C166.4 37.5751 167.1 37.0751 167.9 36.7751C168.7 36.4751 169.5 36.2751 170.3 36.2751C172 36.1751 173.7 36.8751 174.9 38.0751C176.1 39.5751 176.7 41.3751 176.6 43.2751C176.6 43.4751 176.6 43.7751 176.6 43.9751C176.6 44.1751 176.6 44.4751 176.5 44.6751H167.7C167.8 45.4751 168.2 46.1751 168.8 46.5751C169.6 47.0751 170.5 47.3751 171.4 47.2751C172.1 47.2751 172.8 47.1751 173.5 47.0751C174.1 46.9751 174.6 46.7751 175.2 46.5751L175.7 49.6751C175.4 49.7751 175.2 49.8751 174.9 49.9751C174.6 50.0751 174.2 50.1751 173.8 50.2751C173.4 50.3751 172.9 50.3751 172.4 50.4751C171.9 50.5751 171.4 50.5751 170.9 50.5751C169.8 50.5751 168.7 50.3751 167.7 50.0751C166.8 49.7751 166.1 49.2751 165.4 48.5751C164.8 47.9751 164.3 47.1751 164.1 46.3751C163.9 45.5751 163.7 44.6751 163.7 43.6751ZM172.8 42.1751C172.8 41.8751 172.7 41.4751 172.6 41.1751C172.5 40.8751 172.4 40.5751 172.2 40.3751C172 40.1751 171.7 39.8751 171.4 39.7751C171 39.5751 170.7 39.5751 170.3 39.5751C169.9 39.5751 169.5 39.6751 169.2 39.7751C168.9 39.8751 168.6 40.0751 168.4 40.3751C168.2 40.5751 168 40.8751 167.9 41.1751C167.8 41.4751 167.7 41.8751 167.7 42.1751H172.8Z"
        fill="#262626" />
    <path
        d="M183.5 42.575C183.5 43.175 183.4 43.875 183.4 44.575L183.3 46.675C183.3 47.375 183.2 48.075 183.2 48.775C183.2 49.475 183.2 49.975 183.1 50.475H179.3C179.3 49.475 179.4 48.475 179.5 47.275C179.6 46.075 179.7 44.875 179.8 43.675C179.9 42.475 180 41.175 180.1 40.075C180.2 38.975 180.3 37.875 180.4 36.875H183.6C184.4 38.075 185 39.375 185.7 40.675C186.3 41.975 187 43.375 187.7 44.975C188.4 43.275 189.1 41.775 189.8 40.375C190.4 39.175 191 38.075 191.7 36.975H195C195.1 37.875 195.2 38.975 195.4 40.175C195.6 41.375 195.6 42.575 195.7 43.775C195.8 44.975 195.9 46.275 195.9 47.375C195.9 48.475 196 49.675 196 50.575H192.2C192.2 49.275 192.1 47.875 192.1 46.575C192.1 45.275 192 43.975 191.9 42.675L189 48.875H186.3L183.5 42.575Z"
        fill="#262626" />
    <path
        d="M203.4 41.5754C203.7 41.4754 204 41.4754 204.3 41.3754C204.7 41.2754 205.2 41.2754 205.6 41.2754C206.4 41.2754 207.1 41.3754 207.9 41.5754C208.6 41.7754 209.2 42.0754 209.7 42.4754C210.2 42.8754 210.7 43.3754 210.9 43.9754C211.2 44.6754 211.4 45.3754 211.3 46.0754C211.3 46.7754 211.2 47.4754 210.9 48.1754C210.6 48.7754 210.2 49.2754 209.7 49.5754C209.1 49.9754 208.5 50.2754 207.8 50.3754C207 50.5754 206.2 50.6754 205.4 50.6754C204.4 50.6754 203.3 50.6754 202.3 50.4754C201.3 50.3754 200.3 50.1754 199.4 49.9754V36.7754H203.3L203.4 41.5754ZM205.3 47.6754C205.9 47.6754 206.5 47.5754 207 47.2754C207.4 46.9754 207.6 46.4754 207.6 45.9754C207.6 45.6754 207.5 45.3754 207.4 45.1754C207.3 44.9754 207.1 44.7754 206.8 44.6754C206.5 44.5754 206.3 44.4754 206 44.3754C205.7 44.2754 205.3 44.2754 205 44.2754C204.7 44.2754 204.5 44.2754 204.1 44.2754L203.4 44.3754V47.4754C203.6 47.4754 203.9 47.5754 204.2 47.5754L205.3 47.6754Z"
        fill="#262626" />
    <path
        d="M219.9 45.5755C219.4 46.3755 218.9 47.1755 218.4 48.0755C218 48.8755 217.5 49.6755 217.2 50.4755H213.2C213.7 49.3755 214.2 48.2755 214.7 47.3755C215.2 46.5755 215.7 45.7755 216.2 44.9755C215.5 44.6755 214.9 44.1755 214.5 43.4755C214 42.7755 213.8 42.0755 213.9 41.2755C213.8 39.8755 214.4 38.5755 215.5 37.7755C216.8 36.8755 218.4 36.4755 220.1 36.5755C220.5 36.5755 221 36.5755 221.5 36.5755C222 36.5755 222.6 36.6755 223.1 36.7755C223.6 36.8755 224.1 36.8755 224.6 36.9755C225.1 37.0755 225.5 37.1755 225.8 37.1755V50.4755H221.9V45.6755H219.9V45.5755ZM221.9 39.5755L221.1 39.4755H220.2C219.5 39.3755 218.8 39.5755 218.2 39.9755C217.9 40.2755 217.7 40.7755 217.7 41.1755C217.7 41.4755 217.8 41.7755 217.9 41.9755C218 42.1755 218.2 42.3755 218.4 42.4755C218.6 42.5755 218.9 42.6755 219.2 42.7755C219.5 42.8755 219.8 42.8755 220 42.8755H221.9V39.5755Z"
        fill="#262626" />
    <path d="M237.7 41.0752H263.6V44.2752H237.7V41.0752Z" fill="#262626" />
    <path
        d="M94.2 67.575C94.2 68.175 94.1 68.875 94.1 69.575C94.1 70.275 94 70.975 94 71.675C94 72.375 94 73.075 93.9 73.775C93.8 74.475 93.9 74.975 93.8 75.475H90C90 74.475 90.1 73.475 90.2 72.275C90.3 71.075 90.4 69.875 90.5 68.675C90.6 67.475 90.7 66.275 90.8 65.075C90.9 63.875 91 62.875 91.1 61.875H94.3C95.1 63.075 95.7 64.375 96.4 65.675C97 66.975 97.7 68.375 98.4 69.975C99.1 68.275 99.8 66.775 100.5 65.375C101.1 64.175 101.7 63.075 102.4 61.975H105.7C105.8 62.875 105.9 63.975 106 65.175C106.1 66.375 106.2 67.575 106.3 68.775C106.4 69.975 106.5 71.175 106.5 72.375C106.5 73.575 106.6 74.675 106.7 75.575H102.8C102.8 74.275 102.7 72.875 102.6 71.575C102.5 70.275 102.5 68.975 102.4 67.675L99.5 73.975H97L94.2 67.575Z"
        fill="#262626" />
    <path
        d="M123 68.575C123 69.575 122.9 70.575 122.5 71.475C122.2 72.375 121.8 73.075 121.2 73.775C120.6 74.375 119.8 74.875 119 75.275C117.2 75.975 115.3 75.975 113.5 75.275C112.7 74.975 112 74.475 111.4 73.775C110.8 73.075 110.3 72.375 110 71.475C109.7 70.575 109.5 69.575 109.5 68.575C109.5 67.575 109.7 66.575 110 65.675C110.3 64.875 110.8 64.075 111.4 63.375C112 62.775 112.7 62.275 113.5 61.875C114.3 61.475 115.3 61.375 116.2 61.375C117.1 61.375 118.1 61.575 118.9 61.875C119.7 62.175 120.4 62.675 121 63.375C121.6 64.075 122.1 64.775 122.4 65.675C122.8 66.575 123 67.575 123 68.575ZM119.1 68.575C119.2 67.575 118.9 66.575 118.4 65.775C117.9 65.075 117.2 64.775 116.4 64.775C115.6 64.775 114.9 65.175 114.4 65.775C113.9 66.575 113.6 67.575 113.7 68.575C113.7 69.575 113.9 70.575 114.4 71.375C114.9 71.975 115.6 72.375 116.4 72.375C117.2 72.375 117.9 72.075 118.4 71.375C118.8 70.575 119.1 69.575 119.1 68.575Z"
        fill="#262626" />
    <path
        d="M131.7 70.575C131.2 71.375 130.7 72.175 130.2 72.975C129.8 73.775 129.3 74.575 129 75.375H125C125.5 74.275 126 73.175 126.5 72.275C127 71.475 127.5 70.675 128 69.875C127.3 69.575 126.7 68.975 126.3 68.375C125.8 67.675 125.6 66.975 125.6 66.175C125.5 64.775 126.1 63.475 127.2 62.675C128.5 61.775 130.1 61.375 131.8 61.475C132.2 61.475 132.7 61.475 133.2 61.475C133.7 61.475 134.2 61.575 134.8 61.675C135.4 61.775 135.8 61.775 136.3 61.875C136.8 61.975 137.2 62.075 137.5 62.075V75.375H133.6V70.575H131.7ZM133.7 64.575L132.9 64.475H132C131.3 64.375 130.6 64.575 130.1 64.975C129.8 65.275 129.6 65.775 129.6 66.175C129.6 66.675 129.9 67.275 130.4 67.475C130.6 67.575 130.9 67.675 131.2 67.775C131.5 67.875 131.8 67.875 132 67.875H133.9L133.7 64.575Z"
        fill="#262626" />
    <path
        d="M151.6 66.4748C152 66.0748 152.4 65.6748 152.8 65.2748C153.2 64.8748 153.6 64.4748 154 63.9748C154.4 63.4748 154.8 63.1748 155.1 62.7748C155.4 62.3748 155.8 61.9748 156.1 61.6748H160.8L159.5 63.0748L157.9 64.7748C157.3 65.3748 156.8 65.9748 156.2 66.4748C155.6 66.9748 155.1 67.5748 154.6 67.9748C155.2 68.4748 155.7 68.9748 156.2 69.4748C156.8 70.0748 157.4 70.6748 157.9 71.3748C158.4 72.0748 159 72.7748 159.5 73.3748C160 73.9748 160.4 74.6748 160.8 75.3748H156.4C156.1 74.8748 155.7 74.3748 155.3 73.8748C154.9 73.3748 154.5 72.8748 154.1 72.3748C153.7 71.8748 153.2 71.3748 152.8 70.9748C152.4 70.5748 152 70.1748 151.6 69.8748V75.3748H147.7V61.7748H151.6V66.4748Z"
        fill="#262626" />
    <path
        d="M175.7 68.5754C175.7 69.5754 175.6 70.4754 175.3 71.4754C175.1 72.2754 174.7 73.0754 174.2 73.6754C173.7 74.2754 173.1 74.7754 172.3 75.0754C171.5 75.4754 170.6 75.5754 169.7 75.5754C169.2 75.5754 168.7 75.5754 168.2 75.3754C167.7 75.2754 167.3 75.1754 166.8 74.9754V80.0754H162.9V62.0754C163.2 61.9754 163.6 61.8754 164.1 61.7754C164.5 61.6754 165 61.5754 165.5 61.5754C166 61.5754 166.5 61.4754 167 61.3754C167.5 61.2754 168 61.2754 168.5 61.2754C169.5 61.2754 170.5 61.4754 171.5 61.7754C172.3 62.0754 173.1 62.5754 173.7 63.1754C174.3 63.7754 174.8 64.5754 175.1 65.3754C175.6 66.5754 175.8 67.5754 175.7 68.5754ZM171.7 68.6754C171.8 67.6754 171.5 66.6754 170.9 65.7754C170.3 65.0754 169.4 64.6754 168.5 64.6754C168.2 64.6754 167.8 64.6754 167.5 64.6754C167.3 64.6754 167 64.6754 166.8 64.7754V71.7754C167.1 71.9754 167.4 72.0754 167.7 72.1754C168.1 72.2754 168.5 72.3754 168.9 72.3754C170.9 72.3754 171.8 71.1754 171.7 68.6754Z"
        fill="#262626" />
    <path
        d="M178.2 68.6751C178.2 67.5751 178.4 66.4751 178.8 65.4751C179.1 64.6751 179.6 63.8751 180.3 63.1751C180.9 62.5751 181.6 62.0751 182.4 61.7751C183.2 61.4751 184 61.2751 184.8 61.2751C186.5 61.1751 188.2 61.8751 189.4 63.0751C190.6 64.5751 191.2 66.3751 191.1 68.2751C191.1 68.4751 191.1 68.7751 191.1 68.9751C191.1 69.1751 191.1 69.4751 191 69.6751H182.2C182.3 70.4751 182.7 71.1751 183.3 71.5751C184.1 72.0751 185 72.2751 185.9 72.2751C186.6 72.2751 187.3 72.1751 188 72.0751C188.6 71.9751 189.1 71.7751 189.7 71.5751L190.2 74.6751C189.9 74.7751 189.7 74.8751 189.4 74.9751C189.1 75.0751 188.7 75.1751 188.3 75.2751C187.9 75.3751 187.4 75.3751 186.9 75.4751C186.4 75.5751 185.9 75.5751 185.4 75.5751C184.3 75.5751 183.2 75.3751 182.2 75.0751C181.4 74.7751 180.6 74.2751 180 73.5751C179.4 72.9751 179 72.1751 178.7 71.3751C178.4 70.5751 178.2 69.6751 178.2 68.6751ZM187.3 67.1751C187.3 66.8751 187.2 66.4751 187.1 66.1751C187 65.8751 186.9 65.5751 186.7 65.3751C186.5 65.1751 186.2 64.8751 185.9 64.7751C185.5 64.5751 185.2 64.5751 184.8 64.5751C184.4 64.5751 184 64.6751 183.7 64.7751C183.4 64.8751 183.1 65.0751 182.9 65.3751C182.7 65.5751 182.5 65.8751 182.4 66.1751C182.3 66.4751 182.2 66.8751 182.2 67.1751H187.3Z"
        fill="#262626" />
    <path d="M205.9 61.7754V75.3754H202V64.9754H198V75.3754H194.1V61.7754H205.9Z" fill="#262626" />
    <path
        d="M222.4 68.575C222.4 69.575 222.3 70.575 221.9 71.475C221.6 72.375 221.2 73.075 220.5 73.775C219.9 74.375 219.2 74.875 218.4 75.275C217.5 75.675 216.6 75.775 215.6 75.775C214.7 75.775 213.7 75.575 212.9 75.275C212.1 74.975 211.4 74.475 210.8 73.775C210.2 73.075 209.7 72.375 209.4 71.475C209.1 70.575 208.9 69.575 208.9 68.575C208.9 67.575 209.1 66.575 209.4 65.675C209.7 64.875 210.2 64.075 210.8 63.375C211.4 62.775 212.1 62.275 212.9 61.875C213.7 61.475 214.7 61.375 215.6 61.375C216.5 61.375 217.5 61.575 218.3 61.875C219.1 62.175 219.8 62.675 220.4 63.375C221 64.075 221.5 64.775 221.8 65.675C222.2 66.575 222.4 67.575 222.4 68.575ZM218.5 68.575C218.6 67.575 218.3 66.575 217.8 65.775C217.3 65.075 216.6 64.775 215.8 64.775C215 64.775 214.2 65.075 213.7 65.775C213.2 66.575 212.9 67.575 213 68.575C213 69.575 213.2 70.575 213.7 71.375C214.2 72.075 214.9 72.375 215.8 72.375C216.6 72.375 217.3 72.075 217.8 71.375C218.3 70.575 218.5 69.575 218.5 68.575Z"
        fill="#262626" />
    <path
        d="M224.9 68.575C224.9 67.575 225.1 66.675 225.4 65.775C225.7 64.875 226.2 64.175 226.8 63.475C227.4 62.775 228.2 62.275 229 61.975C229.9 61.575 231 61.375 232 61.375C232.7 61.375 233.3 61.475 234 61.575C234.6 61.675 235.2 61.875 235.8 62.175L235 65.275C234.6 65.175 234.2 64.975 233.8 64.875C233.3 64.775 232.8 64.675 232.4 64.675C231.4 64.575 230.5 64.975 229.8 65.775C229.2 66.575 228.9 67.575 228.9 68.575C228.8 69.575 229.1 70.575 229.7 71.375C230.4 72.075 231.4 72.475 232.5 72.375C233 72.375 233.5 72.375 234 72.275C234.5 72.175 235 72.075 235.5 71.875L236 75.075C235.5 75.275 234.9 75.475 234.3 75.575C233.6 75.675 232.8 75.775 232.1 75.775C231 75.775 229.9 75.575 228.9 75.175C228.1 74.875 227.3 74.375 226.7 73.675C226.1 72.975 225.7 72.275 225.4 71.375C225 70.475 224.9 69.575 224.9 68.575Z"
        fill="#262626" />
    <path d="M249.9 64.9754H245.5V75.4754H241.6V64.9754H237.2V61.7754H249.8V64.9754H249.9Z"
        fill="#262626" />
    <path
        d="M256.2 66.5754C256.5 66.4754 256.8 66.4754 257.2 66.3754C257.6 66.2754 258.1 66.2754 258.5 66.2754C259.3 66.2754 260 66.3754 260.8 66.5754C261.5 66.7754 262.1 67.0754 262.6 67.4754C263.1 67.8754 263.5 68.3754 263.8 68.9754C264.4 70.2754 264.4 71.7754 263.8 73.1754C263.5 73.7754 263.1 74.2754 262.6 74.5754C262 74.9754 261.4 75.2754 260.7 75.3754C259.9 75.5754 259.1 75.6754 258.3 75.6754C257.3 75.6754 256.2 75.6754 255.2 75.4754C254.2 75.3754 253.3 75.1754 252.3 74.9754V61.7754H256.2V66.5754ZM258.2 72.6754C258.8 72.6754 259.4 72.5754 259.9 72.2754C260.3 71.9754 260.5 71.4754 260.5 70.9754C260.5 70.6754 260.4 70.3754 260.3 70.1754C260.2 69.9754 260 69.7754 259.7 69.6754C259.4 69.5754 259.1 69.4754 258.8 69.3754C258.5 69.2754 258.1 69.2754 257.8 69.2754C257.5 69.2754 257.3 69.2754 256.9 69.2754L256.2 69.3754V72.4754C256.4 72.4754 256.7 72.5754 257 72.5754L258.2 72.6754Z"
        fill="#262626" />
    <path
        d="M89.9004 13.9754H90.9004V17.3754H92.3004L93.3004 15.2754C93.9004 14.0754 94.4004 13.7754 95.1004 13.7754C95.3004 13.7754 95.4004 13.7754 95.6004 13.8754L95.4004 14.8754C95.3004 14.8754 95.2004 14.8754 95.1004 14.8754C94.8004 14.8754 94.5004 14.9754 94.1004 15.8754L93.1004 17.7754L95.9004 22.0754H94.8004L92.4004 18.1754H91.0004V22.0754H90.0004L89.9004 13.9754Z"
        fill="#262626" />
    <path
        d="M96.7002 22.175L96.9002 21.275C97.0002 21.275 97.1002 21.275 97.2002 21.275C97.6002 21.275 97.9002 20.875 98.0002 20.075C98.2002 18.775 98.3002 17.475 98.5002 16.175H102.2V22.175H101.2V16.975H99.3002C99.2002 18.075 99.0002 19.175 98.9002 20.275C98.7002 21.575 98.2002 22.275 97.3002 22.275C97.1002 22.275 96.9002 22.175 96.7002 22.175Z"
        fill="#262626" />
    <path
        d="M104.2 16.0746H105.2V18.5746C105.2 19.1746 105.2 19.9746 105.1 20.7746C105.3 20.3746 105.6 19.7746 105.9 19.3746L108.1 15.9746H109.2V21.9746H108.2V19.4746C108.2 18.8746 108.2 18.0746 108.3 17.1746H108.2C108 17.6746 107.6 18.1746 107.4 18.5746L105.2 21.9746H104.1L104.2 16.0746Z"
        fill="#262626" />
    <path
        d="M111.2 16.075H112.2V18.475H115.1V16.075H116.1V22.075H115.1V19.475H112.2V22.175H111.2V16.075Z"
        fill="#262626" />
    <path
        d="M118.2 16.075H119.2V18.575C119.2 19.175 119.1 19.975 119.1 20.775C119.3 20.375 119.7 19.775 119.9 19.375L122 16.075H123.1V22.075H122.1V19.575C122.1 18.975 122.1 18.175 122.2 17.275C122 17.775 121.7 18.275 121.4 18.675L119.3 22.075H118.2V16.075Z"
        fill="#262626" />
    <path
        d="M125.2 16.0746H126.2V18.5746H127.5L128.1 17.2746C128.6 16.1746 129 15.9746 129.7 15.9746C129.8 15.9746 130 16.0746 130.1 16.0746L129.9 17.0746C129.8 17.0746 129.8 17.0746 129.7 17.0746C129.4 17.0746 129.1 17.1746 128.8 17.8746L128.3 19.0746L130.2 22.2746H129.1L127.5 19.5746H126.2V22.2746H125.2V16.0746Z"
        fill="#262626" />
    <path
        d="M130.9 20.575C130.9 19.275 132 18.575 134.6 18.275C134.6 17.475 134.3 16.775 133.4 16.775C132.8 16.775 132.1 16.975 131.6 17.375L131.2 16.675C131.9 16.175 132.7 15.875 133.6 15.875C135.1 15.875 135.7 16.875 135.7 18.375V22.075H134.9L134.8 21.375C134.3 21.875 133.5 22.175 132.8 22.275C131.9 22.375 131.1 21.675 131 20.775C130.9 20.775 130.9 20.675 130.9 20.575ZM134.6 20.675V19.075C132.6 19.275 131.9 19.775 131.9 20.575C131.9 21.375 132.4 21.475 132.9 21.475C133.6 21.475 134.2 21.175 134.6 20.675Z"
        fill="#262626" />
    <path
        d="M35.9 43.875V28.475C39.6 28.475 42.7 31.475 42.7 35.275V42.075C40.3 42.175 38 42.875 35.9 43.875ZM38.5 54.075C41 51.575 42.5 48.275 42.7 44.775C40.3 44.875 38 45.675 35.9 46.975V56.075C36.8 55.475 37.7 54.875 38.5 54.075ZM42.7 67.775V62.075C42.7 59.975 44.4 58.275 46.5 58.275H52.2C56 58.275 59 55.275 59 51.475C59 47.675 56 44.675 52.2 44.675H45.3C45.1 48.875 43.3 52.875 40.3 55.875C39 57.175 37.5 58.175 35.9 59.075V74.475C39.7 74.475 42.7 71.475 42.7 67.775ZM19.7 44.775H25.4C27.5 44.775 29.2 43.075 29.2 40.975V35.275C29.2 31.575 32.2 28.475 36 28.475V25.875C30.8 25.875 26.6 30.075 26.6 35.275V40.875C26.6 41.475 26.1 42.075 25.4 42.075H19.7C14.5 42.275 10.4 46.575 10.6 51.775C10.8 56.775 14.7 60.675 19.7 60.875H26.5V67.675C26.5 72.875 30.7 77.075 35.9 77.075V74.475C32.2 74.475 29.1 71.475 29.1 67.675V60.875C31.5 60.775 33.8 60.075 35.9 59.075V56.075C33.9 57.375 31.5 58.075 29.1 58.275C29.4 53.575 31.9 49.375 35.9 46.875V43.875C34.3 44.675 32.8 45.775 31.5 47.075C28.5 50.075 26.7 54.075 26.5 58.275H19.7C15.9 58.275 12.9 55.275 12.9 51.475C12.9 47.775 15.9 44.675 19.7 44.775ZM71.8 21.975V65.475C71.8 68.375 70.2 71.075 67.7 72.575L40 88.575C37.5 90.075 34.3 90.075 31.8 88.575L4.1 72.575C1.6 71.175 0 68.375 0 65.475V21.975C0 20.975 0.5 20.075 1.4 19.575L6.2 16.775C7.5 15.975 9.2 16.475 10 17.775C10.2 18.175 10.4 18.675 10.4 19.175V28.475L13.7 26.575V14.175C13.7 13.175 14.2 12.275 15.1 11.775L20.7 8.475C22 7.675 23.7 8.175 24.5 9.475C24.7 9.875 24.9 10.375 24.9 10.875V20.175L28.4 18.175V5.575C28.4 4.575 28.9 3.675 29.8 3.175L34.6 0.375C35.5 -0.125 36.5 -0.125 37.4 0.375L42.2 3.175C43.1 3.675 43.6 4.575 43.6 5.575V18.075L47.1 20.075V10.775C47 9.275 48.2 8.075 49.8 8.075C50.3 8.075 50.8 8.175 51.2 8.475L56.8 11.775C57.7 12.275 58.2 13.175 58.2 14.175V26.675L61.5 28.575V19.275C61.5 17.775 62.8 16.475 64.3 16.475C64.8 16.475 65.3 16.575 65.7 16.875L70.6 19.675C71.3 20.075 71.8 20.975 71.8 21.975ZM35.9 87.075V77.075C41.1 77.075 45.3 72.875 45.3 67.675V62.075C45.3 61.475 45.8 60.875 46.5 60.875H52.2C57.4 60.875 61.6 56.675 61.6 51.475C61.6 46.275 57.4 42.075 52.2 42.075H45.4V35.275C45.4 30.075 41.2 25.875 36 25.875V2.675H35.9L31 5.475C30.9 5.475 30.9 5.575 30.9 5.575V18.475C30.9 19.175 30.5 19.775 29.9 20.075L25.1 23.075C24.2 23.575 23 23.275 22.5 22.375C22.3 22.075 22.2 21.775 22.2 21.475V10.875C22.2 10.775 22.2 10.775 22.1 10.775C22 10.775 22 10.775 21.9 10.775L16.3 14.075L16.2 14.175V27.075C16.2 27.775 15.8 28.375 15.2 28.775L10.5 31.375C9.6 31.875 8.4 31.575 7.9 30.575C7.7 30.275 7.7 29.975 7.7 29.675V19.175C7.7 19.175 7.7 19.075 7.6 19.075H7.5L2.7 21.875C2.6 21.875 2.6 21.975 2.6 21.975V65.475C2.6 67.475 3.7 69.275 5.4 70.275L33.1 86.275C34 86.875 34.9 87.075 35.9 87.075Z"
        fill="url(#paint0_linear_726_5080)" />
    <defs>
        <linearGradient id="paint0_linear_726_5080" x1="65.8989" y1="74.844" x2="5.94251"
            y2="14.8975" gradientUnits="userSpaceOnUse">
            <stop offset="7.74558e-08" stop-color="#737FE6" />
            <stop offset="1" stop-color="#64C8BF" />
        </linearGradient>
    </defs>
</svg>