<svg width="260" height="90" viewBox="0 0 260 90" fill="none" xmlns="http://www.w3.org/2000/svg">
<path d="M90.3996 21C90.6996 21.6 91.0996 22.3 91.4996 23.1C91.8996 23.9 92.2996 24.8 92.7996 25.8C93.2996 26.8 93.6996 27.8 94.0996 28.8L95.2996 31.7L96.4996 28.8C96.8996 27.8 97.3996 26.8 97.7996 25.8C98.1996 24.8 98.6996 23.9 99.0996 23.1C99.4996 22.3 99.8996 21.6 100.2 21H103.9C104.1 22.2 104.2 23.5 104.4 25C104.6 26.5 104.7 28 104.8 29.6C104.9 31.2 105 32.8 105.1 34.4C105.2 36 105.3 37.5 105.3 38.9H101.4C101.4 37.1 101.3 35.2 101.2 33.2C101.1 31.2 101 29.1 100.8 27L99.7996 29.4C99.3996 30.3 98.9996 31.2 98.6996 32C98.3996 32.8 97.9996 33.7 97.5996 34.5C97.1996 35.3 96.9996 36 96.6996 36.6H93.7996C93.5996 36 93.2996 35.3 92.8996 34.5L91.7996 32C91.3996 31.1 90.9996 30.2 90.6996 29.4L89.6996 27C89.4996 29.1 89.3996 31.2 89.2996 33.2C89.1996 35.3 89.0996 37.2 89.0996 38.9H85.0996C85.1996 37.5 85.2996 36 85.2996 34.4C85.2996 32.8 85.4996 31.2 85.5996 29.6C85.6996 28 85.7996 26.5 85.9996 25C86.1996 23.5 86.2996 22.2 86.4996 21H90.3996Z" fill="#262626"/>
<path d="M121.5 32.1C121.5 33.1 121.4 34.1 121 35C120.7 35.8 120.3 36.6 119.7 37.3C119.1 37.9 118.4 38.4 117.6 38.8C115.8 39.5 113.9 39.5 112.1 38.8C111.3 38.5 110.6 38 110 37.3C109.4 36.6 108.9 35.9 108.6 35C108.3 34.1 108.1 33.1 108.1 32.1C108.1 31.1 108.3 30.1 108.6 29.2C108.9 28.4 109.4 27.6 110 26.9C110.6 26.3 111.3 25.8 112.1 25.4C113.8 24.7 115.8 24.7 117.5 25.4C118.3 25.7 119 26.2 119.6 26.9C120.2 27.6 120.7 28.3 121 29.2C121.3 30.1 121.5 31.1 121.5 32.1ZM117.6 32.1C117.7 31.1 117.4 30.1 116.9 29.3C116.1 28.2 114.5 27.9 113.3 28.8C113.1 28.9 112.9 29.1 112.8 29.3C112.3 30.1 112 31.1 112.1 32.1C112.1 33.1 112.3 34.1 112.8 34.9C113.6 36 115.2 36.3 116.3 35.5C116.5 35.3 116.7 35.1 116.9 34.9C117.4 34.1 117.6 33.1 117.6 32.1Z" fill="#262626"/>
<path d="M130.3 34.1009C129.8 34.9009 129.3 35.7009 128.8 36.6009C128.4 37.4009 127.9 38.2009 127.6 39.0009H123.7C124.2 37.9009 124.7 36.8009 125.2 35.9009C125.7 35.1009 126.2 34.3009 126.7 33.5009C126 33.2009 125.4 32.6009 125 32.0009C124.6 31.3009 124.3 30.6009 124.4 29.8009C124.3 28.4009 124.9 27.1009 126 26.3009C127.3 25.4009 128.9 25.0009 130.6 25.1009C131 25.1009 131.5 25.1009 132 25.1009C132.5 25.1009 133.1 25.2009 133.6 25.3009C134.1 25.4009 134.6 25.4009 135.1 25.5009C135.6 25.6009 136 25.7009 136.3 25.7009V39.0009H132.4V34.2009H130.3V34.1009ZM132.3 28.1009L131.5 28.0009H130.6C129.9 27.9009 129.2 28.1009 128.7 28.5009C128.4 28.8009 128.2 29.3009 128.2 29.7009C128.2 30.0009 128.3 30.3009 128.4 30.5009C128.5 30.7009 128.7 30.9009 129 31.0009C129.2 31.1009 129.5 31.2009 129.8 31.3009C130.1 31.4009 130.4 31.4009 130.6 31.4009H132.5L132.3 28.1009Z" fill="#262626"/>
<path d="M145.6 32.1004C145.6 31.1004 145.8 30.2004 146.1 29.3004C146.4 28.4004 146.9 27.7004 147.5 27.0004C148.1 26.3004 148.9 25.8004 149.7 25.5004C150.6 25.1004 151.7 24.9004 152.7 24.9004C153.4 24.9004 154 25.0004 154.7 25.1004C155.3 25.2004 155.9 25.4004 156.5 25.7004L155.7 28.8004C155.3 28.7004 154.9 28.5004 154.5 28.4004C154 28.3004 153.5 28.2004 153.1 28.2004C152.1 28.1004 151.2 28.5004 150.5 29.3004C149.9 30.1004 149.6 31.1004 149.6 32.1004C149.5 33.1004 149.8 34.1004 150.4 34.9004C151.1 35.6004 152.1 36.0004 153.2 35.9004C153.7 35.9004 154.2 35.9004 154.7 35.8004C155.2 35.7004 155.7 35.6004 156.2 35.4004L156.8 38.6004C156.3 38.8004 155.7 39.0004 155.1 39.1004C154.4 39.2004 153.6 39.3004 152.9 39.3004C151.8 39.3004 150.7 39.1004 149.7 38.7004C148.9 38.4004 148.1 37.9004 147.5 37.2004C146.9 36.6004 146.5 35.8004 146.2 34.9004C145.7 34.0004 145.6 33.1004 145.6 32.1004Z" fill="#262626"/>
<path d="M158.7 32.2003C158.7 31.1003 158.9 30.0003 159.3 29.0003C159.6 28.2003 160.1 27.4003 160.8 26.7003C161.4 26.1003 162.1 25.6003 162.9 25.3003C163.7 25.0003 164.5 24.8003 165.3 24.8003C167 24.7003 168.7 25.4003 169.9 26.6003C171.1 28.1003 171.7 29.9003 171.6 31.8003C171.6 32.0003 171.6 32.3003 171.6 32.5003C171.6 32.7003 171.6 33.0003 171.5 33.2003H162.7C162.8 34.0003 163.2 34.7003 163.8 35.1003C164.6 35.6003 165.5 35.9003 166.4 35.8003C167.1 35.8003 167.8 35.7003 168.5 35.6003C169.1 35.5003 169.6 35.3003 170.2 35.1003L170.7 38.2003C170.4 38.3003 170.2 38.4003 169.9 38.5003C169.6 38.6003 169.2 38.7003 168.8 38.8003C168.4 38.9003 167.9 38.9003 167.4 39.0003C166.9 39.1003 166.4 39.1003 165.9 39.1003C164.8 39.1003 163.7 38.9003 162.7 38.6003C161.8 38.3003 161.1 37.8003 160.4 37.1003C159.8 36.5003 159.3 35.7003 159.1 34.9003C158.9 34.1003 158.7 33.2003 158.7 32.2003ZM167.8 30.7003C167.8 30.4003 167.7 30.0003 167.6 29.7003C167.5 29.4003 167.4 29.1003 167.2 28.9003C167 28.7003 166.7 28.4003 166.4 28.3003C166 28.1003 165.7 28.1003 165.3 28.1003C164.9 28.1003 164.5 28.2003 164.2 28.3003C163.9 28.4003 163.6 28.6003 163.4 28.9003C163.2 29.1003 163 29.4003 162.9 29.7003C162.8 30.0003 162.7 30.4003 162.7 30.7003H167.8Z" fill="#262626"/>
<path d="M178.5 31.1004C178.5 31.7004 178.4 32.4004 178.4 33.1004L178.3 35.2004C178.3 35.9004 178.2 36.6004 178.2 37.3004C178.2 38.0004 178.2 38.5004 178.1 39.0004H174.3C174.3 38.0004 174.4 37.0004 174.5 35.8004C174.6 34.6004 174.7 33.4004 174.8 32.2004C174.9 31.0004 175 29.7004 175.1 28.6004C175.2 27.5004 175.3 26.4004 175.4 25.4004H178.6C179.4 26.6004 180 27.9004 180.7 29.2004C181.3 30.5004 182 31.9004 182.7 33.5004C183.4 31.8004 184.1 30.3004 184.8 28.9004C185.4 27.7004 186 26.6004 186.7 25.5004H190C190.1 26.4004 190.2 27.5004 190.4 28.7004C190.6 29.9004 190.6 31.1004 190.7 32.3004C190.8 33.5004 190.9 34.8004 190.9 35.9004C190.9 37.0004 191 38.2004 191 39.1004H187.2C187.2 37.8004 187.1 36.4004 187.1 35.1004C187.1 33.8004 187 32.5004 186.9 31.2004L184 37.4004H181.3L178.5 31.1004Z" fill="#262626"/>
<path d="M198.4 30.1008C198.7 30.0008 199 30.0008 199.3 29.9008C199.7 29.8008 200.2 29.8008 200.6 29.8008C201.4 29.8008 202.1 29.9008 202.9 30.1008C203.6 30.3008 204.2 30.6008 204.7 31.0008C205.2 31.4008 205.7 31.9008 205.9 32.5008C206.2 33.2008 206.4 33.9008 206.3 34.6008C206.3 35.3008 206.2 36.0008 205.9 36.7008C205.6 37.3008 205.2 37.8008 204.7 38.1008C204.1 38.5008 203.5 38.8008 202.8 38.9008C202 39.1008 201.2 39.2008 200.4 39.2008C199.4 39.2008 198.3 39.2008 197.3 39.0008C196.3 38.9008 195.3 38.7008 194.4 38.5008V25.3008H198.3L198.4 30.1008ZM200.3 36.2008C200.9 36.2008 201.5 36.1008 202 35.8008C202.4 35.5008 202.6 35.0008 202.6 34.5008C202.6 34.2008 202.5 33.9008 202.4 33.7008C202.3 33.5008 202.1 33.3008 201.8 33.2008C201.5 33.1008 201.3 33.0008 201 32.9008C200.7 32.8008 200.3 32.8008 200 32.8008C199.7 32.8008 199.5 32.8008 199.1 32.8008L198.4 32.9008V36.0008C198.6 36.0008 198.9 36.1008 199.2 36.1008L200.3 36.2008Z" fill="#262626"/>
<path d="M214.9 34.1009C214.4 34.9009 213.9 35.7009 213.4 36.6009C213 37.4009 212.5 38.2009 212.2 39.0009H208.2C208.7 37.9009 209.2 36.8009 209.7 35.9009C210.2 35.1009 210.7 34.3009 211.2 33.5009C210.5 33.2009 209.9 32.7009 209.5 32.0009C209 31.3009 208.8 30.6009 208.9 29.8009C208.8 28.4009 209.4 27.1009 210.5 26.3009C211.8 25.4009 213.4 25.0009 215.1 25.1009C215.5 25.1009 216 25.1009 216.5 25.1009C217 25.1009 217.6 25.2009 218.1 25.3009C218.6 25.4009 219.1 25.4009 219.6 25.5009C220.1 25.6009 220.5 25.7009 220.8 25.7009V39.0009H216.9V34.2009H214.9V34.1009ZM216.9 28.1009L216.1 28.0009H215.2C214.5 27.9009 213.8 28.1009 213.2 28.5009C212.9 28.8009 212.7 29.3009 212.7 29.7009C212.7 30.0009 212.8 30.3009 212.9 30.5009C213 30.7009 213.2 30.9009 213.4 31.0009C213.6 31.1009 213.9 31.2009 214.2 31.3009C214.5 31.4009 214.8 31.4009 215 31.4009H216.9V28.1009Z" fill="#262626"/>
<path d="M232.7 29.6006H258.6V32.8006H232.7V29.6006Z" fill="#262626"/>
<path d="M89.2 56.1004C89.2 56.7004 89.1 57.4004 89.1 58.1004C89.1 58.8004 89 59.5004 89 60.2004C89 60.9004 89 61.6004 88.9 62.3004C88.8 63.0004 88.9 63.5004 88.8 64.0004H85C85 63.0004 85.1 62.0004 85.2 60.8004C85.3 59.6004 85.4 58.4004 85.5 57.2004C85.6 56.0004 85.7 54.8004 85.8 53.6004C85.9 52.4004 86 51.4004 86.1 50.4004H89.3C90.1 51.6004 90.7 52.9004 91.4 54.2004C92 55.5004 92.7 56.9004 93.4 58.5004C94.1 56.8004 94.8 55.3004 95.5 53.9004C96.1 52.7004 96.7 51.6004 97.4 50.5004H100.7C100.8 51.4004 100.9 52.5004 101 53.7004C101.1 54.9004 101.2 56.1004 101.3 57.3004C101.4 58.5004 101.5 59.7004 101.5 60.9004C101.5 62.1004 101.6 63.2004 101.7 64.1004H97.8C97.8 62.8004 97.7 61.4004 97.6 60.1004C97.5 58.8004 97.5 57.5004 97.4 56.2004L94.5 62.5004H92L89.2 56.1004Z" fill="#262626"/>
<path d="M118 57.1004C118 58.1004 117.9 59.1004 117.5 60.0004C117.2 60.9004 116.8 61.6004 116.2 62.3004C115.6 62.9004 114.8 63.4004 114 63.8004C112.2 64.5004 110.3 64.5004 108.5 63.8004C107.7 63.5004 107 63.0004 106.4 62.3004C105.8 61.6004 105.3 60.9004 105 60.0004C104.7 59.1004 104.5 58.1004 104.5 57.1004C104.5 56.1004 104.7 55.1004 105 54.2004C105.3 53.4004 105.8 52.6004 106.4 51.9004C107 51.3004 107.7 50.8004 108.5 50.4004C109.3 50.0004 110.3 49.9004 111.2 49.9004C112.1 49.9004 113.1 50.1004 113.9 50.4004C114.7 50.7004 115.4 51.2004 116 51.9004C116.6 52.6004 117.1 53.3004 117.4 54.2004C117.8 55.1004 118 56.1004 118 57.1004ZM114.1 57.1004C114.2 56.1004 113.9 55.1004 113.4 54.3004C112.9 53.6004 112.2 53.3004 111.4 53.3004C110.6 53.3004 109.9 53.7004 109.4 54.3004C108.9 55.1004 108.6 56.1004 108.7 57.1004C108.7 58.1004 108.9 59.1004 109.4 59.9004C109.9 60.5004 110.6 60.9004 111.4 60.9004C112.2 60.9004 112.9 60.6004 113.4 59.9004C113.8 59.1004 114.1 58.1004 114.1 57.1004Z" fill="#262626"/>
<path d="M126.7 59.1004C126.2 59.9004 125.7 60.7004 125.2 61.5004C124.8 62.3004 124.3 63.1004 124 63.9004H120C120.5 62.8004 121 61.7003 121.5 60.8003C122 60.0003 122.5 59.2004 123 58.4004C122.3 58.1004 121.7 57.5004 121.3 56.9004C120.8 56.2004 120.6 55.5003 120.6 54.7003C120.5 53.3003 121.1 52.0003 122.2 51.2003C123.5 50.3003 125.1 49.9004 126.8 50.0004C127.2 50.0004 127.7 50.0004 128.2 50.0004C128.7 50.0004 129.2 50.1003 129.8 50.2003C130.4 50.3003 130.8 50.3003 131.3 50.4003C131.8 50.5003 132.2 50.6004 132.5 50.6004V63.9004H128.6V59.1004H126.7ZM128.7 53.1004L127.9 53.0004H127C126.3 52.9004 125.6 53.1004 125.1 53.5004C124.8 53.8004 124.6 54.3003 124.6 54.7003C124.6 55.2003 124.9 55.8004 125.4 56.0004C125.6 56.1004 125.9 56.2003 126.2 56.3003C126.5 56.4003 126.8 56.4004 127 56.4004H128.9L128.7 53.1004Z" fill="#262626"/>
<path d="M146.6 55.0002C147 54.6002 147.4 54.2002 147.8 53.8002C148.2 53.4002 148.6 53.0002 149 52.5002C149.4 52.0002 149.8 51.7002 150.1 51.3002C150.4 50.9002 150.8 50.5002 151.1 50.2002H155.8L154.5 51.6002L152.9 53.3002C152.3 53.9002 151.8 54.5002 151.2 55.0002C150.6 55.5002 150.1 56.1002 149.6 56.5002C150.2 57.0002 150.7 57.5002 151.2 58.0002C151.8 58.6002 152.4 59.2002 152.9 59.9002C153.4 60.6002 154 61.3002 154.5 61.9002C155 62.5002 155.4 63.2002 155.8 63.9002H151.4C151.1 63.4002 150.7 62.9002 150.3 62.4002C149.9 61.9002 149.5 61.4002 149.1 60.9002C148.7 60.4002 148.2 59.9002 147.8 59.5002C147.4 59.1002 147 58.7002 146.6 58.4002V63.9002H142.7V50.3002H146.6V55.0002Z" fill="#262626"/>
<path d="M170.7 57.1008C170.7 58.1008 170.6 59.0008 170.3 60.0008C170.1 60.8008 169.7 61.6008 169.2 62.2008C168.7 62.8008 168.1 63.3008 167.3 63.6008C166.5 64.0008 165.6 64.1008 164.7 64.1008C164.2 64.1008 163.7 64.1008 163.2 63.9008C162.7 63.8008 162.3 63.7008 161.8 63.5008V68.6008H157.9V50.6008C158.2 50.5008 158.6 50.4008 159.1 50.3008C159.5 50.2008 160 50.1008 160.5 50.1008C161 50.1008 161.5 50.0008 162 49.9008C162.5 49.8008 163 49.8008 163.5 49.8008C164.5 49.8008 165.5 50.0008 166.5 50.3008C167.3 50.6008 168.1 51.1008 168.7 51.7008C169.3 52.3008 169.8 53.1008 170.1 53.9008C170.6 55.1008 170.8 56.1008 170.7 57.1008ZM166.7 57.2008C166.8 56.2008 166.5 55.2008 165.9 54.3008C165.3 53.6008 164.4 53.2008 163.5 53.2008C163.2 53.2008 162.8 53.2008 162.5 53.2008C162.3 53.2008 162 53.2008 161.8 53.3008V60.3008C162.1 60.5008 162.4 60.6008 162.7 60.7008C163.1 60.8008 163.5 60.9008 163.9 60.9008C165.9 60.9008 166.8 59.7008 166.7 57.2008Z" fill="#262626"/>
<path d="M173.2 57.2003C173.2 56.1003 173.4 55.0003 173.8 54.0003C174.1 53.2003 174.6 52.4003 175.3 51.7003C175.9 51.1003 176.6 50.6003 177.4 50.3003C178.2 50.0003 179 49.8003 179.8 49.8003C181.5 49.7003 183.2 50.4003 184.4 51.6003C185.6 53.1003 186.2 54.9003 186.1 56.8003C186.1 57.0003 186.1 57.3003 186.1 57.5003C186.1 57.7003 186.1 58.0003 186 58.2003H177.2C177.3 59.0003 177.7 59.7003 178.3 60.1003C179.1 60.6003 180 60.8003 180.9 60.8003C181.6 60.8003 182.3 60.7003 183 60.6003C183.6 60.5003 184.1 60.3003 184.7 60.1003L185.2 63.2003C184.9 63.3003 184.7 63.4003 184.4 63.5003C184.1 63.6003 183.7 63.7003 183.3 63.8003C182.9 63.9003 182.4 63.9003 181.9 64.0003C181.4 64.1003 180.9 64.1003 180.4 64.1003C179.3 64.1003 178.2 63.9003 177.2 63.6003C176.4 63.3003 175.6 62.8003 175 62.1003C174.4 61.5003 174 60.7003 173.7 59.9003C173.4 59.1003 173.2 58.2003 173.2 57.2003ZM182.3 55.7003C182.3 55.4003 182.2 55.0003 182.1 54.7003C182 54.4003 181.9 54.1003 181.7 53.9003C181.5 53.7003 181.2 53.4003 180.9 53.3003C180.5 53.1003 180.2 53.1003 179.8 53.1003C179.4 53.1003 179 53.2003 178.7 53.3003C178.4 53.4003 178.1 53.6003 177.9 53.9003C177.7 54.1003 177.5 54.4003 177.4 54.7003C177.3 55.0003 177.2 55.4003 177.2 55.7003H182.3Z" fill="#262626"/>
<path d="M200.9 50.3008V63.9008H197V53.5008H193V63.9008H189.1V50.3008H200.9Z" fill="#262626"/>
<path d="M217.4 57.1004C217.4 58.1004 217.3 59.1004 216.9 60.0004C216.6 60.9004 216.2 61.6004 215.5 62.3004C214.9 62.9004 214.2 63.4004 213.4 63.8004C212.5 64.2004 211.6 64.3004 210.6 64.3004C209.7 64.3004 208.7 64.1004 207.9 63.8004C207.1 63.5004 206.4 63.0004 205.8 62.3004C205.2 61.6004 204.7 60.9004 204.4 60.0004C204.1 59.1004 203.9 58.1004 203.9 57.1004C203.9 56.1004 204.1 55.1004 204.4 54.2004C204.7 53.4004 205.2 52.6004 205.8 51.9004C206.4 51.3004 207.1 50.8004 207.9 50.4004C208.7 50.0004 209.7 49.9004 210.6 49.9004C211.5 49.9004 212.5 50.1004 213.3 50.4004C214.1 50.7004 214.8 51.2004 215.4 51.9004C216 52.6004 216.5 53.3004 216.8 54.2004C217.2 55.1004 217.4 56.1004 217.4 57.1004ZM213.5 57.1004C213.6 56.1004 213.3 55.1004 212.8 54.3004C212.3 53.6004 211.6 53.3004 210.8 53.3004C210 53.3004 209.2 53.6004 208.7 54.3004C208.2 55.1004 207.9 56.1004 208 57.1004C208 58.1004 208.2 59.1004 208.7 59.9004C209.2 60.6004 209.9 60.9004 210.8 60.9004C211.6 60.9004 212.3 60.6004 212.8 59.9004C213.3 59.1004 213.5 58.1004 213.5 57.1004Z" fill="#262626"/>
<path d="M219.9 57.1004C219.9 56.1004 220.1 55.2004 220.4 54.3004C220.7 53.4004 221.2 52.7004 221.8 52.0004C222.4 51.3004 223.2 50.8004 224 50.5004C224.9 50.1004 226 49.9004 227 49.9004C227.7 49.9004 228.3 50.0004 229 50.1004C229.6 50.2004 230.2 50.4004 230.8 50.7004L230 53.8004C229.6 53.7004 229.2 53.5004 228.8 53.4004C228.3 53.3004 227.8 53.2004 227.4 53.2004C226.4 53.1004 225.5 53.5004 224.8 54.3004C224.2 55.1004 223.9 56.1004 223.9 57.1004C223.8 58.1004 224.1 59.1004 224.7 59.9004C225.4 60.6004 226.4 61.0004 227.5 60.9004C228 60.9004 228.5 60.9004 229 60.8004C229.5 60.7004 230 60.6004 230.5 60.4004L231 63.6004C230.5 63.8004 229.9 64.0004 229.3 64.1004C228.6 64.2004 227.8 64.3004 227.1 64.3004C226 64.3004 224.9 64.1004 223.9 63.7004C223.1 63.4004 222.3 62.9004 221.7 62.2004C221.1 61.5004 220.7 60.8004 220.4 59.9004C220 59.0004 219.9 58.1004 219.9 57.1004Z" fill="#262626"/>
<path d="M244.9 53.5008H240.5V64.0008H236.6V53.5008H232.2V50.3008H244.8V53.5008H244.9Z" fill="#262626"/>
<path d="M251.2 55.1008C251.5 55.0008 251.8 55.0008 252.2 54.9008C252.6 54.8008 253.1 54.8008 253.5 54.8008C254.3 54.8008 255 54.9008 255.8 55.1008C256.5 55.3008 257.1 55.6008 257.6 56.0008C258.1 56.4008 258.5 56.9008 258.8 57.5008C259.4 58.8008 259.4 60.3008 258.8 61.7008C258.5 62.3008 258.1 62.8008 257.6 63.1008C257 63.5008 256.4 63.8008 255.7 63.9008C254.9 64.1008 254.1 64.2008 253.3 64.2008C252.3 64.2008 251.2 64.2008 250.2 64.0008C249.2 63.9008 248.3 63.7008 247.3 63.5008V50.3008H251.2V55.1008ZM253.2 61.2008C253.8 61.2008 254.4 61.1008 254.9 60.8008C255.3 60.5008 255.5 60.0008 255.5 59.5008C255.5 59.2008 255.4 58.9008 255.3 58.7008C255.2 58.5008 255 58.3008 254.7 58.2008C254.4 58.1008 254.1 58.0008 253.8 57.9008C253.5 57.8008 253.1 57.8008 252.8 57.8008C252.5 57.8008 252.3 57.8008 251.9 57.8008L251.2 57.9008V61.0008C251.4 61.0008 251.7 61.1008 252 61.1008L253.2 61.2008Z" fill="#262626"/>
<path d="M35.9 43.875V28.475C39.6 28.475 42.7 31.475 42.7 35.275V42.075C40.3 42.175 38 42.875 35.9 43.875ZM38.5 54.075C41 51.575 42.5 48.275 42.7 44.775C40.3 44.875 38 45.675 35.9 46.975V56.075C36.8 55.475 37.7 54.875 38.5 54.075ZM42.7 67.775V62.075C42.7 59.975 44.4 58.275 46.5 58.275H52.2C56 58.275 59 55.275 59 51.475C59 47.675 56 44.675 52.2 44.675H45.3C45.1 48.875 43.3 52.875 40.3 55.875C39 57.175 37.5 58.175 35.9 59.075V74.475C39.7 74.475 42.7 71.475 42.7 67.775ZM19.7 44.775H25.4C27.5 44.775 29.2 43.075 29.2 40.975V35.275C29.2 31.575 32.2 28.475 36 28.475V25.875C30.8 25.875 26.6 30.075 26.6 35.275V40.875C26.6 41.475 26.1 42.075 25.4 42.075H19.7C14.5 42.275 10.4 46.575 10.6 51.775C10.8 56.775 14.7 60.675 19.7 60.875H26.5V67.675C26.5 72.875 30.7 77.075 35.9 77.075V74.475C32.2 74.475 29.1 71.475 29.1 67.675V60.875C31.5 60.775 33.8 60.075 35.9 59.075V56.075C33.9 57.375 31.5 58.075 29.1 58.275C29.4 53.575 31.9 49.375 35.9 46.875V43.875C34.3 44.675 32.8 45.775 31.5 47.075C28.5 50.075 26.7 54.075 26.5 58.275H19.7C15.9 58.275 12.9 55.275 12.9 51.475C12.9 47.775 15.9 44.675 19.7 44.775ZM71.8 21.975V65.475C71.8 68.375 70.2 71.075 67.7 72.575L40 88.575C37.5 90.075 34.3 90.075 31.8 88.575L4.1 72.575C1.6 71.175 0 68.375 0 65.475V21.975C0 20.975 0.5 20.075 1.4 19.575L6.2 16.775C7.5 15.975 9.2 16.475 10 17.775C10.2 18.175 10.4 18.675 10.4 19.175V28.475L13.7 26.575V14.175C13.7 13.175 14.2 12.275 15.1 11.775L20.7 8.475C22 7.675 23.7 8.175 24.5 9.475C24.7 9.875 24.9 10.375 24.9 10.875V20.175L28.4 18.175V5.575C28.4 4.575 28.9 3.675 29.8 3.175L34.6 0.375C35.5 -0.125 36.5 -0.125 37.4 0.375L42.2 3.175C43.1 3.675 43.6 4.575 43.6 5.575V18.075L47.1 20.075V10.775C47 9.275 48.2 8.075 49.8 8.075C50.3 8.075 50.8 8.175 51.2 8.475L56.8 11.775C57.7 12.275 58.2 13.175 58.2 14.175V26.675L61.5 28.575V19.275C61.5 17.775 62.8 16.475 64.3 16.475C64.8 16.475 65.3 16.575 65.7 16.875L70.6 19.675C71.3 20.075 71.8 20.975 71.8 21.975ZM35.9 87.075V77.075C41.1 77.075 45.3 72.875 45.3 67.675V62.075C45.3 61.475 45.8 60.875 46.5 60.875H52.2C57.4 60.875 61.6 56.675 61.6 51.475C61.6 46.275 57.4 42.075 52.2 42.075H45.4V35.275C45.4 30.075 41.2 25.875 36 25.875V2.675H35.9L31 5.475C30.9 5.475 30.9 5.575 30.9 5.575V18.475C30.9 19.175 30.5 19.775 29.9 20.075L25.1 23.075C24.2 23.575 23 23.275 22.5 22.375C22.3 22.075 22.2 21.775 22.2 21.475V10.875C22.2 10.775 22.2 10.775 22.1 10.775C22 10.775 22 10.775 21.9 10.775L16.3 14.075L16.2 14.175V27.075C16.2 27.775 15.8 28.375 15.2 28.775L10.5 31.375C9.6 31.875 8.4 31.575 7.9 30.575C7.7 30.275 7.7 29.975 7.7 29.675V19.175C7.7 19.175 7.7 19.075 7.6 19.075H7.5L2.7 21.875C2.6 21.875 2.6 21.975 2.6 21.975V65.475C2.6 67.475 3.7 69.275 5.4 70.275L33.1 86.275C34 86.875 34.9 87.075 35.9 87.075Z" fill="url(#paint0_linear_804_6491)"/>
<defs>
<linearGradient id="paint0_linear_804_6491" x1="65.8989" y1="74.844" x2="5.94251" y2="14.8975" gradientUnits="userSpaceOnUse">
<stop offset="7.74558e-08" stop-color="#737FE6"/>
<stop offset="1" stop-color="#64C8BF"/>
</linearGradient>
</defs>
</svg>
