<svg width="26" height="26" viewBox="0 0 26 26" fill="none" xmlns="http://www.w3.org/2000/svg">
<path d="M2.67534 19.1251C1.18645 16.6131 0.66565 13.644 1.21072 10.7753C1.75579 7.90652 3.32925 5.33537 5.63569 3.5445C7.94213 1.75364 10.823 0.866233 13.7373 1.04888C16.6517 1.23152 19.3992 2.47165 21.464 4.53646C23.5288 6.60127 24.7689 9.34876 24.9516 12.2631C25.1342 15.1775 24.2468 18.0583 22.4559 20.3647C20.6651 22.6712 18.0939 24.2446 15.2252 24.7897C12.3564 25.3348 9.38732 24.814 6.87534 23.3251V23.3251L2.72534 24.5001C2.55531 24.5498 2.37503 24.5529 2.20341 24.509C2.03178 24.4651 1.87513 24.3758 1.74986 24.2506C1.6246 24.1253 1.53534 23.9686 1.49144 23.797C1.44753 23.6254 1.45061 23.4451 1.50034 23.2751L2.67534 19.1251Z" stroke="#2E2E2E" stroke-width="2" stroke-linecap="round" stroke-linejoin="round"/>
</svg>
