<svg width="21" height="20" viewBox="0 0 21 20" fill="none" xmlns="http://www.w3.org/2000/svg">
<path d="M17.2721 12.5114C16.5493 11.7978 15.6469 11.7978 14.9287 12.5114C14.3809 13.0547 13.833 13.5979 13.2944 14.1504C13.1471 14.3023 13.0228 14.3345 12.8432 14.2333C12.4887 14.0399 12.1112 13.8834 11.7705 13.6716C10.1822 12.6726 8.85172 11.3881 7.67314 9.94251C7.08846 9.22431 6.56823 8.45547 6.20453 7.58996C6.13087 7.41501 6.14468 7.29992 6.28739 7.1572C6.83525 6.62776 7.36929 6.08451 7.90794 5.54126C8.65836 4.78624 8.65836 3.90231 7.90333 3.14268C7.47518 2.70992 7.04702 2.28637 6.61887 1.85361C6.1769 1.41164 5.73954 0.965075 5.29297 0.527713C4.57017 -0.17667 3.66783 -0.17667 2.94963 0.532317C2.39718 1.07557 1.86774 1.63263 1.30607 2.16667C0.785845 2.65928 0.523427 3.26238 0.468182 3.96676C0.380709 5.11311 0.661542 6.195 1.05747 7.24928C1.86774 9.43148 3.10156 11.3697 4.5978 13.1468C6.61887 15.5499 9.03127 17.4513 11.8534 18.8233C13.1241 19.4402 14.4407 19.9144 15.8725 19.9926C16.8577 20.0479 17.714 19.7993 18.4 19.0304C18.8696 18.5056 19.399 18.0268 19.8963 17.525C20.6329 16.7792 20.6375 15.8768 19.9055 15.1402C19.0307 14.2609 18.1514 13.3862 17.2721 12.5114Z" fill="#363636"/>
</svg>
