<svg width="39" height="40" viewBox="0 0 39 40" fill="none" xmlns="http://www.w3.org/2000/svg">
<path d="M24.1152 6.25C26.1326 6.81902 27.972 7.93571 29.449 9.48799C30.9259 11.0403 31.9884 12.9735 32.5298 15.0937" stroke="#ACACAC" stroke-width="2" stroke-linecap="round" stroke-linejoin="round"/>
<path d="M22.8818 11.0781C24.0951 11.4168 25.2017 12.0865 26.0894 13.0195C26.9771 13.9524 27.6143 15.1154 27.9365 16.3906" stroke="#ACACAC" stroke-width="2" stroke-linecap="round" stroke-linejoin="round"/>
<path d="M14.1693 19.5001C15.3932 22.1563 17.4369 24.2987 19.9674 25.5782C20.154 25.6711 20.3605 25.7113 20.5664 25.6948C20.7724 25.6784 20.9707 25.6059 21.1419 25.4844L24.8585 22.8751C25.0228 22.758 25.2125 22.6866 25.4101 22.6674C25.6077 22.6483 25.8066 22.6821 25.9884 22.7657L32.9461 25.9063C33.1839 26.0103 33.3825 26.1936 33.5115 26.4279C33.6404 26.6623 33.6925 26.9347 33.6597 27.2032C33.4392 29.0121 32.599 30.6747 31.2965 31.8797C29.994 33.0847 28.3184 33.7496 26.5831 33.7501C21.2207 33.7501 16.078 31.5112 12.2862 27.5261C8.49445 23.5409 6.36426 18.1359 6.36426 12.5001C6.36465 10.6763 6.99731 8.91518 8.14385 7.54623C9.2904 6.17729 10.8723 5.29432 12.5934 5.06255C12.8489 5.02806 13.1081 5.08279 13.3311 5.21831C13.554 5.35383 13.7284 5.56263 13.8274 5.81255L16.8156 13.1407C16.8933 13.3287 16.9258 13.534 16.9103 13.7383C16.8947 13.9427 16.8316 14.1399 16.7264 14.3126L14.2437 18.2813C14.1331 18.4608 14.0683 18.6671 14.0552 18.8805C14.0422 19.0939 14.0815 19.3072 14.1693 19.5001V19.5001Z" stroke="#ACACAC" stroke-width="2" stroke-linecap="round" stroke-linejoin="round"/>
</svg>
