<svg width="20" height="27" viewBox="0 0 20 27" fill="none" xmlns="http://www.w3.org/2000/svg">
    <path
        d="M10.0003 0.666748C4.84033 0.666748 0.666992 4.84008 0.666992 10.0001C0.666992 15.5601 6.56033 23.2267 8.98699 26.1467C9.52033 26.7867 10.4937 26.7867 11.027 26.1467C13.4403 23.2267 19.3337 15.5601 19.3337 10.0001C19.3337 4.84008 15.1603 0.666748 10.0003 0.666748ZM10.0003 13.3334C9.11627 13.3334 8.26842 12.9822 7.6433 12.3571C7.01818 11.732 6.66699 10.8841 6.66699 10.0001C6.66699 9.11603 7.01818 8.26818 7.6433 7.64306C8.26842 7.01794 9.11627 6.66675 10.0003 6.66675C10.8844 6.66675 11.7322 7.01794 12.3573 7.64306C12.9825 8.26818 13.3337 9.11603 13.3337 10.0001C13.3337 10.8841 12.9825 11.732 12.3573 12.3571C11.7322 12.9822 10.8844 13.3334 10.0003 13.3334V13.3334Z"
        fill="#2E2E2E" />
</svg>