<svg width="31" height="30" viewBox="0 0 31 30" fill="none" xmlns="http://www.w3.org/2000/svg">
<path d="M15.4922 26.25C21.7054 26.25 26.7422 21.2132 26.7422 15C26.7422 8.7868 21.7054 3.75 15.4922 3.75C9.27898 3.75 4.24219 8.7868 4.24219 15C4.24219 21.2132 9.27898 26.25 15.4922 26.25Z" stroke="#2E2E2E" stroke-width="2" stroke-linecap="round" stroke-linejoin="round"/>
<path d="M15.4922 18.75C18.081 18.75 20.1797 16.6513 20.1797 14.0625C20.1797 11.4737 18.081 9.375 15.4922 9.375C12.9034 9.375 10.8047 11.4737 10.8047 14.0625C10.8047 16.6513 12.9034 18.75 15.4922 18.75Z" stroke="#2E2E2E" stroke-width="2" stroke-linecap="round" stroke-linejoin="round"/>
<path d="M7.96875 23.3672C8.67411 21.9778 9.75042 20.8109 11.0784 19.9958C12.4063 19.1807 13.934 18.7493 15.4922 18.7493C17.0503 18.7493 18.5781 19.1807 19.906 19.9958C21.234 20.8109 22.3103 21.9778 23.0156 23.3672" stroke="#2E2E2E" stroke-width="2" stroke-linecap="round" stroke-linejoin="round"/>
</svg>
